<svg xmlns="http://www.w3.org/2000/svg" viewBox="0 0 592.7 714.4">
  <path fill="#0062a1" d="M73 230.7C73 107.3 173 7.3 296.4 7.3s223.4 100 223.4 223.4-100 223.4-223.4 223.4C173 454 73 354 73 230.7z"/>
  <path fill="#238fce" d="M74.7 203.3c11.4 22.9 24.1 45.1 35.9 67.9 6.6 12.7 22.5 36.1 19.1 51.4-1.7 7.8-13 11.5-12.4 19.9.6 8.2 14.2 15.8 19.8 19.9 10.1 7.6 19.5 16 28.8 24.5 12.3 11.1 17.9 24 20.9 38.3 17.3 9.8 36.1 17.3 55.9 22.2 13.1-13.6 25.8-27 41.7-37.9 8.6-6 18.6-12.2 23.5-21.9 6.5-12.8-.8-20.6-4.6-31.7-3.4-9.9-6.9-13.7-17.6-19.7-18.2-10.2-39.6-13.9-59.5-19.3-18-4.9-36.4-9.6-54.7-13.7-10.6-2.3-25.3-3.3-32.8-12-11.1-12.9-19.2-35.7-23.7-51.7-2-7.4-9.8-34.7-.1-40.8 4.8-3 16.7 2.3 19.9-.1 3.1-2.3 1.5-9.2 1.5-12.7.1-22.5 15-35.2 34.2-45.2 15.9-8.3 33.4-13.1 50.3-18.8 6.3-2.1 17.2-3.9 22.3-8.7 11.6-11 4-42.6 4-58-.1-22.7-24.6-21-42.4-28.4-69.7 31.5-120.4 97.7-130 176.5zM382.4 58.6c17.6 12.5 50.4 39.9 33.4 63.6-4.8 6.7-14.9 17.2-12.8 26.7 4.2 18.9 25.8 9.6 35.9 4.9 7.3-3.4 16-6 24.3-5 4.3.5 17.8 3.7 20 7.9 4.7 9.4-17.8 18.7-23 22.5-14.6 10.4-27.5 22-35.5 38.2-4.5 9-17.9 34.3-12.2 45.2 3.4 6.5 18.5 7.7 24.4 9.5 10.4 3.2 21 6.9 31.1 11 7.5 3.1 28.8 9.5 32.9 17.4 5.8 11.2-18.6 20.7-25.1 26.7-11.3 10.6-31.7 44.2-22.9 62.9 41.3-40.5 67-97 67-159.5 0-102.9-69.5-189.5-164.2-215.5 1.6 17.7 12.1 33.2 26.7 43.5z"/>
  <path fill="#fff" d="M254.3 404.5V134.6l-32.5-.3.3-43.7 42.1-37.5h77.3v351.4h-87.2zm197.3-234.3h18.2l-78.1 107h-18.2l78.1-107zm-88.3 25.6c0 13.9 11.3 25.1 25.1 25.1 13.9 0 25.1-11.3 25.1-25.1 0-13.9-11.3-25.1-25.1-25.1s-25.1 11.3-25.1 25.1zm14.1 0c0-6.1 5-11.1 11.1-11.1s11.1 5 11.1 11.1-5 11.1-11.1 11.1c-6.2 0-11.1-4.9-11.1-11.1zm51.4 56.3c0 13.9 11.3 25.1 25.1 25.1 13.9 0 25.1-11.3 25.1-25.1 0-13.9-11.3-25.1-25.1-25.1s-25.1 11.2-25.1 25.1zm14.1 0c0-6.1 5-11.1 11.1-11.1s11.1 5 11.1 11.1-5 11.1-11.1 11.1c-6.2 0-11.1-5-11.1-11.1z" class="st2"/>
  <path fill="#238fce" d="M7.4 498.2h73.7v22.3H32.9v15.7h43.5v21.1H32.9v32.9H7.4zm82.7 46.2v-.3c0-26.4 21.3-47.9 49.7-47.9 28.4 0 49.4 21.2 49.4 47.6v.3c0 26.4-21.3 47.9-49.7 47.9-28.3 0-49.4-21.1-49.4-47.6zm73.1 0v-.3c0-13.3-9.6-24.9-23.7-24.9-13.9 0-23.3 11.3-23.3 24.6v.3c0 13.3 9.6 24.9 23.5 24.9 14.2 0 23.5-11.3 23.5-24.6zm40-46.2h43.5c14.1 0 23.8 3.7 30 10 5.4 5.3 8.2 12.4 8.2 21.4v.3c0 14.1-7.5 23.4-18.9 28.3l22 32.1h-29.5L240 562.4h-11.2v27.9h-25.5v-92.1zm42.4 44.1c8.7 0 13.7-4.2 13.7-10.9v-.3c0-7.2-5.3-10.9-13.8-10.9h-16.7v22.1h16.8zm99.9-21.8h-27.6v-22.3h80.7v22.3H371v69.7h-25.5zm65-22.3H436v34.4h32.7v-34.4h25.5v92h-25.5v-35H436v35h-25.5zm100.7 0h74v21.6h-48.7v14h44.1v20.1h-44.1v14.6h49.4v21.7h-74.7z"/>
  <path fill="#0062a1" d="M6.8 608.5H49c24.9 0 41 12.8 41 34.7v.3c0 23.3-17.9 35.5-42.4 35.5H34.1v28.2H6.8v-98.7zm40.3 49.1c9.7 0 15.6-5.1 15.6-12.8v-.3c0-8.5-5.9-13-15.8-13H34.1v26.1h13zm54.5-49.1h27.3v74.7h47.8v24h-75.1zm120.8-.7h26.3l42 99.3h-29.3l-7.2-17.6h-38l-7 17.6h-28.7l41.9-99.3zm24 60.5-11-28-11.1 28h22.1zm53.9-59.8h25.5l40.6 52.2v-52.2h27.1v98.7h-24l-42.1-54.1v54.1h-27.1zm110.6 0h79.3v23.3H438v14.9h47.3v21.6H438v15.6h52.9v23.3h-80zm118.1 24h-29.6v-24h86.5v24h-29.6v74.7H529zm33.5 66c0-4.8 3.8-8.7 8.6-8.7s8.6 3.9 8.6 8.6v.1c0 4.7-3.8 8.7-8.6 8.7-4.8-.1-8.6-4-8.6-8.7zm15.8-.1c0-4-3.1-7.3-7.2-7.3-4 0-7.2 3.3-7.2 7.3s3.1 7.2 7.2 7.2c4.1.1 7.2-3.2 7.2-7.2zm-10.7-4.4h4.1c2.1 0 3.6.9 3.6 2.9 0 1.3-.7 2.3-1.8 2.7l2 3h-2.8L571 700h-1v2.6h-2.4V694zm3.9 4.1c.8 0 1.3-.4 1.3-1 0-.7-.5-1-1.3-1H570v2h1.5z"/>
</svg>
