<svg version="1.1" id="Ebene_1" xmlns="http://www.w3.org/2000/svg" xmlns:xlink="http://www.w3.org/1999/xlink" x="0" y="0" viewBox="0 0 270 67" xml:space="preserve"><style>.st1{fill:#005ca9}.st2{fill:#1a5ba5}</style><defs><path id="SVGID_1_" fill="#FFF" d="M0 0h67v67H0z"/></defs><clipPath id="SVGID_2_" fill="#FFF"><use xlink:href="#SVGID_1_" overflow="visible"/></clipPath><path fill="#fff" d="M33.5 0C15 0 0 15 0 33.5S15 67 33.5 67 67 52 67 33.5 52 0 33.5 0z" clip-path="url(#SVGID_2_)"/><path class="st1" fill="#005CA9" d="M17.1 14.8c.4-.4.3-.7.1-1.1-.4-.4-.8-.4-1.1-.2l-.3.3 1 1.2.3-.2zm-2.5-2.9l-.3.2.8 1 .3-.2c.4-.3.3-.6.1-1-.2-.2-.5-.4-.9 0zm21.2-6.8h-.1l-.6 2.5 1 .1-.3-2.6zm9 51.5c-.5.2-.3.7.2 1.7.5 1.1.8 1.4 1.3 1.2.5-.2.4-.7-.2-1.7-.5-1-.8-1.4-1.3-1.2z"/><path class="st2" fill="#1A5BA5" d="M54.8 47.1l.4-.8 3.2 1.9.8-1.4.6.4-1.2 2.1-3.8-2.2zm1.9 4.9l-3.6-2.6 1.5-2 .6.4-.9 1.3.8.6.9-1.2.6.4-.9 1.2 1 .7 1-1.3.6.4-1.6 2.1zm-1.5 1.7l-1 1.1-3.2-3 1-1.1c.5-.5 1.1-.7 1.7-.1.3.3.5.7.2 1.1.4-.3.9-.3 1.3.1.5.5.7 1.2 0 1.9zM53 55.9l-.8-.6-.9.7.4.9-.7.6-1.9-4.2.9-.7 3.7 2.7-.7.6zM48.6 59l-2.4-3.7.8-.5 2 3.1 1.3-.9.4.6-2.1 1.4zm-2 1.2c-1.2.6-1.8-.2-2.4-1.4-.6-1.2-.9-2.1.3-2.7 1.2-.6 1.8.2 2.4 1.4.6 1.2.9 2.1-.3 2.7zm-3.4 1.4c-1.3.4-1.7-.4-2.2-1.7-.4-1.3-.6-2.2.7-2.7 1.2-.4 1.6.4 1.8 1l-.8.3c-.2-.6-.4-.8-.8-.7-.4.1-.4.6 0 1.8.4 1.3.7 1.4 1.1 1.3.3-.1.5-.3.2-1.2l.8-.3c.3 1 .3 1.8-.8 2.2zm-4.6 1.1l-.9-4.3 2.4-.5.2.7-1.5.3.2 1 1.5-.3.2.7-1.5.3.3 1.2 1.6-.4.2.7-2.7.6zm-3.6.4L33.8 60l.1 3.1h-.8l-.1-4.3h1l1.2 3-.1-3h.8l.2 4.4-1.1-.1zm-3.5 0l-.1-1-1.2-.1-.2 1-1-.1 1.6-4.3 1.1.1.8 4.5-1-.1zm-4-.5l.8-3.4-1.6 3.2-.7-.2.1-3.6-.8 3.4-.8-.2 1-4.3 1.3.3-.1 3.2 1.4-2.9 1.3.3-1 4.3-.9-.1zm-3.7-1.9c-.2.4-.2.7-.1.8l-.9-.4c0-.1 0-.3.1-.5l.3-.8c.1-.3.1-.6-.3-.7l-.5-.1-.7 1.7-.8-.3 1.7-4.1 1.5.6c.7.3.9.8.7 1.5-.2.5-.6.8-1.1.7.5.4.4.7.1 1.6zm-3.6-.6L18 58.9l2.1-3.9 2.2 1.2-.4.6-1.4-.8-.5 1 1.3.7-.3.6-1.3-.7-.6 1 1.4.8-.3.7zM16.7 58l.2-.3c-.4.2-.7.1-1-.1-.9-.6-.6-1.4.3-2.7.9-1.2 1.6-1.6 2.5-1 .8.6.8 1.2.3 1.9l-.7-.5c.2-.3.3-.7 0-.9-.4-.3-.8 0-1.4.9-.6.9-.9 1.5-.5 1.8.2.1.6.1.9-.3l.3-.4-.6-.3.4-.5 1.2.8-1.4 1.9-.5-.3zm-2.4-4.3l-1-1.1-.9.8 1.1 1.2-.5.5-1.8-1.8 3.2-3.1 1.7 1.8-.5.5-1.1-1.1-.7.7 1 1.1-.5.5zm-4.2-1.8l1.6-1.2-.6-.8-1.6 1.2-.5-.8 3.5-2.7.5.7-1.3 1 .6.8 1.3-1 .5.7-3.5 2.7-.5-.6zm-2.5-3.7l3.2-1.9-.5-.8.6-.4 1.4 2.4-.6.4-.5-.8L8 49l-.4-.8zm8.6-7c0-1.6.3-3.2.8-4.8 1.9 3.6 2.3 8.1 1.9 8.4l-.1.1c-.2.1-7.4-.7-7.3-8.3 2.2 1.9 3.5 3.4 4.7 4.6zm-4.6-11.3c1.4 1.5 1.9 2.9 2.7 4.5.7-1.1 1.7-2.1 2.8-3.1-.3 4.3-1.3 7.7-1.9 7.8-.6 0-4.2-2.9-3.6-9.2zm2.6-19.1c.8-.6 1.6-.7 2.2 0 .4.5.5 1.2.1 1.6.4-.2 1-.5 1.8.4.4.5.8 1.4-.4 2.5l-1.6 1.3-3.8-4.5 1.7-1.3zm4-2.7l2.4 4.1 1.7-1 .6 1-2.9 1.7-3-5.1 1.2-.7zM22.3 6l1.5 4c.2.4.4.6.8.5.3-.1.4-.4.3-.9l-1.5-4 1.3-.5L26 8.8c.4 1.1.4 2-1.1 2.6-1.5.6-2.1-.2-2.5-1.2L21 6.5l1.3-.5zm7.3-1.9l.2 1.1-2 .4.2 1.2 1.9-.3.2 1.1-1.9.3.2 1.3 2.1-.4.2 1.1-3.4.6-1.1-5.8 3.4-.6zm-1.3 13.1c1 .3 1.9.8 2.7 1.3-4.1.4-5.7-.4-5.8-.8 0-.4 2.5-2.5 6.1-1.9-1 .7-1.8.9-3 1.4zM35 4l1.7.1 1 5.9-1.4-.1-.1-1.1-1.4-.1-.3 1.1-1.4-.1L35 4zm4.6.5l1.5.4.1 4 1-3.7 1.2.3-1.6 5.6-1.5-.4-.1-4.2-1.1 3.9-1.2-.3 1.7-5.6zM47 7c1.6.8 1.1 1.9.8 2.5l-1.2-.6c.2-.3.4-.9 0-1.1-.5-.2-.8.2-1.5 1.6-.7 1.4-.9 1.9-.4 2.2.4.2.8-.1 1.1-.8l.1-.2-.6-.3.4-.8 1.7.9-1.4 2.8-.8-.4.2-.5c-.4.4-1 .3-1.4 0-1.3-.6-1.1-1.7-.2-3.4.8-1.7 1.4-2.8 3.2-1.9zm5.8 3.8l-.7.9-1.6-1.2-.7.9 1.5 1.1-.7.9-1.5-1.1-.8 1.1 1.7 1.2-.7.9-2.8-2.1L50 8.8l2.8 2zm2.1 2l-3.4 3.3 1.4 1.4-.8.8-2.3-2.3 4.2-4.1.9.9zm-7.3 32.3c-.5-.4.2-4.6 2.3-8.1.5 1.6.6 3 .5 4.6 1.2-1.1 2.9-3.5 4.7-4.5-1 6.9-7.3 8.1-7.5 8zm-4.9 3.6c-.1-.3 1.2-4.8 4.3-6.1-.1 1.8-.1 3.1-.6 4 1.5-.5 4.4-2.1 6.3-2.3-4.3 7-9.9 4.6-10 4.4zm-12.7-4c-4.5-1.5-7.8-5.7-7.8-10.7 0-1.3.2-2.5.6-3.7 2.3.1 6.7-.7 8.4 1.6 2.9 4 .2 10.7-1.2 12.8zm14.7-10.6c0 5-3.3 9.2-7.8 10.7-1.4-2.2-4.1-8.9-1.3-12.7 1.7-2.3 6.1-1.5 8.4-1.6.5 1.1.7 2.3.7 3.6zm-1.9-16.9c1.8-.5 3.1.3 3.5 1.8-1.5-.2-2.9-.7-3.5-1.8zm10.7 7.4c1.8 4-.4 7.7-.8 7.9-.5 0-1.9-1.8-2.9-6.4 1 .8 2 1.5 2.6 2.6.3-1.6.5-2.7 1.1-4.1zm-3.2-4.4c2.9 2.6 2.2 6.2 1.9 6.5-.4.2-2.4-.6-4.5-4.4 1.1.3 2.2.7 3.1 1.3-.3-1.3-.6-2.1-.5-3.4zm-3.6-2.7c2.8 1.2 3.1 4 2.9 4.3-.3.2-2 .1-4.5-2.1.9 0 1.9 0 2.7.3-.4-1-.8-1.5-1.1-2.5zm-2.9 12c-2-.2-7.1-.6-10-.6 1-.1 1.7-.9 1.7-1.9 0-1.1-.9-1.9-1.9-1.9-1.1 0-1.9.9-1.9 1.9 0 1 .8 1.8 1.7 1.9-2.9 0-8.1.4-10.1.6 1.7-3.9 5.7-6.7 10.3-6.7s8.4 2.8 10.2 6.7zm-4.7-9.6c-1.2.3-2.7-.7-4-1.9 1.4-.5 2.9 0 4 1.9zm-5.8-2.4c.8.5 1.5 1.1 2.1 1.8-3.7-.6-4.9-1.8-4.9-2.1.1-.3 2.9-1.6 5.8-.2-1.1.3-1.8.3-3 .5zm-6.7 1.4c-4.1 2.3-6.4 2-6.7 1.6-.2-.4 1.4-3.8 5.6-4.7-.7 1.2-1.6 1.5-2.6 2.7 1.2-.1 2.5.1 3.7.4zM19 25.8c-2 5.1-4.1 6.9-4.6 6.8-.5-.3-2.4-5 .6-9.3.4 1.7.4 3.1.5 5 .9-1.2 2.2-1.8 3.5-2.5zm-2.8.6c-.4-.4-1.5-5.2 3.4-7.8-.5 1.8-.7 2.7-1.3 4 1.3-.7 2.5-1 4-1.3-3.4 4.3-5.6 5.3-6.1 5.1zm3.5 16c3.2 1.4 4.4 5.9 4.3 6.1-.1.2-5.7 2.6-10-4.4 1.9.2 4.8 1.8 6.3 2.3-.5-.8-.5-2.1-.6-4zm14.5 7.1c1.2.4 4 2.2 5.4 3.5.6.6-.9.6-1.2.3-3-2.7-3.9-3.4-4.9-3.4-1 0-1.9.7-4.9 3.4-.3.3-1.8.2-1.2-.3 1.4-1.3 4.2-3.1 5.4-3.5.1 0-2.7-1.1-5.8 1.1-1.5 1.1-3.2 2.4-5.6 1.2-1.8-.9-2.5-2.2-2.5-2.2 1.8.5 4 .7 7.1-.8 3.4-1.6 6.5-.1 7.5.2 1-.3 4.1-1.8 7.5-.2 3.1 1.4 5.3 1.3 7.1.8 0 0-.7 1.3-2.5 2.2-2.4 1.2-4.1-.1-5.6-1.2-3.2-2.2-6-1.2-5.8-1.1zm17.1-10c-.6-.1-1.3-4.5-1.1-9 1 1.2 1.7 2.6 2.2 4 .9-1.6 1.9-3.2 3.1-4.7.4 5.1-3.6 9.8-4.2 9.7zM33.5 1.1C15.6 1.1 1.1 15.6 1.1 33.5s14.5 32.4 32.4 32.4 32.4-14.5 32.4-32.4S51.4 1.1 33.5 1.1z"/><path class="st1" fill="#005CA9" d="M53.6 52.5l-.3.3 1 .9.2-.3c.3-.3.4-.6 0-1-.3-.3-.6-.2-.9.1zm-22.5 6.9l-.6 1.9.8.1-.2-2zm-7.2-1.2c.2-.4 0-.6-.3-.8l-.4-.2-.5 1.2.3.1c.4.3.7.2.9-.3zm27.7-3.4l-1.5-1.3H50l1 1.8.6-.5zm.7-3.5l-.3.3.8.8.2-.2c.3-.4.4-.6.1-.9-.3-.3-.5-.3-.8 0z"/><path class="st2" fill="#1A5BA5" d="M83 29.6c-3.5 0-5.5-2-5.5-5.4 0-3.5 2.3-5.9 6.1-5.9 1.1 0 2.1.1 3.1.4l-.1 2c-1-.4-1.9-.6-3-.6-2.1 0-3.7 1.4-3.7 3.8 0 2.3 1.3 3.7 3.5 3.7.5 0 1-.1 1.4-.2v-3.8h2.1v5.2c-1.2.5-2.6.8-3.9.8zm9.2 0c-2.2 0-3.7-1.2-3.7-4.1 0-2.6 1.7-4.3 4-4.3 2.2 0 3.7 1.2 3.7 4 .1 2.6-1.6 4.4-4 4.4zm.2-6.7c-.9 0-1.9.7-1.9 2.5 0 1.7.6 2.5 1.8 2.5 1.1 0 1.9-.8 1.9-2.5s-.5-2.5-1.8-2.5z"/><path class="st2" d="M100.9 29.6c-2.2 0-3.7-1.2-3.7-4.1 0-2.6 1.7-4.3 4-4.3 2.2 0 3.7 1.2 3.7 4 0 2.6-1.7 4.4-4 4.4zm.2-6.7c-.9 0-1.9.7-1.9 2.5 0 1.7.6 2.5 1.8 2.5 1.1 0 1.9-.8 1.9-2.5s-.6-2.5-1.8-2.5z"/><path class="st2" fill="#1A5BA5" d="M111.3 29.4c0-.4 0-.9.1-1.3-.5.9-1.3 1.5-2.6 1.5-2 0-2.9-1.5-2.9-3.8 0-2.7 1.6-4.6 4.3-4.6.3 0 .7 0 1.1.1v-3.7h2v11.9h-2zm-.1-6.4c-.4-.1-.7-.1-1.1-.1-1.2 0-2 .7-2 2.7 0 1.5.4 2.3 1.4 2.3 1.1 0 1.7-1.3 1.7-2.6V23zm11.1-3.9c-.9 0-1.3.4-1.3 1.3v.9h1.9V23H121v6.5h-2V23h-1.4v-1.6h1.4v-.9c0-2.1.9-3.1 3-3.1.4 0 .8 0 1.2.1v1.7c-.2 0-.6-.1-.9-.1zm4.8 10.5c-2.2 0-3.7-1.2-3.7-4.1 0-2.6 1.7-4.3 4-4.3 2.2 0 3.7 1.2 3.7 4 0 2.6-1.6 4.4-4 4.4zm.2-6.7c-.9 0-1.9.7-1.9 2.5 0 1.7.6 2.5 1.8 2.5 1.1 0 1.9-.8 1.9-2.5s-.6-2.5-1.8-2.5zm7.4 3.2v3.3h-2.1v-8.1h2c0 .4 0 1-.1 1.5.3-.9 1.1-1.8 2.5-1.7v2c-1.5-.2-2.3.6-2.3 3zm16.2 3.3v-5.1c0-.7-.2-1.1-.8-1.1-.8 0-1.5.9-1.5 2.3v3.9h-2.4v-5.1c0-.7-.2-1.1-.8-1.1-.8 0-1.5.9-1.5 2.3v3.9h-2.5v-8.1h2.3c0 .3 0 .8-.1 1.3.4-.9 1.3-1.5 2.6-1.5 1.2 0 1.9.6 2.2 1.5.4-.8 1.2-1.5 2.5-1.5 1.6 0 2.5.9 2.5 2.7v5.5h-2.5zm11-3.4h-4.8c0 1.1.7 1.7 2 1.7.8 0 1.7-.2 2.5-.5v2c-.9.3-1.9.5-2.9.5-2.6 0-4.1-1.3-4.1-4.1 0-2.5 1.4-4.3 3.9-4.3 2.4 0 3.5 1.6 3.5 3.7 0 .2 0 .6-.1 1zm-3.4-3c-.7 0-1.2.6-1.3 1.4h2.5c-.1-.9-.5-1.4-1.2-1.4zm7.6 5.2c0 .8-.7 1.5-1.5 1.5s-1.5-.6-1.5-1.5c0-.8.6-1.4 1.5-1.4.8-.1 1.5.6 1.5 1.4zM83.3 49.5c-3.6 0-5.8-2.1-5.8-5.7s2.4-6.1 6.4-6.1c1.1 0 2.2.2 3.2.5l-.1 2.1c-1-.4-2-.6-3.2-.6-2.2 0-3.8 1.4-3.8 4 0 2.4 1.3 3.9 3.7 3.9.5 0 1-.1 1.5-.2v-4h2.2v5.5c-1.3.3-2.7.6-4.1.6zm9.3 0c-2.3 0-3.9-1.2-3.9-4.3 0-2.7 1.7-4.5 4.2-4.5 2.3 0 3.9 1.3 3.9 4.2 0 2.7-1.7 4.6-4.2 4.6zm.2-7c-1 0-2 .7-2 2.6 0 1.7.6 2.6 1.9 2.6 1.1 0 1.9-.9 1.9-2.6.1-1.8-.5-2.6-1.8-2.6zm8.9 7c-2.3 0-3.9-1.2-3.9-4.3 0-2.7 1.7-4.5 4.2-4.5 2.3 0 3.9 1.3 3.9 4.2 0 2.7-1.7 4.6-4.2 4.6zm.2-7c-1 0-2 .7-2 2.6 0 1.7.6 2.6 1.9 2.6 1.1 0 1.9-.9 1.9-2.6.1-1.8-.5-2.6-1.8-2.6zm10.7 6.8c0-.4 0-1 .1-1.4-.5 1-1.4 1.6-2.7 1.6-2.1 0-3.1-1.5-3.1-4 0-2.9 1.7-4.8 4.5-4.8.4 0 .7 0 1.1.1v-3.9h2.1v12.4h-2zm-.2-6.8c-.4-.1-.8-.1-1.1-.1-1.2 0-2.1.8-2.1 2.9 0 1.6.5 2.4 1.4 2.4 1.1 0 1.8-1.3 1.8-2.8v-2.4zm11.8-4c-.9 0-1.3.4-1.3 1.4v1h2v1.7h-2v6.8h-2.2v-6.8h-1.5v-1.7h1.5V40c0-2.2 1-3.2 3.2-3.2.4 0 .9 0 1.3.1v1.8c-.4-.1-.7-.2-1-.2zm4.9 11c-2.3 0-3.9-1.2-3.9-4.3 0-2.7 1.7-4.5 4.2-4.5 2.3 0 3.9 1.3 3.9 4.2.1 2.7-1.7 4.6-4.2 4.6zm.3-7c-1 0-2 .7-2 2.6 0 1.7.6 2.6 1.9 2.6 1.1 0 1.9-.9 1.9-2.6.1-1.8-.5-2.6-1.8-2.6zm7.7 3.3v3.5h-2.2v-8.5h2.1c0 .4 0 1.1-.1 1.5.3-.9 1.2-1.8 2.6-1.7v2.1c-1.6-.2-2.4.6-2.4 3.1zm10.1 3.7c-1.9 0-2.5-.7-2.5-2.7v-4.3h-1.5v-1.7h1.4v-2.6l2.2-.6v3.2h2.1v1.7h-2v3.7c0 1.1.2 1.4 1 1.4.3 0 .7-.1 1-.2v1.8c-.5.2-1.1.3-1.7.3zm8.5-.2V44c0-.9-.3-1.5-1.1-1.5-1.1 0-1.9 1.1-1.9 2.8v4.1h-2.2V36.9h2.2v3.6c0 .5 0 1.2-.1 1.8.5-1 1.4-1.6 2.7-1.6 1.9 0 2.5 1.2 2.5 2.7v5.9h-2.1zm11.2-3.9h-5.2c0 1.6.8 2.4 2.3 2.4.9 0 1.8-.2 2.6-.5V49c-.9.3-1.9.5-2.9.5-2.7 0-4.2-1.3-4.2-4.3 0-2.6 1.4-4.5 4-4.5 2.5 0 3.6 1.7 3.6 3.8-.2.3-.2.5-.2.9zm-3.6-3.1c-.9 0-1.5.7-1.7 1.7h3.1c.1-1.1-.5-1.7-1.4-1.7zm16.8 3.4h-5c0 1.1.7 1.8 2.1 1.8.8 0 1.7-.2 2.6-.5v2c-1 .3-2 .5-3 .5-2.8 0-4.3-1.3-4.3-4.3 0-2.6 1.4-4.5 4.1-4.5 2.6 0 3.7 1.7 3.7 3.9-.1.3-.1.7-.2 1.1zm-3.6-3.1c-.7 0-1.3.6-1.4 1.5h2.6c0-1-.5-1.5-1.2-1.5zm10.1 6.7V44c0-.7-.2-1.2-.9-1.2-.9 0-1.6 1-1.6 2.4v4.1h-2.6v-8.5h2.4c0 .3 0 .9-.1 1.3.5-.9 1.4-1.5 2.7-1.5 1.9 0 2.5 1.2 2.5 2.7v5.9h-2.4zm9.1 0H193l-3-8.5h2.9l1 2.9c.2.6.4 1.3.6 2.2.2-.9.3-1.4.5-2.1l1-3h2.8l-3.1 8.5zm6.7-10.9c0 .8-.7 1.5-1.6 1.5-.9 0-1.6-.7-1.6-1.5 0-.9.7-1.5 1.6-1.5.9 0 1.6.7 1.6 1.5zm-2.9 10.9v-8.5h2.6v8.5h-2.6zm6.9-3.6v3.6h-2.6v-8.5h2.4c0 .3 0 .9-.1 1.4.4-.9 1.2-1.6 2.4-1.6v2.5c-1.3-.2-2.1.5-2.1 2.6zm6.7 3.8c-2.4 0-4-1.2-4-4.3 0-2.8 1.9-4.5 4.4-4.5 2.5 0 4 1.3 4 4.2 0 2.8-1.9 4.6-4.4 4.6zm.3-6.7c-.8 0-1.7.6-1.7 2.2 0 1.5.5 2.2 1.6 2.2 1 0 1.6-.8 1.6-2.3.1-1.3-.4-2.1-1.5-2.1zm10.4 6.5V44c0-.7-.2-1.2-.9-1.2-.9 0-1.6 1-1.6 2.4v4.1h-2.6v-8.5h2.4c0 .3 0 .9-.1 1.3.5-.9 1.4-1.5 2.7-1.5 1.9 0 2.5 1.2 2.5 2.7v5.9h-2.4zm14.3 0V44c0-.7-.2-1.2-.9-1.2-.8 0-1.6.9-1.6 2.4v4.1H233V44c0-.7-.2-1.2-.9-1.2-.9 0-1.6.9-1.6 2.4v4.1h-2.6v-8.5h2.4c0 .3 0 .9-.1 1.3.5-.9 1.3-1.5 2.7-1.5 1.2 0 2 .6 2.3 1.5.5-.9 1.3-1.5 2.6-1.5 1.7 0 2.6.9 2.6 2.8v5.8h-2.3zm11.6-3.6h-5c0 1.1.7 1.8 2.1 1.8.8 0 1.7-.2 2.6-.5v2c-1 .3-2 .5-3 .5-2.8 0-4.3-1.3-4.3-4.3 0-2.6 1.4-4.5 4.1-4.5 2.6 0 3.7 1.7 3.7 3.9-.1.3-.2.7-.2 1.1zm-3.7-3.1c-.7 0-1.3.6-1.4 1.5h2.6c0-1-.4-1.5-1.2-1.5zm10.2 6.7V44c0-.7-.2-1.2-.9-1.2-.9 0-1.6 1-1.6 2.4v4.1h-2.6v-8.5h2.4c0 .3 0 .9-.1 1.3.5-.9 1.4-1.5 2.7-1.5 1.9 0 2.5 1.2 2.5 2.7v5.9h-2.4zm7.4.2c-2 0-2.6-.6-2.6-2.7v-3.9h-1.3v-2h1.3v-2.5l2.6-.7v3.2h1.8v2h-1.8v3.3c0 .9.2 1.2.9 1.2.3 0 .7-.1 1-.2v2.1c-.7.1-1.3.2-1.9.2zm6.2-1.5c0 .9-.7 1.5-1.5 1.5-.9 0-1.5-.7-1.5-1.5s.7-1.5 1.5-1.5 1.5.6 1.5 1.5z"/></svg>