<svg width="144" height="40" viewBox="0 0 144 40" fill="none" xmlns="http://www.w3.org/2000/svg">
<g clip-path="url(#clip0_157_3544)">
<path d="M41.3765 39.8689V38.2365C48.3172 37.0688 49.0738 37.4799 49.0738 26.9228V11.409C48.8415 3.53289 48.9547 2.54391 41.3765 1.84091V0.208496H58.9934C65.6422 0.208496 75.8477 0.208496 75.8477 9.01398C75.8477 14.2627 70.5394 16.5981 66.226 17.6467V17.7658C72.1122 18.9931 78.5346 22.3771 78.5346 29.3119C78.5346 38.9931 67.9776 39.8689 60.6854 39.8689H41.3765ZM56.7712 28.7876C56.7712 33.0473 56.5388 37.5931 62.1986 37.5931C66.6907 37.5931 69.7828 34.5606 69.7828 30.0685C69.7828 23.4197 63.5987 19.3923 56.7771 19.9166V28.7816L56.7712 28.7876ZM57.6469 17.7063C62.7765 17.7063 67.0959 15.5496 67.0959 9.83018C67.0959 3.35416 62.1391 2.53796 56.7712 2.53796V17.7063H57.6469Z" fill="#455F3D"/>
<path d="M97.6051 26.9228C97.6051 34.8525 97.2536 37.5394 106.649 38.2365V39.8689H82.2104V38.2365C89.1512 37.0688 89.9078 37.4799 89.9078 26.9228V11.409C89.9078 2.65711 89.3835 2.83584 82.2104 1.84091V0.208496H100.352C105.833 0.208496 117.557 0.208496 117.557 10.5868C117.557 19.4519 108.52 21.9064 101.4 23.3005L100.989 21.6086C105.833 20.3277 108.806 17.2952 108.806 12.1001C108.806 5.3917 104.081 2.532 97.6051 2.532V26.9228Z" fill="#455F3D"/>
<path d="M136.277 26.9228C136.277 37.4799 137.033 37.0747 143.974 38.2365V39.8689H120.876V38.2365C127.817 37.0688 128.573 37.4799 128.573 26.9228V13.1546C128.573 2.59753 127.817 3.00266 120.876 1.84091V0.208496H143.974V1.84091C137.033 3.00862 136.277 2.59753 136.277 13.1546V26.9228Z" fill="#455F3D"/>
<path d="M22.4428 33.3692C21.3347 32.696 20.2504 32.0228 19.1899 31.3198C18.9576 31.1649 18.7431 30.9802 18.5584 30.7657C18.0103 30.1342 17.492 29.4967 17.0332 28.8354C16.5685 28.1681 16.1634 27.477 15.8238 26.7383C15.5557 26.1663 15.3413 25.5587 15.1447 24.9152C15.097 24.7544 14.8646 24.7663 14.8349 24.9331C14.7217 25.6242 14.7574 26.351 14.9123 27.0481C15.0195 27.5307 15.1864 28.0013 15.3949 28.4481C15.4187 28.4958 15.3591 28.5435 15.3174 28.5077C14.7157 28.0251 14.1199 27.5366 13.542 27.0302L13.1071 26.494C12.7914 25.9519 12.4994 25.4097 12.2492 24.8556C11.9752 24.248 11.7488 23.6343 11.5879 22.9849C11.4628 22.5083 11.3853 22.0198 11.3258 21.5074C11.3079 21.3466 11.0815 21.3227 11.0279 21.4776C10.8551 21.99 10.7896 22.5441 10.8074 23.0922C10.8253 23.6045 10.9206 24.1169 11.0815 24.6114C11.0934 24.6471 11.0458 24.6769 11.016 24.6531C10.5274 24.1646 10.0449 23.6701 9.5742 23.1637C8.46607 21.9602 7.39964 20.715 6.36896 19.3984C6.25576 19.2495 6.01745 19.3805 6.08299 19.5533C6.3213 20.2027 6.61322 20.8342 6.92303 21.4478C7.38773 22.3415 7.91796 23.2054 8.49586 24.0335C9.07971 24.8616 9.72314 25.654 10.4083 26.4106C10.4559 26.4642 10.4083 26.5417 10.3368 26.5238C9.77081 26.3629 9.18099 26.2736 8.59714 26.2795C8.17414 26.2795 7.75115 26.3391 7.34006 26.4464C7.0958 26.5119 7.11963 26.8634 7.36985 26.8932C7.76306 26.9349 8.15031 26.9885 8.52565 27.066C9.19887 27.197 9.84826 27.3877 10.4917 27.626C11.1113 27.8524 11.713 28.1264 12.3207 28.4243C12.5113 28.5494 12.696 28.6686 12.8867 28.7937C14.0186 29.7469 16.3898 31.2363 16.9022 31.5521C16.926 31.57 16.9141 31.6057 16.8843 31.6057C15.7404 31.5402 14.3642 31.9632 14.3642 31.9632C13.9472 32.1121 13.548 32.3028 13.1786 32.5351C12.9343 32.69 13.0952 33.0713 13.3752 33.0117C13.7744 32.9224 14.1735 32.8509 14.5668 32.8032C15.3115 32.7079 16.0502 32.6781 16.7949 32.7019C17.4741 32.7258 18.1592 32.7913 18.8503 32.8866C18.9814 32.9045 19.1125 32.9283 19.2376 32.9581L22.3177 33.6909C22.5024 33.7326 22.6096 33.4824 22.4428 33.3871V33.3692Z" fill="#455F3D"/>
<path d="M28.8294 5.52279C29.5444 5.11766 29.9554 4.31933 29.8601 3.48525C29.7529 2.5499 29.0201 1.80518 28.0847 1.67411C27.763 1.63241 27.3698 1.60262 26.8872 1.59666C26.0948 1.58475 25.082 1.61454 23.7892 1.69199C23.7058 1.69199 23.6224 1.7039 23.5449 1.70986C23.5271 1.61454 23.5032 1.52517 23.4735 1.42985C23.1934 0.589812 22.4189 0.0178731 21.5372 0C21.4419 0 21.3466 0 21.2572 0.0119154C20.5006 0.101281 19.3567 0.262139 18.2307 0.506405C17.7839 0.607685 17.337 0.720882 16.92 0.834078C16.5447 0.393208 15.9965 0.125112 15.3948 0.113196C15.1386 0.113196 14.8884 0.148943 14.6501 0.238308C13.6254 0.613643 12.0704 1.1975 10.4678 1.8588C8.75198 2.56777 5.93994 4.0274 4.42073 4.83169C3.63431 5.24873 3.23515 6.13643 3.43771 7.0003C3.62836 7.78671 4.27775 8.36461 5.06416 8.47185C1.99595 11.7486 0.0894831 16.1215 0.000117633 20.9473C-0.184571 31.2839 8.04897 39.8093 18.3856 39.994C28.7222 40.1787 37.2477 31.9452 37.4324 21.6086C37.5515 14.8764 34.102 8.91272 28.8235 5.52279H28.8294ZM23.9143 36.0322C23.1756 36.4671 20.9712 36.9497 18.6298 36.8543C13.8518 36.6577 10.4976 35.073 7.57831 32.0465C4.67691 29.0438 3.08621 24.9866 3.16366 20.8102C3.20536 18.4629 3.75943 16.2049 4.76628 14.1615C4.96884 13.7444 5.55269 13.7146 5.79696 14.1019C6.27358 14.8525 6.85147 15.4721 7.44128 15.9786C11.7964 19.7081 17.0987 18.9336 20.3516 21.2273C24.7127 24.3015 25.094 29.4191 25.4633 31.975C25.8327 34.5308 24.7186 35.5615 23.9203 36.0322H23.9143ZM31.9215 28.8889C31.8023 29.1272 31.5878 29.2344 31.3734 29.2285C31.0636 29.2285 30.7538 28.9842 30.7597 28.597V28.5672C30.8968 20.8639 26.3808 14.1376 19.8095 11.0694L18.0937 15.3172C18.0102 15.5496 17.8077 15.6628 17.5992 15.6568C17.3966 15.6568 17.194 15.5317 17.1166 15.2994L15.7463 9.78254C15.7463 9.78254 15.5199 11.2898 15.2637 12.0643C15.091 12.5946 14.6739 13.2618 14.4416 13.5001C14.3939 13.5538 14.3284 13.5716 14.2688 13.5716C14.1556 13.5716 14.0543 13.4942 14.0365 13.3631C13.9531 12.7137 13.7564 11.4745 13.4049 10.3307C12.9641 8.88889 12.2313 7.45904 12.2313 7.45904C12.2313 7.45904 12.0764 8.32886 11.9453 8.87697C11.844 9.29401 11.6474 9.8302 11.5223 10.0268C11.4389 10.1698 11.2959 10.2353 11.1529 10.2294C10.9861 10.2294 10.8253 10.134 10.7597 9.95532C10.4618 9.18081 9.72904 7.78671 8.81156 7.19094C8.2277 6.80965 7.4532 6.64284 6.64295 6.62496C6.20804 6.619 5.76717 6.65475 5.33822 6.72624C5.3263 6.72624 5.31439 6.72624 5.30247 6.72624C5.13565 6.72624 5.06416 6.48794 5.23098 6.39857C6.73828 5.60024 9.47882 4.17635 11.1291 3.49717C12.7317 2.83587 14.2926 2.25201 15.2459 1.90051C15.2816 1.88859 15.3174 1.88263 15.3531 1.88263C15.5676 1.88263 15.7165 2.15073 15.5676 2.34138L14.7276 3.39589C14.7276 3.39589 16.634 2.66905 18.6001 2.22818C19.6367 2.00179 20.6853 1.85284 21.4538 1.76348C21.4717 1.76348 21.4836 1.76348 21.4955 1.76348C21.7696 1.76348 21.9006 2.1269 21.6683 2.30563C21.4359 2.4784 21.1917 2.68097 20.9772 2.88353C20.3278 3.49121 19.9525 4.15252 19.9525 4.15252C19.9525 4.15252 21.7457 3.58654 23.8845 3.45547C24.8259 3.39589 25.9459 3.34823 26.8455 3.36014C27.2268 3.3661 27.5724 3.38397 27.8405 3.41972C28.1443 3.46142 28.192 3.87846 27.906 3.99166L23.4854 7.07775L23.5092 7.08966C29.4729 9.49657 33.6432 15.3887 33.5241 22.1924C33.4824 24.5457 32.9224 26.8216 31.9215 28.8829V28.8889Z" fill="#455F3D"/>
<path d="M34.1734 0.500488H34.1615C32.9461 0.500488 31.981 1.43585 31.981 2.62739C31.981 3.81893 32.9461 4.77812 34.1615 4.77812C35.3768 4.77812 36.3122 3.84276 36.3122 2.62739C36.3122 1.41202 35.3768 0.500488 34.1734 0.500488ZM34.1734 4.39087C33.1844 4.39087 32.4516 3.61637 32.4516 2.62739C32.4516 1.63841 33.1844 0.875823 34.1496 0.875823H34.1615C35.1207 0.875823 35.8415 1.66224 35.8415 2.6393C35.8415 3.61637 35.1207 4.40278 34.1734 4.39087Z" fill="#455F3D"/>
<path d="M34.6264 2.70492V2.67513C34.8528 2.59768 35.0554 2.42491 35.0554 2.15681C35.0554 1.94233 34.96 1.76956 34.829 1.67424C34.6979 1.567 34.5073 1.50146 34.1319 1.50146C33.8221 1.50146 33.5838 1.5253 33.3574 1.567V3.80114H33.7745V2.86578H34.0426C34.3524 2.86578 34.4953 2.97302 34.549 3.2292C34.6145 3.52113 34.6681 3.72369 34.7396 3.80709H35.1686C35.1149 3.72369 35.0613 3.59262 34.9958 3.25899C34.9303 2.96706 34.823 2.78833 34.6324 2.71088L34.6264 2.70492ZM34.0545 2.54406H33.7745V1.84701C33.84 1.8351 33.9353 1.81722 34.0962 1.81722C34.4834 1.81722 34.6324 1.97808 34.6324 2.19256C34.6324 2.44278 34.3524 2.5381 34.0604 2.5381L34.0545 2.54406Z" fill="#455F3D"/>
</g>
<defs>
<clipPath id="clip0_157_3544">
<rect width="143.974" height="40" fill="white"/>
</clipPath>
</defs>
</svg>
