<svg class="site-logo__svg-main" aria-hidden="true" viewBox="0 0 454.1 154.7" xmlns="http://www.w3.org/2000/svg"><path d="m112.8 61.2c-4.8 18.6-22.9 33.3-42.9 33.3-20.1 0-38-14.7-42.9-33.4h.2s9.8 10.3-.2 0c3.1 3.1 6.2 4.4 10.7 4.4s7.7-1.3 10.7-4.4c3.1 3.1 6.3 4.5 10.9 4.4 4.5 0 7.6-1.3 10.7-4.4 3.1 3.1 6.2 4.4 10.7 4.4s7.7-1.3 10.7-4.4c3.1 3.1 6.3 4.5 10.9 4.4 4.3 0 7.4-1.2 10.5-4.3z"></path><path d="m113.2 51.2c0-24-19.4-43.5-43.3-43.5-24 0-43.5 19.5-43.5 43.5h39.1c-4.8-1.8-8.1-6.3-8.1-11.6 0-7 5.7-12.5 12.5-12.5 7 0 12.7 5.5 12.7 12.5 0 5.2-3.1 9.6-7.6 11.6z"></path><path d="m72.6 147c.7-36.9 29.7-68.8 66.9-70 0 37.2-30 68-66.9 70z"></path><path d="m67.1 147c-.7-36.9-29.7-68.8-67.1-70 0 37.2 30.2 68 67.1 70z"></path><path d="m240 10.8h-87.9v133.1h87.9v-20.4h-60.3v-36h60.3v-21h-60.3v-35h60.3z"></path><path d="m272.8 66.5h27.1c9.1 0 15.2-8.6 15.1-17.7-.1-9-6.1-17.3-15.1-17.3h-25.3v112.4h-27.8v-133.1h62.3c20.2 0 35 17.8 35.2 38 .2 20.4-14.8 38.7-35.2 38.7h-36.3z"></path><path d="m315.9 143.9h29.7l12.9-35h54.2l-8.1-21.9h-38.4l18.9-50.7 39.2 107.6h29.7l-53.1-133.1h-33.7z"></path></svg>