<svg xmlns="http://www.w3.org/2000/svg" width="62" height="95" viewBox="0 0 62 95">
  <g fill="#009A4E" fill-rule="evenodd">
    <path d="M27.6897958 0C27.5998262 0 27.510743.00482156123 27.4212167.0162179787 11.7882291 1.8107154 0 14.9170338 0 30.4998814 0 46.0888655 11.7922179 59.1947455 27.4287511 60.9839831 28.7122578 61.1334515 29.8406446 60.2191081 29.9842413 58.9808435 30.0551533 58.3759568 29.8854077 57.7802748 29.5020399 57.3033785 29.1195584 56.826044 28.570877 56.5240389 27.9597045 56.4534688 14.649084 54.9298554 4.61193743 43.7723244 4.61193743 30.4998814 4.61193743 17.2309449 14.6473112 6.07472882 27.9503973 4.54629391 29.2157328 4.40296205 30.1229628 3.26770354 29.9767069 2.01891918 29.8406446.869195992 28.8589569 0 27.6897958 0M34.3107606 0C33.1416416 0 32.1595462.869195992 32.0234888 2.01891918 31.8790109 3.26770354 32.785765 4.40296205 34.0483957 4.54629391 47.3541039 6.07472882 57.3886722 17.2309449 57.3886722 30.4998814 57.3886722 43.7723244 47.3510016 54.9298554 34.0408616 56.4534688 33.4297111 56.5240389 32.8810495 56.826044 32.4994682 57.3033785 32.1165574 57.7802748 31.9432725 58.3759568 32.0163979 58.9808435 32.1595462 60.2191081 33.2940968 61.1334515 34.5717958 60.9839831 50.2090942 59.1947455 62 46.0888655 62 30.4998814 62 14.9170338 50.2108669 1.8107154 34.5806595.0162179787 34.4898068.00482156123 34.4016132 0 34.3107606 0"></path>
    <path d="M11.2844218 32C11.1485432 32 11.0144178 32.0117997 10.881169 32.0358362 10.2811112 32.1424707 9.75907415 32.4750479 9.41017279 32.9736952 9.06170974 33.4714684 8.9288993 34.0750021 9.03628728 34.6737285 10.9337672 45.2925997 20.1704487 53 30.9999788 53 41.8277557 53 51.0648755 45.2934737 52.964547 34.6759136 53.1845828 33.4413136 52.3574762 32.2587197 51.1196653 32.0393324 50.9868549 32.0152959 50.8531678 32.0030592 50.7172891 32.0030592 49.6109737 32.0030592 48.6690277 32.7923291 48.4717845 33.8787772 46.9630929 42.3225672 39.615125 48.4523017 30.9999788 48.4523017 22.3839561 48.4523017 15.0373031 42.3212561 13.5268582 33.8752809 13.3318066 32.7883959 12.3894223 32 11.2844218 32M31.0004422 8C25.6580722 8 20.4934318 9.97328501 16.457615 13.5556596 12.4641563 17.0995093 9.82528574 21.9854615 9.026594 27.314003 8.83620057 28.5844312 9.68860422 29.7769135 10.9270349 29.9722262 11.041009 29.9910407 11.1576031 30 11.2755073 30 12.3842434 30 13.3493111 29.1506587 13.5165604 28.0235792 14.151933 23.787176 16.2541211 19.9015292 19.4305474 17.0797988 22.6414716 14.2302946 26.7489043 12.6628658 31.0004422 12.6628658 35.25067 12.6628658 39.3581028 14.2302946 42.5668435 17.0797988 45.7463266 19.9015292 47.846768 23.7862801 48.484324 28.0204435 48.6515733 29.147523 49.6148942 29.9968642 50.724067 29.9968642 50.8410978 29.9968642 50.957692 29.9883529 51.0734127 29.9690904 51.6738508 29.8750178 52.2009262 29.5462116 52.5598789 29.0444911 52.918395 28.5418745 53.0655569 27.9263709 52.9729803 27.3122111 52.1721052 21.9845656 49.5345447 17.0981654 45.5397759 13.5556596 41.5074525 9.97328501 36.3423755 8 31.0004422 8"></path>
    <path d="M30.5960662 16C23.0994483 16 17 22.2795637 17 29.9993332 17 37.7195472 23.0994483 44 30.5960662 44 33.960758 44 37.1868554 42.7309298 39.6781003 40.4248226 40.1210842 39.9572002 40.3740945 39.3233319 40.3740945 38.6543474 40.3740945 37.2457018 39.2597266 36.0997603 37.8914848 36.0997603 37.2593907 36.0997603 36.6566563 36.3446842 36.194675 36.7896366L36.1277525 36.8465336C34.5742864 38.1729453 32.6119453 38.9028274 30.5960662 38.9028274 25.8294555 38.9028274 21.9501079 34.908479 21.9501079 29.9993332 21.9501079 25.091521 25.8294555 21.0962836 30.5960662 21.0962836 34.2319021 21.0962836 37.5007436 23.4637329 38.7351403 26.9873474L38.8983449 27.4518582 28.2550732 27.4611929C26.9723195 27.5647632 25.9689134 28.6813672 25.9689134 30.0042228 25.9689134 31.4093124 27.0798273 32.5539204 28.446342 32.5539204 28.4649077 32.5539204 28.4830415 32.5543649 28.5011753 32.5521424L28.5370113 32.5512534 41.5255937 32.5481418C42.8908131 32.5481418 44 31.4053119 44 29.9993332 44 26.2525758 42.617942 22.7378514 40.1081314 20.1028083 37.587527 17.4566525 34.2098825 16 30.5960662 16M16.2638362 71.9326035C14.4892919 70.041319 12.1119546 69 9.56722433 69 4.29300811 69 0 73.4847918 0 78.9988875 0 84.4195314 4.51649562 89 9.86060734 89 12.3082853 89 14.869933 88.0209821 16.5514317 86.4385333 16.8835466 86.0838618 17.0674118 85.6099281 17.0674118 85.1061789 17.0674118 84.6598358 16.8835466 84.2989342 16.6551619 83.9731883 16.3404096 83.523285 15.8943249 83.1828538 15.3044426 83.1828538 14.8320915 83.1828538 14.4514504 83.3243664 13.9630723 83.6972832L13.9158817 83.737334C12.9208726 84.6019847 11.3297483 85.1586899 9.86060734 85.1586899 6.51230142 85.1586899 3.68398238 82.3382284 3.68398238 78.9988875 3.68398238 75.6030305 6.32309387 72.8386401 9.56722433 72.8386401 12.0398332 72.8386401 14.2644688 74.4762699 15.1045504 76.9140244L15.1624256 77.0800125 7.0554384 77.0857976C6.10183233 77.164564 5.3534608 78.0065194 5.3534608 79.0020025 5.3534608 80.0615669 6.1810769 80.9244376 7.19701017 80.9244376 7.21659872 80.9244376 7.23396129 80.9239926 7.26111814 80.9213226L17.159567 80.9195425C18.1750551 80.9195425 19 80.0580068 19 78.9988875 19 76.3248337 18.028141 73.8154329 16.2638362 71.9326035M52.3600348 70C54.5877231 70 56.6961254 70.9858155 57.9817153 72.5756566L57.9817153 72.5756566 57.9817153 72.3034506C57.9817153 71.0182523 58.7919025 70.255111 59.9978232 70.255111 61.2263822 70.255111 62 71.0024722 62 72.2657538L62 72.2657538 62 85.9909002C62 91.9680366 58.9451458 95 52.8175882 95 50.3164998 95 48.0322159 94.4161377 46.0235089 93.2655083 45.1075316 92.7228495 44.9159774 92.0482519 44.9159774 91.5783568 44.9159774 91.0931199 45.2999565 90.5206543 45.6508489 90.1042361 45.8106226 89.9245187 46.4457989 89.3511765 47.5319983 89.994214L47.5319983 89.994214 47.7075564 90.098303C48.7964731 90.7274671 50.5202438 91.471403 52.5890292 91.471403 56.3382673 91.471403 57.8654767 89.9613389 57.8654767 86.2600379L57.8654767 86.2600379 57.8654767 85.0625066C56.5903352 86.6497177 54.5259034 87.6350949 52.3600348 87.6350949 47.5189377 87.6350949 44 83.9263422 44 78.8171091 44 73.625469 47.4418807 70 52.3600348 70zM53.0202466 74C50.0637992 74 48 76.0559204 48 79.0002118 48 81.9449269 50.0637992 84 53.0202466 84 55.906056 84 58 81.8974793 58 79.0002118 58 76.1029443 55.906056 74 53.0202466 74zM41.7971401 70.1618164L41.7975694 70.1618164C41.1729267 70.0850517 40.7135674 70.0850517 40.7135674 70.0850517 39.8635381 70.0850517 39.4380942 70.7685187 39.1779337 71.6024619L36.5196604 80.326589 36.1972503 81.2604134 32.6876598 71.3189561C32.3957305 70.4728004 31.9445281 70.1461145 30.9807323 70.1461145 30.0040573 70.1461145 29.5674513 70.4728004 29.2750928 71.3137222L25.8015641 81.3066466 22.8208807 71.5174102C22.5620081 70.6847755 22.1369935 70 21.2861056 70 21.2861056 70 20.8258878 70 20.201245 70.0772008L20.201245 70.0767646C18.5518448 70.3157818 19.0807519 71.8266495 19.0807519 71.8266495L19.0816105 71.8249049C19.1116621 72.0076571 19.1648962 72.200441 19.2172718 72.3321622L23.9190498 86.7896484C24.1135262 87.5782306 24.7682205 88 25.6723425 88 26.5309579 88 27.1461559 87.6135598 27.4539695 86.7817975L30.9824496 76.7709903 34.5457035 86.7783082C34.8299053 87.597858 35.4618462 88 36.3286185 88 37.2022597 88 37.7899819 87.6349318 38.0737543 86.8123289L38.3734111 85.9085997 38.3729818 85.9085997 42.781972 72.4167777C42.8343475 72.2841843 42.886723 72.0922727 42.9176332 71.9099566L42.9193504 71.9130098C42.9193504 71.9130098 43.4482575 70.4017059 41.7971401 70.1618164"></path>
  </g>
</svg>