<?xml version="1.0" encoding="utf-8"?>
<!-- Generator: Adobe Illustrator 23.1.1, SVG Export Plug-In . SVG Version: 6.00 Build 0)  -->
<svg version="1.1" id="Layer_1" xmlns="http://www.w3.org/2000/svg" xmlns:xlink="http://www.w3.org/1999/xlink" x="0px" y="0px"
	 viewBox="0 0 228.5 60.17" style="enable-background:new 0 0 228.5 60.17;" xml:space="preserve">
<style type="text/css">
	.st0{fill:#78A22F;}
	.st1{fill:none;}
</style>
<g>
	<g>
		<g>
			<g>
				<path d="M96.02,37.76L95.2,38.2c-0.16-0.24-0.3-0.4-0.44-0.47c-0.14-0.08-0.33-0.13-0.56-0.13c-0.28,0-0.51,0.07-0.7,0.22
					c-0.19,0.14-0.28,0.32-0.28,0.53c0,0.3,0.24,0.53,0.73,0.71l0.67,0.25c0.54,0.2,0.94,0.44,1.2,0.73
					c0.25,0.29,0.38,0.64,0.38,1.05c0,0.56-0.21,1.01-0.62,1.38c-0.41,0.37-0.93,0.55-1.54,0.55c-0.58,0-1.07-0.16-1.45-0.47
					c-0.37-0.31-0.61-0.75-0.7-1.31l1.03-0.21c0.05,0.36,0.13,0.6,0.24,0.74c0.21,0.26,0.51,0.39,0.91,0.39
					c0.32,0,0.58-0.1,0.79-0.29c0.21-0.19,0.31-0.43,0.31-0.72c0-0.12-0.02-0.23-0.05-0.32c-0.04-0.1-0.09-0.19-0.17-0.27
					c-0.08-0.08-0.18-0.16-0.3-0.23c-0.12-0.07-0.27-0.14-0.43-0.21l-0.65-0.24c-0.92-0.35-1.38-0.86-1.38-1.53
					c0-0.45,0.19-0.83,0.58-1.14c0.39-0.31,0.86-0.46,1.44-0.46C94.98,36.75,95.59,37.09,96.02,37.76z"/>
				<path d="M104.91,37.72h-2.69v1.45h2.61v0.86h-2.61v2.02h2.69v0.86h-3.71v-6.04h3.71V37.72z"/>
				<path d="M112.3,40.33l2.08,2.58h-1.24l-1.92-2.47h-0.18v2.47h-1.01v-6.04h1.19c0.89,0,1.53,0.15,1.92,0.45
					c0.44,0.33,0.65,0.77,0.65,1.32c0,0.43-0.14,0.79-0.41,1.1C113.11,40.05,112.75,40.25,112.3,40.33z M111.04,39.64h0.32
					c0.96,0,1.44-0.33,1.44-0.99c0-0.62-0.47-0.93-1.4-0.93h-0.36V39.64z"/>
				<path d="M119.27,36.87l1.86,4.19l1.88-4.19h1.11l-3.02,6.5l-2.94-6.5H119.27z"/>
				<path d="M129.76,36.87v6.04h-1.01v-6.04H129.76z"/>
				<path d="M140.12,37.19v1.08c-0.59-0.44-1.19-0.66-1.82-0.66c-0.69,0-1.27,0.23-1.75,0.67c-0.48,0.44-0.71,0.98-0.71,1.63
					c0,0.63,0.24,1.17,0.71,1.6c0.48,0.43,1.06,0.65,1.75,0.65c0.36,0,0.66-0.05,0.91-0.16c0.14-0.05,0.28-0.12,0.43-0.21
					c0.15-0.09,0.31-0.2,0.47-0.32v1.1c-0.58,0.3-1.19,0.44-1.83,0.44c-0.96,0-1.78-0.3-2.46-0.9c-0.68-0.61-1.01-1.34-1.01-2.2
					c0-0.77,0.28-1.46,0.85-2.06c0.7-0.74,1.6-1.11,2.7-1.11C138.97,36.75,139.56,36.89,140.12,37.19z"/>
				<path d="M148.89,37.72h-2.69v1.45h2.61v0.86h-2.61v2.02h2.69v0.86h-3.71v-6.04h3.71V37.72z"/>
				<path d="M157.8,37.76l-0.82,0.44c-0.15-0.24-0.3-0.4-0.44-0.47c-0.15-0.08-0.33-0.13-0.56-0.13c-0.28,0-0.52,0.07-0.7,0.22
					c-0.19,0.14-0.28,0.32-0.28,0.53c0,0.3,0.24,0.53,0.73,0.71l0.67,0.25c0.55,0.2,0.95,0.44,1.2,0.73
					c0.25,0.29,0.38,0.64,0.38,1.05c0,0.56-0.21,1.01-0.62,1.38c-0.41,0.37-0.93,0.55-1.54,0.55c-0.58,0-1.06-0.16-1.44-0.47
					c-0.37-0.31-0.61-0.75-0.7-1.31l1.03-0.21c0.05,0.36,0.13,0.6,0.24,0.74c0.21,0.26,0.51,0.39,0.91,0.39
					c0.31,0,0.58-0.1,0.79-0.29c0.21-0.19,0.31-0.43,0.31-0.72c0-0.12-0.02-0.23-0.06-0.32c-0.03-0.1-0.09-0.19-0.17-0.27
					c-0.07-0.08-0.18-0.16-0.3-0.23c-0.12-0.07-0.27-0.14-0.44-0.21l-0.65-0.24c-0.92-0.35-1.38-0.86-1.38-1.53
					c0-0.45,0.19-0.83,0.58-1.14c0.38-0.31,0.87-0.46,1.44-0.46C156.76,36.75,157.37,37.09,157.8,37.76z"/>
			</g>
		</g>
		<g>
			<g>
				<g>
					<path class="st0" d="M19.92,11.04c-0.6-0.76-1.29-1.36-2.09-1.79c-0.79-0.43-1.74-0.63-2.8-0.63c-0.51,0-1,0.08-1.5,0.25
						c-0.47,0.17-0.89,0.41-1.27,0.68c-0.37,0.29-0.65,0.63-0.88,1.05c-0.22,0.42-0.36,0.86-0.36,1.32c0,0.84,0.32,1.51,0.96,1.99
						c0.65,0.5,1.44,0.94,2.43,1.34c0.96,0.38,2.01,0.78,3.1,1.2c1.14,0.41,2.17,0.96,3.13,1.64c0.97,0.67,1.76,1.54,2.41,2.58
						c0.64,1.02,0.95,2.37,0.95,4c0,1.47-0.23,2.85-0.74,4.08c-0.49,1.23-1.2,2.28-2.13,3.17c-0.91,0.91-2.05,1.59-3.37,2.08
						c-1.35,0.5-2.84,0.73-4.51,0.73c-2.27,0-4.21-0.49-5.88-1.55c-1.68-1.07-3.07-2.46-4.19-4.17L7.3,25.4
						c0.19,0.57,0.51,1.13,0.9,1.65c0.38,0.52,0.84,0.99,1.36,1.38c0.53,0.38,1.09,0.68,1.7,0.93c0.6,0.23,1.24,0.34,1.95,0.34
						c0.63,0,1.2-0.1,1.74-0.34c0.52-0.25,0.97-0.55,1.34-0.93c0.37-0.39,0.65-0.86,0.85-1.37c0.17-0.5,0.27-1.03,0.27-1.61
						c0-0.76-0.16-1.4-0.51-1.91c-0.33-0.52-0.8-0.95-1.36-1.32c-0.54-0.34-1.16-0.62-1.83-0.88c-0.69-0.21-1.34-0.45-1.98-0.68
						c-1.03-0.41-2.03-0.82-2.91-1.28c-0.9-0.45-1.66-0.99-2.31-1.63c-0.67-0.62-1.14-1.37-1.52-2.18
						c-0.36-0.83-0.56-1.81-0.56-2.97c0-1.21,0.25-2.37,0.74-3.43c0.46-1.09,1.11-2.02,1.98-2.83c0.85-0.81,1.85-1.43,3.02-1.89
						c1.15-0.47,2.42-0.69,3.83-0.69c0.71,0,1.51,0.1,2.33,0.26c0.84,0.13,1.65,0.37,2.46,0.65c0.81,0.3,1.59,0.64,2.3,1.03
						c0.72,0.41,1.33,0.86,1.84,1.37L19.92,11.04z"/>
				</g>
				<g>
					<path class="st0" d="M48.34,12.36c-0.9-0.98-1.98-1.76-3.21-2.3c-1.26-0.55-2.6-0.82-3.98-0.82c-1.53,0-2.89,0.29-4.08,0.88
						c-1.19,0.59-2.18,1.34-3.01,2.29c-0.83,0.96-1.45,2.04-1.9,3.25c-0.43,1.22-0.63,2.46-0.63,3.73c0,1.27,0.21,2.46,0.67,3.65
						c0.45,1.18,1.09,2.24,1.92,3.17c0.81,0.92,1.82,1.66,3,2.25c1.19,0.56,2.52,0.85,4,0.85c1.39,0,2.7-0.29,3.99-0.87
						c1.26-0.6,2.35-1.35,3.24-2.28v6.85c-1.21,0.52-2.41,0.95-3.6,1.27c-1.21,0.31-2.47,0.48-3.82,0.48c-2.3,0-4.43-0.41-6.39-1.24
						c-1.96-0.82-3.65-1.94-5.05-3.34c-1.44-1.38-2.54-3.01-3.35-4.86c-0.82-1.86-1.2-3.79-1.2-5.83c0-2.07,0.38-4.07,1.16-5.96
						c0.79-1.9,1.88-3.57,3.3-5.02c1.41-1.44,3.11-2.59,5.1-3.45c1.98-0.87,4.16-1.3,6.58-1.3c1.29,0,2.56,0.17,3.78,0.47
						c1.24,0.28,2.4,0.7,3.49,1.28V12.36z"/>
				</g>
				<g>
					<path class="st0" d="M66.52,11.04c-0.62-0.76-1.31-1.36-2.12-1.79c-0.79-0.43-1.71-0.63-2.78-0.63c-0.53,0-0.99,0.08-1.49,0.25
						c-0.47,0.17-0.9,0.41-1.25,0.68c-0.37,0.29-0.67,0.63-0.9,1.05c-0.25,0.42-0.34,0.86-0.34,1.32c0,0.84,0.31,1.51,0.96,1.99
						c0.63,0.5,1.43,0.94,2.41,1.34c0.99,0.38,2.02,0.78,3.12,1.2c1.12,0.41,2.14,0.96,3.13,1.64c0.97,0.67,1.76,1.54,2.41,2.58
						c0.63,1.02,0.95,2.37,0.95,4c0,1.47-0.27,2.85-0.74,4.08c-0.49,1.23-1.21,2.28-2.12,3.17c-0.93,0.91-2.07,1.59-3.39,2.08
						c-1.34,0.5-2.82,0.73-4.51,0.73c-2.26,0-4.2-0.49-5.88-1.55c-1.67-1.07-3.06-2.46-4.19-4.16l4.11-3.65
						c0.23,0.57,0.51,1.13,0.9,1.65c0.39,0.52,0.87,0.99,1.36,1.38c0.54,0.38,1.12,0.68,1.71,0.93c0.59,0.23,1.25,0.34,1.93,0.34
						c0.65,0,1.25-0.1,1.76-0.34c0.5-0.25,0.96-0.55,1.34-0.93c0.37-0.39,0.65-0.86,0.84-1.37c0.19-0.5,0.28-1.03,0.28-1.61
						c0-0.76-0.16-1.4-0.52-1.91c-0.36-0.52-0.79-0.95-1.37-1.32c-0.53-0.34-1.17-0.62-1.82-0.88c-0.69-0.21-1.34-0.45-1.98-0.68
						c-1.05-0.41-1.99-0.82-2.91-1.28c-0.89-0.45-1.67-0.99-2.31-1.63c-0.65-0.62-1.16-1.37-1.5-2.18
						c-0.37-0.83-0.55-1.81-0.55-2.97c0-1.22,0.22-2.37,0.7-3.43c0.48-1.09,1.13-2.02,1.99-2.82c0.86-0.82,1.86-1.44,3.02-1.9
						c1.16-0.47,2.43-0.69,3.83-0.69c0.7,0,1.5,0.1,2.33,0.26c0.85,0.13,1.66,0.37,2.47,0.65c0.81,0.3,1.58,0.64,2.3,1.03
						c0.71,0.41,1.33,0.86,1.84,1.37L66.52,11.04z"/>
				</g>
			</g>
		</g>
		<g>
			<rect x="91.64" y="5.46" width="3.31" height="28.73"/>
			<path d="M112.27,19.18c-0.9-0.88-1.92-1.56-3.03-2.01c-1.11-0.46-2.3-0.69-3.54-0.69c-1.26,0-2.47,0.23-3.58,0.68
				c-1.12,0.45-2.13,1.12-3.01,1.99c-0.88,0.87-1.56,1.87-2.01,2.98c-0.46,1.11-0.7,2.31-0.7,3.56c0,1.25,0.24,2.44,0.7,3.53
				c0.46,1.09,1.14,2.1,2.01,2.99c0.88,0.86,1.89,1.54,3.01,2.01c1.12,0.46,2.33,0.7,3.58,0.7c1.22,0,2.4-0.24,3.52-0.71
				c1.12-0.47,2.15-1.16,3.05-2.05c0.88-0.85,1.56-1.84,2.02-2.94c0.46-1.1,0.69-2.28,0.69-3.52c0-1.24-0.23-2.43-0.69-3.54
				C113.83,21.03,113.15,20.03,112.27,19.18z M111.52,25.68c0,1.71-0.57,3.17-1.7,4.36c-1.13,1.18-2.51,1.78-4.12,1.78
				c-1.62,0-3.02-0.6-4.16-1.78c-1.14-1.18-1.72-2.65-1.72-4.35c0-1.71,0.58-3.18,1.71-4.36c1.13-1.18,2.54-1.78,4.17-1.78
				c1.61,0,3,0.6,4.12,1.78C110.95,22.51,111.52,23.97,111.52,25.68z"/>
			<path d="M125.38,16.47c-1.41,0-2.66,0.32-3.71,0.97c-0.86,0.53-1.6,1.29-2.21,2.25V5.46h-3.22v28.73h3.11v-2.54
				c0.62,0.94,1.39,1.69,2.28,2.24c1.09,0.67,2.31,1.01,3.63,1.01c2.46,0,4.46-0.86,5.96-2.54c1.49-1.68,2.24-3.93,2.24-6.68
				c0-2.78-0.74-5.03-2.19-6.69C129.81,17.32,127.83,16.47,125.38,16.47z M130.05,25.35c0,2.01-0.48,3.59-1.41,4.71
				c-0.92,1.11-2.22,1.68-3.86,1.68c-1.68,0-3.02-0.53-3.97-1.59c-0.96-1.06-1.45-2.55-1.45-4.44c0-1.81,0.51-3.28,1.52-4.38
				c1.01-1.09,2.35-1.65,3.99-1.65c1.62,0,2.91,0.5,3.81,1.49C129.59,22.18,130.05,23.58,130.05,25.35z"/>
			<path d="M148.61,19.68c-0.6-0.95-1.34-1.71-2.21-2.24c-1.05-0.64-2.31-0.97-3.75-0.97c-2.44,0-4.41,0.84-5.87,2.51
				c-1.45,1.66-2.18,3.91-2.18,6.7c0,2.75,0.75,5,2.25,6.68c1.5,1.69,3.5,2.54,5.95,2.54c1.32,0,2.53-0.33,3.6-0.99
				c0.89-0.54,1.66-1.3,2.28-2.26v2.53h3.16V17.07h-3.23V19.68z M147.18,21.35c0.99,1.11,1.49,2.61,1.49,4.44
				c0,1.85-0.47,3.32-1.4,4.34c-0.92,1.02-2.23,1.54-3.87,1.54c-1.71,0-3.06-0.53-3.99-1.58c-0.93-1.05-1.4-2.59-1.4-4.55
				c0-1.84,0.47-3.3,1.39-4.31c0.92-1.01,2.23-1.53,3.88-1.53C144.89,19.69,146.2,20.25,147.18,21.35z"/>
			<rect x="154.01" y="5.46" width="3.31" height="28.73"/>
		</g>
	</g>
</g>
<g>
	<g>
		<g>
			<g>
				<path d="M96.02,37.76L95.2,38.2c-0.16-0.24-0.3-0.4-0.44-0.47c-0.14-0.08-0.33-0.13-0.56-0.13c-0.28,0-0.51,0.07-0.7,0.22
					c-0.19,0.14-0.28,0.32-0.28,0.53c0,0.3,0.24,0.53,0.73,0.71l0.67,0.25c0.54,0.2,0.94,0.44,1.2,0.73
					c0.25,0.29,0.38,0.64,0.38,1.05c0,0.56-0.21,1.01-0.62,1.38c-0.41,0.37-0.93,0.55-1.54,0.55c-0.58,0-1.07-0.16-1.45-0.47
					c-0.37-0.31-0.61-0.75-0.7-1.31l1.03-0.21c0.05,0.36,0.13,0.6,0.24,0.74c0.21,0.26,0.51,0.39,0.91,0.39
					c0.32,0,0.58-0.1,0.79-0.29c0.21-0.19,0.31-0.43,0.31-0.72c0-0.12-0.02-0.23-0.05-0.32c-0.04-0.1-0.09-0.19-0.17-0.27
					c-0.08-0.08-0.18-0.16-0.3-0.23c-0.12-0.07-0.27-0.14-0.43-0.21l-0.65-0.24c-0.92-0.35-1.38-0.86-1.38-1.53
					c0-0.45,0.19-0.83,0.58-1.14c0.39-0.31,0.86-0.46,1.44-0.46C94.98,36.75,95.59,37.09,96.02,37.76z"/>
				<path d="M104.91,37.72h-2.69v1.45h2.61v0.86h-2.61v2.02h2.69v0.86h-3.71v-6.04h3.71V37.72z"/>
				<path d="M112.3,40.33l2.08,2.58h-1.24l-1.92-2.47h-0.18v2.47h-1.01v-6.04h1.19c0.89,0,1.53,0.15,1.92,0.45
					c0.44,0.33,0.65,0.77,0.65,1.32c0,0.43-0.14,0.79-0.41,1.1C113.11,40.05,112.75,40.25,112.3,40.33z M111.04,39.64h0.32
					c0.96,0,1.44-0.33,1.44-0.99c0-0.62-0.47-0.93-1.4-0.93h-0.36V39.64z"/>
				<path d="M119.27,36.87l1.86,4.19l1.88-4.19h1.11l-3.02,6.5l-2.94-6.5H119.27z"/>
				<path d="M129.76,36.87v6.04h-1.01v-6.04H129.76z"/>
				<path d="M140.12,37.19v1.08c-0.59-0.44-1.19-0.66-1.82-0.66c-0.69,0-1.27,0.23-1.75,0.67c-0.48,0.44-0.71,0.98-0.71,1.63
					c0,0.63,0.24,1.17,0.71,1.6c0.48,0.43,1.06,0.65,1.75,0.65c0.36,0,0.66-0.05,0.91-0.16c0.14-0.05,0.28-0.12,0.43-0.21
					c0.15-0.09,0.31-0.2,0.47-0.32v1.1c-0.58,0.3-1.19,0.44-1.83,0.44c-0.96,0-1.78-0.3-2.46-0.9c-0.68-0.61-1.01-1.34-1.01-2.2
					c0-0.77,0.28-1.46,0.85-2.06c0.7-0.74,1.6-1.11,2.7-1.11C138.97,36.75,139.56,36.89,140.12,37.19z"/>
				<path d="M148.89,37.72h-2.69v1.45h2.61v0.86h-2.61v2.02h2.69v0.86h-3.71v-6.04h3.71V37.72z"/>
				<path d="M157.8,37.76l-0.82,0.44c-0.15-0.24-0.3-0.4-0.44-0.47c-0.15-0.08-0.33-0.13-0.56-0.13c-0.28,0-0.52,0.07-0.7,0.22
					c-0.19,0.14-0.28,0.32-0.28,0.53c0,0.3,0.24,0.53,0.73,0.71l0.67,0.25c0.55,0.2,0.95,0.44,1.2,0.73
					c0.25,0.29,0.38,0.64,0.38,1.05c0,0.56-0.21,1.01-0.62,1.38c-0.41,0.37-0.93,0.55-1.54,0.55c-0.58,0-1.06-0.16-1.44-0.47
					c-0.37-0.31-0.61-0.75-0.7-1.31l1.03-0.21c0.05,0.36,0.13,0.6,0.24,0.74c0.21,0.26,0.51,0.39,0.91,0.39
					c0.31,0,0.58-0.1,0.79-0.29c0.21-0.19,0.31-0.43,0.31-0.72c0-0.12-0.02-0.23-0.06-0.32c-0.03-0.1-0.09-0.19-0.17-0.27
					c-0.07-0.08-0.18-0.16-0.3-0.23c-0.12-0.07-0.27-0.14-0.44-0.21l-0.65-0.24c-0.92-0.35-1.38-0.86-1.38-1.53
					c0-0.45,0.19-0.83,0.58-1.14c0.38-0.31,0.87-0.46,1.44-0.46C156.76,36.75,157.37,37.09,157.8,37.76z"/>
			</g>
		</g>
		<g>
			<g>
				<g>
					<path class="st0" d="M19.92,11.04c-0.6-0.76-1.29-1.36-2.09-1.79c-0.79-0.43-1.74-0.63-2.8-0.63c-0.51,0-1,0.08-1.5,0.25
						c-0.47,0.17-0.89,0.41-1.27,0.68c-0.37,0.29-0.65,0.63-0.88,1.05c-0.22,0.42-0.36,0.86-0.36,1.32c0,0.84,0.32,1.51,0.96,1.99
						c0.65,0.5,1.44,0.94,2.43,1.34c0.96,0.38,2.01,0.78,3.1,1.2c1.14,0.41,2.17,0.96,3.13,1.64c0.97,0.67,1.76,1.54,2.41,2.58
						c0.64,1.02,0.95,2.37,0.95,4c0,1.47-0.23,2.85-0.74,4.08c-0.49,1.23-1.2,2.28-2.13,3.17c-0.91,0.91-2.05,1.59-3.37,2.08
						c-1.35,0.5-2.84,0.73-4.51,0.73c-2.27,0-4.21-0.49-5.88-1.55c-1.68-1.07-3.07-2.46-4.19-4.17L7.3,25.4
						c0.19,0.57,0.51,1.13,0.9,1.65c0.38,0.52,0.84,0.99,1.36,1.38c0.53,0.38,1.09,0.68,1.7,0.93c0.6,0.23,1.24,0.34,1.95,0.34
						c0.63,0,1.2-0.1,1.74-0.34c0.52-0.25,0.97-0.55,1.34-0.93c0.37-0.39,0.65-0.86,0.85-1.37c0.17-0.5,0.27-1.03,0.27-1.61
						c0-0.76-0.16-1.4-0.51-1.91c-0.33-0.52-0.8-0.95-1.36-1.32c-0.54-0.34-1.16-0.62-1.83-0.88c-0.69-0.21-1.34-0.45-1.98-0.68
						c-1.03-0.41-2.03-0.82-2.91-1.28c-0.9-0.45-1.66-0.99-2.31-1.63c-0.67-0.62-1.14-1.37-1.52-2.18
						c-0.36-0.83-0.56-1.81-0.56-2.97c0-1.21,0.25-2.37,0.74-3.43c0.46-1.09,1.11-2.02,1.98-2.83c0.85-0.81,1.85-1.43,3.02-1.89
						c1.15-0.47,2.42-0.69,3.83-0.69c0.71,0,1.51,0.1,2.33,0.26c0.84,0.13,1.65,0.37,2.46,0.65c0.81,0.3,1.59,0.64,2.3,1.03
						c0.72,0.41,1.33,0.86,1.84,1.37L19.92,11.04z"/>
				</g>
				<g>
					<path class="st0" d="M48.34,12.36c-0.9-0.98-1.98-1.76-3.21-2.3c-1.26-0.55-2.6-0.82-3.98-0.82c-1.53,0-2.89,0.29-4.08,0.88
						c-1.19,0.59-2.18,1.34-3.01,2.29c-0.83,0.96-1.45,2.04-1.9,3.25c-0.43,1.22-0.63,2.46-0.63,3.73c0,1.27,0.21,2.46,0.67,3.65
						c0.45,1.18,1.09,2.24,1.92,3.17c0.81,0.92,1.82,1.66,3,2.25c1.19,0.56,2.52,0.85,4,0.85c1.39,0,2.7-0.29,3.99-0.87
						c1.26-0.6,2.35-1.35,3.24-2.28v6.85c-1.21,0.52-2.41,0.95-3.6,1.27c-1.21,0.31-2.47,0.48-3.82,0.48c-2.3,0-4.43-0.41-6.39-1.24
						c-1.96-0.82-3.65-1.94-5.05-3.34c-1.44-1.38-2.54-3.01-3.35-4.86c-0.82-1.86-1.2-3.79-1.2-5.83c0-2.07,0.38-4.07,1.16-5.96
						c0.79-1.9,1.88-3.57,3.3-5.02c1.41-1.44,3.11-2.59,5.1-3.45c1.98-0.87,4.16-1.3,6.58-1.3c1.29,0,2.56,0.17,3.78,0.47
						c1.24,0.28,2.4,0.7,3.49,1.28V12.36z"/>
				</g>
				<g>
					<path class="st0" d="M66.52,11.04c-0.62-0.76-1.31-1.36-2.12-1.79c-0.79-0.43-1.71-0.63-2.78-0.63c-0.53,0-0.99,0.08-1.49,0.25
						c-0.47,0.17-0.9,0.41-1.25,0.68c-0.37,0.29-0.67,0.63-0.9,1.05c-0.25,0.42-0.34,0.86-0.34,1.32c0,0.84,0.31,1.51,0.96,1.99
						c0.63,0.5,1.43,0.94,2.41,1.34c0.99,0.38,2.02,0.78,3.12,1.2c1.12,0.41,2.14,0.96,3.13,1.64c0.97,0.67,1.76,1.54,2.41,2.58
						c0.63,1.02,0.95,2.37,0.95,4c0,1.47-0.27,2.85-0.74,4.08c-0.49,1.23-1.21,2.28-2.12,3.17c-0.93,0.91-2.07,1.59-3.39,2.08
						c-1.34,0.5-2.82,0.73-4.51,0.73c-2.26,0-4.2-0.49-5.88-1.55c-1.67-1.07-3.06-2.46-4.19-4.16l4.11-3.65
						c0.23,0.57,0.51,1.13,0.9,1.65c0.39,0.52,0.87,0.99,1.36,1.38c0.54,0.38,1.12,0.68,1.71,0.93c0.59,0.23,1.25,0.34,1.93,0.34
						c0.65,0,1.25-0.1,1.76-0.34c0.5-0.25,0.96-0.55,1.34-0.93c0.37-0.39,0.65-0.86,0.84-1.37c0.19-0.5,0.28-1.03,0.28-1.61
						c0-0.76-0.16-1.4-0.52-1.91c-0.36-0.52-0.79-0.95-1.37-1.32c-0.53-0.34-1.17-0.62-1.82-0.88c-0.69-0.21-1.34-0.45-1.98-0.68
						c-1.05-0.41-1.99-0.82-2.91-1.28c-0.89-0.45-1.67-0.99-2.31-1.63c-0.65-0.62-1.16-1.37-1.5-2.18
						c-0.37-0.83-0.55-1.81-0.55-2.97c0-1.22,0.22-2.37,0.7-3.43c0.48-1.09,1.13-2.02,1.99-2.82c0.86-0.82,1.86-1.44,3.02-1.9
						c1.16-0.47,2.43-0.69,3.83-0.69c0.7,0,1.5,0.1,2.33,0.26c0.85,0.13,1.66,0.37,2.47,0.65c0.81,0.3,1.58,0.64,2.3,1.03
						c0.71,0.41,1.33,0.86,1.84,1.37L66.52,11.04z"/>
				</g>
			</g>
		</g>
		<g>
			<path d="M86.16,17.07v2.56c-0.58-0.93-1.32-1.67-2.19-2.2c-1.08-0.64-2.34-0.97-3.76-0.97c-2.44,0-4.41,0.83-5.87,2.47
				c-0.54,0.61-0.99,1.31-1.33,2.08c-0.57,1.29-0.86,2.81-0.86,4.55c0,0,0,0,0,0s0,0,0,0c0,1.71,0.29,3.23,0.88,4.53
				c0.35,0.78,0.81,1.48,1.37,2.11c1.5,1.67,3.5,2.51,5.95,2.51c1.34,0,2.56-0.33,3.63-0.99c0.89-0.54,1.65-1.29,2.25-2.22v0.69
				v0.11v1.41v0.14v0.48c0,1-0.05,1.79-0.16,2.32c-0.1,0.53-0.28,0.99-0.53,1.39c-0.4,0.69-1,1.22-1.77,1.58
				c-0.79,0.36-1.74,0.54-2.86,0.54c-1.53,0-2.73-0.33-3.55-0.98c-0.82-0.65-1.22-1.55-1.22-2.76v-0.41h-3.61l0.01,0.2
				c0.06,2.17,0.83,3.87,2.29,5.06c1.45,1.18,3.49,1.78,6.06,1.78c1.48,0,2.81-0.21,3.95-0.63c1.15-0.42,2.14-1.07,2.94-1.93
				c0.58-0.62,1-1.35,1.25-2.14c0.25-0.79,0.37-2.08,0.37-3.93v-1.25V33.1v-0.79v-0.08V17.07H86.16z M84.83,30.04
				c-0.92,1.03-2.23,1.55-3.87,1.55c-1.71,0-3.04-0.53-3.98-1.58c-0.93-1.06-1.4-2.59-1.4-4.55c0-1.84,0.47-3.29,1.4-4.31
				c0.92-1.02,2.23-1.53,3.88-1.53c1.6,0,2.91,0.56,3.9,1.65c0.25,0.28,0.46,0.58,0.65,0.9c0.56,0.97,0.84,2.15,0.84,3.51
				c0,1.39-0.26,2.56-0.79,3.5C85.27,29.5,85.06,29.78,84.83,30.04z"/>
			<rect x="91.64" y="5.46" width="3.31" height="28.73"/>
			<path d="M112.27,19.18c-0.9-0.88-1.92-1.56-3.03-2.01c-1.11-0.46-2.3-0.69-3.54-0.69c-1.26,0-2.47,0.23-3.58,0.68
				c-1.12,0.45-2.13,1.12-3.01,1.99c-0.88,0.87-1.56,1.87-2.01,2.98c-0.46,1.11-0.7,2.31-0.7,3.56c0,1.25,0.24,2.44,0.7,3.53
				c0.46,1.09,1.14,2.1,2.01,2.99c0.88,0.86,1.89,1.54,3.01,2.01c1.12,0.46,2.33,0.7,3.58,0.7c1.22,0,2.4-0.24,3.52-0.71
				c1.12-0.47,2.15-1.16,3.05-2.05c0.88-0.85,1.56-1.84,2.02-2.94c0.46-1.1,0.69-2.28,0.69-3.52c0-1.24-0.23-2.43-0.69-3.54
				C113.83,21.03,113.15,20.03,112.27,19.18z M111.52,25.68c0,1.71-0.57,3.17-1.7,4.36c-1.13,1.18-2.51,1.78-4.12,1.78
				c-1.62,0-3.02-0.6-4.16-1.78c-1.14-1.18-1.72-2.65-1.72-4.35c0-1.71,0.58-3.18,1.71-4.36c1.13-1.18,2.54-1.78,4.17-1.78
				c1.61,0,3,0.6,4.12,1.78C110.95,22.51,111.52,23.97,111.52,25.68z"/>
			<path d="M125.38,16.47c-1.41,0-2.66,0.32-3.71,0.97c-0.86,0.53-1.6,1.29-2.21,2.25V5.46h-3.22v28.73h3.11v-2.54
				c0.62,0.94,1.39,1.69,2.28,2.24c1.09,0.67,2.31,1.01,3.63,1.01c2.46,0,4.46-0.86,5.96-2.54c1.49-1.68,2.24-3.93,2.24-6.68
				c0-2.78-0.74-5.03-2.19-6.7C129.81,17.32,127.83,16.47,125.38,16.47z M130.05,25.35c0,2.01-0.48,3.59-1.41,4.71
				c-0.92,1.11-2.22,1.68-3.86,1.68c-1.68,0-3.02-0.53-3.97-1.59c-0.96-1.06-1.45-2.55-1.45-4.44c0-1.81,0.51-3.28,1.52-4.38
				c1.01-1.09,2.35-1.65,3.99-1.65c1.62,0,2.91,0.5,3.81,1.49C129.59,22.18,130.05,23.58,130.05,25.35z"/>
			<path d="M148.61,19.68c-0.6-0.95-1.34-1.71-2.21-2.24c-1.05-0.64-2.31-0.97-3.75-0.97c-2.44,0-4.41,0.84-5.87,2.51
				c-1.45,1.66-2.18,3.91-2.18,6.7c0,2.75,0.75,5,2.25,6.68c1.5,1.69,3.5,2.54,5.95,2.54c1.32,0,2.53-0.33,3.6-0.99
				c0.89-0.54,1.66-1.3,2.28-2.26v2.53h3.16V17.07h-3.23V19.68z M147.18,21.35c0.99,1.11,1.49,2.61,1.49,4.44
				c0,1.85-0.47,3.32-1.4,4.34c-0.92,1.02-2.23,1.54-3.87,1.54c-1.71,0-3.06-0.53-3.99-1.58c-0.93-1.05-1.4-2.59-1.4-4.55
				c0-1.84,0.47-3.3,1.39-4.31c0.92-1.01,2.23-1.53,3.88-1.53C144.89,19.69,146.2,20.25,147.18,21.35z"/>
			<rect x="154.01" y="5.46" width="3.31" height="28.73"/>
		</g>
	</g>
	<g>
		<path class="st0" d="M10.11,49.22L9.4,49.89c-0.34-0.49-0.72-0.74-1.16-0.74c-0.32,0-0.58,0.09-0.78,0.28
			c-0.21,0.19-0.31,0.42-0.31,0.7c0,0.23,0.07,0.42,0.21,0.58c0.07,0.08,0.17,0.16,0.31,0.26c0.14,0.1,0.31,0.2,0.52,0.32
			c0.62,0.34,1.03,0.65,1.23,0.93c0.21,0.28,0.31,0.65,0.31,1.1c0,0.59-0.2,1.07-0.59,1.43c-0.39,0.36-0.92,0.54-1.57,0.54
			c-0.53,0-0.98-0.12-1.35-0.35c-0.19-0.12-0.36-0.27-0.52-0.46c-0.16-0.19-0.32-0.41-0.46-0.68l0.81-0.55
			c0.22,0.39,0.43,0.65,0.64,0.8c0.21,0.15,0.48,0.22,0.82,0.22c0.37,0,0.67-0.09,0.88-0.28c0.21-0.19,0.32-0.46,0.32-0.8
			c0-0.24-0.08-0.44-0.23-0.6C8.4,52.5,8.28,52.41,8.13,52.3c-0.15-0.11-0.35-0.23-0.58-0.36c-0.54-0.3-0.91-0.59-1.13-0.87
			c-0.2-0.27-0.31-0.62-0.31-1.03c0-0.55,0.19-1.01,0.58-1.37c0.39-0.36,0.89-0.55,1.5-0.55c0.4,0,0.74,0.08,1.02,0.25
			C9.51,48.55,9.81,48.82,10.11,49.22z"/>
		<path class="st0" d="M11.47,53.48c0,0.3,0.11,0.55,0.33,0.75c0.23,0.2,0.51,0.29,0.86,0.29c0.48,0,0.85-0.16,1.1-0.48l0.76,0.38
			c-0.27,0.32-0.54,0.55-0.82,0.68c-0.28,0.13-0.64,0.2-1.07,0.2c-0.68,0-1.21-0.19-1.61-0.56c-0.4-0.37-0.6-0.88-0.6-1.5
			c0-0.66,0.22-1.2,0.66-1.64c0.44-0.44,1-0.66,1.67-0.66c0.65,0,1.16,0.2,1.54,0.6c0.38,0.4,0.57,0.94,0.57,1.61
			c0,0.07,0,0.19-0.01,0.34H11.47z M13.83,52.7c-0.11-0.67-0.48-1-1.12-1c-0.6,0-1,0.33-1.18,1H13.83z"/>
		<path class="st0" d="M17.06,51.87l-0.42,3.42h-1.03l0.42-3.42h-0.58l0.12-0.94h0.58l0.25-2.03h1.03l-0.25,2.03h0.95l-0.12,0.94
			H17.06z"/>
		<path class="st0" d="M19.61,51.87l-0.42,3.42h-1.03l0.42-3.42H18l0.12-0.94h0.58l0.25-2.03h1.03l-0.25,2.03h0.95l-0.12,0.94H19.61
			z"/>
		<path class="st0" d="M22.2,50.93l-0.54,4.37h-1.02l0.54-4.37H22.2z M22.52,48.85c0,0.15-0.05,0.28-0.16,0.38
			c-0.11,0.11-0.24,0.16-0.39,0.16c-0.15,0-0.28-0.05-0.39-0.17c-0.11-0.12-0.16-0.25-0.16-0.4c0-0.15,0.05-0.28,0.16-0.38
			c0.11-0.11,0.24-0.16,0.39-0.16c0.15,0,0.28,0.06,0.39,0.17C22.46,48.56,22.52,48.7,22.52,48.85z"/>
		<path class="st0" d="M24.41,50.93l-0.05,0.4c0.4-0.27,0.81-0.4,1.23-0.4c0.43,0,0.77,0.12,1.03,0.35
			c0.25,0.23,0.38,0.55,0.38,0.95c0,0.22-0.02,0.48-0.06,0.78l-0.29,2.29h-1.03l0.31-2.55c0.01-0.09,0.02-0.18,0.02-0.25
			c0.01-0.07,0.01-0.14,0.01-0.2c0-0.39-0.21-0.59-0.64-0.59c-0.26,0-0.49,0.08-0.68,0.24c-0.15,0.13-0.27,0.28-0.34,0.46
			c-0.04,0.09-0.07,0.21-0.1,0.34c-0.03,0.13-0.05,0.29-0.07,0.46l-0.26,2.09h-1.02l0.54-4.37H24.41z"/>
		<path class="st0" d="M32.76,50.93l-0.54,4.4c-0.03,0.26-0.07,0.49-0.11,0.69c-0.04,0.2-0.09,0.36-0.14,0.49
			c-0.11,0.27-0.27,0.5-0.48,0.7c-0.41,0.37-0.95,0.56-1.61,0.56c-0.68,0-1.24-0.16-1.66-0.49c-0.22-0.16-0.37-0.36-0.45-0.58
			c-0.09-0.21-0.13-0.51-0.13-0.89h0.99c0.02,0.41,0.13,0.71,0.32,0.9c0.19,0.19,0.47,0.28,0.86,0.28c0.42,0,0.74-0.13,0.96-0.38
			c0.22-0.25,0.36-0.65,0.42-1.2l0.07-0.61c-0.43,0.33-0.89,0.5-1.36,0.5c-0.59,0-1.08-0.19-1.47-0.58
			c-0.39-0.4-0.58-0.89-0.58-1.48c0-0.66,0.22-1.21,0.67-1.65c0.45-0.44,1.02-0.66,1.69-0.66c0.32,0,0.59,0.01,0.79,0.04
			c0.22,0.09,0.45,0.26,0.68,0.5l0.06-0.54H32.76z M31.59,53c0-0.39-0.12-0.7-0.36-0.94c-0.24-0.24-0.56-0.36-0.95-0.36
			c-0.4,0-0.74,0.15-1.01,0.44c-0.27,0.29-0.4,0.65-0.4,1.09c0,0.38,0.11,0.7,0.34,0.94c0.23,0.23,0.54,0.35,0.92,0.35
			c0.42,0,0.77-0.14,1.04-0.43C31.45,53.8,31.59,53.44,31.59,53z"/>
		<path class="st0" d="M37.64,51.87l-0.42,3.42h-1.03l0.42-3.42h-0.58l0.12-0.94h0.58l0.25-2.03H38l-0.25,2.03h0.95l-0.12,0.94
			H37.64z"/>
		<path class="st0" d="M40.75,47.46l-0.47,3.94c0.41-0.32,0.83-0.48,1.25-0.48c0.43,0,0.77,0.11,1.02,0.33
			c0.26,0.22,0.39,0.5,0.39,0.85c0,0.09,0,0.18-0.01,0.29c-0.01,0.11-0.02,0.23-0.04,0.36l-0.32,2.53h-1.02l0.32-2.63
			c0.02-0.14,0.03-0.27,0.03-0.38c0-0.39-0.23-0.58-0.69-0.58c-0.66,0-1.04,0.44-1.15,1.32l-0.28,2.27h-1.02l0.96-7.83H40.75z"/>
		<path class="st0" d="M44.8,53.48c0,0.3,0.11,0.55,0.33,0.75c0.23,0.2,0.51,0.29,0.86,0.29c0.48,0,0.85-0.16,1.1-0.48l0.76,0.38
			c-0.27,0.32-0.54,0.55-0.82,0.68c-0.28,0.13-0.64,0.2-1.07,0.2c-0.68,0-1.21-0.19-1.61-0.56c-0.4-0.37-0.59-0.88-0.59-1.5
			c0-0.66,0.22-1.2,0.66-1.64c0.44-0.44,1-0.66,1.67-0.66c0.65,0,1.16,0.2,1.54,0.6c0.38,0.4,0.57,0.94,0.57,1.61
			c0,0.07,0,0.19-0.01,0.34H44.8z M47.16,52.7c-0.11-0.67-0.48-1-1.12-1c-0.6,0-1,0.33-1.18,1H47.16z"/>
		<path class="st0" d="M54.68,51.5l-0.58,0.56c-0.27-0.25-0.52-0.37-0.76-0.37c-0.16,0-0.29,0.04-0.39,0.12
			c-0.11,0.08-0.16,0.19-0.16,0.31c0,0.12,0.04,0.22,0.13,0.3c0.09,0.08,0.27,0.2,0.54,0.34c0.39,0.21,0.66,0.4,0.79,0.57
			c0.14,0.17,0.21,0.39,0.21,0.66c0,0.39-0.14,0.7-0.43,0.94c-0.29,0.23-0.68,0.35-1.14,0.35c-0.64,0-1.17-0.27-1.59-0.8l0.67-0.47
			c0.27,0.33,0.57,0.5,0.88,0.5c0.18,0,0.32-0.04,0.42-0.13c0.11-0.09,0.16-0.2,0.16-0.34c0-0.12-0.04-0.22-0.13-0.3
			c-0.04-0.04-0.12-0.09-0.23-0.16c-0.11-0.07-0.25-0.15-0.44-0.24c-0.33-0.17-0.55-0.34-0.68-0.5c-0.13-0.17-0.19-0.38-0.19-0.63
			c0-0.37,0.15-0.68,0.44-0.92c0.29-0.25,0.66-0.37,1.11-0.37C53.81,50.93,54.27,51.12,54.68,51.5z"/>
		<path class="st0" d="M56.8,51.87l-0.42,3.42h-1.03l0.42-3.42h-0.58l0.12-0.94h0.58l0.25-2.03h1.03l-0.25,2.03h0.95l-0.12,0.94
			H56.8z"/>
		<path class="st0" d="M62.82,50.93l-0.54,4.37h-1.02l0.06-0.47c-0.44,0.31-0.89,0.47-1.36,0.47c-0.58,0-1.05-0.19-1.41-0.56
			c-0.36-0.37-0.55-0.86-0.55-1.46c0-0.69,0.21-1.25,0.63-1.69c0.42-0.44,0.97-0.66,1.63-0.66c0.31,0,0.58,0.01,0.8,0.05
			c0.22,0.1,0.45,0.28,0.68,0.53l0.07-0.58H62.82z M61.57,52.98c0-0.38-0.11-0.69-0.33-0.92c-0.22-0.24-0.51-0.36-0.86-0.36
			c-0.38,0-0.7,0.15-0.96,0.44c-0.26,0.3-0.39,0.66-0.39,1.09c0,0.38,0.11,0.69,0.32,0.92c0.22,0.24,0.49,0.36,0.83,0.36
			c0.38,0,0.7-0.15,0.98-0.45C61.43,53.76,61.57,53.4,61.57,52.98z"/>
		<path class="st0" d="M65.03,50.93l-0.05,0.4c0.4-0.27,0.81-0.4,1.23-0.4c0.43,0,0.77,0.12,1.03,0.35
			c0.25,0.23,0.38,0.55,0.38,0.95c0,0.22-0.02,0.48-0.06,0.78l-0.29,2.29h-1.03l0.32-2.55c0.01-0.09,0.02-0.18,0.02-0.25
			c0.01-0.07,0.01-0.14,0.01-0.2c0-0.39-0.21-0.59-0.64-0.59c-0.26,0-0.49,0.08-0.68,0.24c-0.15,0.13-0.27,0.28-0.34,0.46
			c-0.04,0.09-0.07,0.21-0.1,0.34c-0.03,0.13-0.05,0.29-0.07,0.46l-0.26,2.09h-1.02l0.54-4.37H65.03z"/>
		<path class="st0" d="M73.82,47.46l-0.96,7.83h-1.02l0.06-0.47c-0.25,0.23-0.47,0.38-0.66,0.46c-0.18,0-0.41,0.01-0.68,0.01
			c-0.61,0-1.11-0.19-1.5-0.58c-0.39-0.39-0.58-0.89-0.58-1.5c0-0.65,0.21-1.2,0.64-1.63c0.43-0.43,0.96-0.65,1.61-0.65
			c0.33,0,0.61,0.06,0.83,0.17c0.23,0.12,0.48,0.32,0.74,0.6l0.5-4.23H73.82z M72.13,52.92c0-0.36-0.11-0.66-0.34-0.88
			c-0.23-0.23-0.53-0.34-0.9-0.34c-0.4,0-0.73,0.15-1,0.44c-0.26,0.29-0.39,0.67-0.39,1.12c0,0.38,0.11,0.69,0.34,0.92
			c0.23,0.23,0.53,0.34,0.9,0.34c0.39,0,0.72-0.16,0.99-0.46C71.99,53.75,72.13,53.37,72.13,52.92z"/>
		<path class="st0" d="M78.95,50.93l-0.54,4.37h-1.02l0.06-0.47c-0.44,0.31-0.89,0.47-1.36,0.47c-0.58,0-1.05-0.19-1.41-0.56
			c-0.36-0.37-0.55-0.86-0.55-1.46c0-0.69,0.21-1.25,0.63-1.69c0.42-0.44,0.97-0.66,1.63-0.66c0.31,0,0.58,0.01,0.8,0.05
			c0.22,0.1,0.45,0.28,0.68,0.53l0.07-0.58H78.95z M77.7,52.98c0-0.38-0.11-0.69-0.33-0.92c-0.22-0.24-0.51-0.36-0.86-0.36
			c-0.38,0-0.7,0.15-0.96,0.44c-0.26,0.3-0.39,0.66-0.39,1.09c0,0.38,0.11,0.69,0.32,0.92c0.22,0.24,0.49,0.36,0.83,0.36
			c0.38,0,0.7-0.15,0.98-0.45C77.56,53.76,77.7,53.4,77.7,52.98z"/>
		<path class="st0" d="M81.17,50.93l-0.05,0.38c0.35-0.25,0.7-0.38,1.05-0.38c0.31,0,0.59,0.09,0.84,0.28l-0.65,0.74
			c-0.19-0.16-0.38-0.24-0.57-0.24c-0.13,0-0.24,0.03-0.34,0.08c-0.1,0.05-0.18,0.13-0.26,0.25c-0.07,0.11-0.13,0.25-0.18,0.43
			c-0.05,0.18-0.08,0.39-0.11,0.63l-0.27,2.21H79.6l0.54-4.37H81.17z"/>
		<path class="st0" d="M88.28,47.46l-0.96,7.83H86.3l0.06-0.47c-0.25,0.23-0.47,0.38-0.66,0.46c-0.18,0-0.41,0.01-0.68,0.01
			c-0.61,0-1.11-0.19-1.5-0.58c-0.39-0.39-0.58-0.89-0.58-1.5c0-0.65,0.21-1.2,0.64-1.63c0.43-0.43,0.96-0.65,1.61-0.65
			c0.33,0,0.61,0.06,0.83,0.17c0.23,0.12,0.48,0.32,0.74,0.6l0.51-4.23H88.28z M86.6,52.92c0-0.36-0.12-0.66-0.34-0.88
			c-0.23-0.23-0.53-0.34-0.9-0.34c-0.4,0-0.73,0.15-1,0.44c-0.26,0.29-0.39,0.67-0.39,1.12c0,0.38,0.11,0.69,0.34,0.92
			c0.23,0.23,0.53,0.34,0.9,0.34c0.39,0,0.72-0.16,0.99-0.46C86.46,53.75,86.6,53.37,86.6,52.92z"/>
		<path class="st0" d="M92.79,51.87l-0.42,3.42h-1.02l0.42-3.42H91.1l0.12-0.94h0.67l0.24-1.95c0.06-0.52,0.2-0.9,0.42-1.15
			c0.22-0.24,0.53-0.37,0.94-0.37c0.25,0,0.54,0.08,0.87,0.24l-0.11,0.9c-0.19-0.15-0.37-0.23-0.53-0.23
			c-0.19,0-0.32,0.06-0.41,0.19c-0.08,0.13-0.15,0.36-0.19,0.7l-0.2,1.67h0.93l-0.12,0.94H92.79z"/>
		<path class="st0" d="M98.87,53.07c0,0.63-0.23,1.15-0.69,1.58c-0.46,0.43-1.03,0.64-1.71,0.64c-0.71,0-1.28-0.2-1.73-0.6
			c-0.45-0.41-0.68-0.92-0.68-1.54c0-0.64,0.23-1.16,0.7-1.58c0.47-0.42,1.06-0.64,1.76-0.64c0.69,0,1.26,0.2,1.69,0.6
			C98.65,51.92,98.87,52.44,98.87,53.07z M97.84,53.02c0-0.41-0.12-0.72-0.37-0.96c-0.25-0.24-0.56-0.36-0.96-0.36
			c-0.41,0-0.75,0.13-1.02,0.4c-0.27,0.27-0.4,0.61-0.4,1.03c0,0.41,0.13,0.75,0.38,1c0.25,0.26,0.58,0.39,0.98,0.39
			c0.4,0,0.73-0.14,0.99-0.42C97.71,53.82,97.84,53.46,97.84,53.02z"/>
		<path class="st0" d="M101.09,50.93l-0.05,0.38c0.35-0.25,0.7-0.38,1.05-0.38c0.31,0,0.59,0.09,0.84,0.28l-0.65,0.74
			c-0.19-0.16-0.38-0.24-0.57-0.24c-0.13,0-0.24,0.03-0.34,0.08c-0.1,0.05-0.18,0.13-0.26,0.25c-0.08,0.11-0.13,0.25-0.18,0.43
			c-0.05,0.18-0.08,0.39-0.11,0.63l-0.27,2.21h-1.02l0.54-4.37H101.09z"/>
		<path class="st0" d="M108.75,51.5l-0.58,0.56c-0.27-0.25-0.52-0.37-0.76-0.37c-0.16,0-0.29,0.04-0.39,0.12
			c-0.1,0.08-0.16,0.19-0.16,0.31c0,0.12,0.04,0.22,0.13,0.3c0.09,0.08,0.27,0.2,0.54,0.34c0.39,0.21,0.66,0.4,0.79,0.57
			c0.14,0.17,0.21,0.39,0.21,0.66c0,0.39-0.14,0.7-0.43,0.94c-0.29,0.23-0.67,0.35-1.14,0.35c-0.64,0-1.17-0.27-1.59-0.8l0.67-0.47
			c0.28,0.33,0.57,0.5,0.88,0.5c0.18,0,0.32-0.04,0.42-0.13c0.11-0.09,0.16-0.2,0.16-0.34c0-0.12-0.05-0.22-0.13-0.3
			c-0.04-0.04-0.12-0.09-0.23-0.16c-0.11-0.07-0.26-0.15-0.44-0.24c-0.33-0.17-0.56-0.34-0.68-0.5c-0.13-0.17-0.19-0.38-0.19-0.63
			c0-0.37,0.15-0.68,0.44-0.92c0.29-0.25,0.66-0.37,1.11-0.37C107.87,50.93,108.33,51.12,108.75,51.5z"/>
		<path class="st0" d="M113.51,50.93l-0.31,2.48c-0.03,0.21-0.05,0.4-0.09,0.55c-0.04,0.16-0.08,0.29-0.12,0.39
			c-0.09,0.2-0.23,0.38-0.44,0.54c-0.35,0.26-0.8,0.4-1.37,0.4c-0.54,0-0.97-0.13-1.29-0.4c-0.32-0.27-0.49-0.63-0.49-1.09
			c0-0.07,0-0.15,0.01-0.24c0.01-0.09,0.02-0.2,0.03-0.32l0.29-2.3h1.03l-0.3,2.44c-0.01,0.1-0.02,0.2-0.03,0.27
			c-0.01,0.08-0.01,0.14-0.01,0.2c0,0.46,0.27,0.69,0.81,0.69c0.29,0,0.51-0.08,0.65-0.23c0.14-0.15,0.23-0.42,0.28-0.79l0.32-2.57
			H113.51z"/>
		<path class="st0" d="M117.3,51.5l-0.58,0.56c-0.27-0.25-0.52-0.37-0.76-0.37c-0.16,0-0.29,0.04-0.39,0.12
			c-0.1,0.08-0.16,0.19-0.16,0.31c0,0.12,0.04,0.22,0.13,0.3c0.09,0.08,0.27,0.2,0.54,0.34c0.39,0.21,0.66,0.4,0.79,0.57
			c0.14,0.17,0.21,0.39,0.21,0.66c0,0.39-0.14,0.7-0.43,0.94c-0.29,0.23-0.67,0.35-1.15,0.35c-0.64,0-1.17-0.27-1.59-0.8l0.67-0.47
			c0.27,0.33,0.57,0.5,0.88,0.5c0.18,0,0.32-0.04,0.42-0.13c0.11-0.09,0.16-0.2,0.16-0.34c0-0.12-0.04-0.22-0.13-0.3
			c-0.04-0.04-0.12-0.09-0.23-0.16c-0.11-0.07-0.25-0.15-0.44-0.24c-0.33-0.17-0.56-0.34-0.68-0.5c-0.13-0.17-0.19-0.38-0.19-0.63
			c0-0.37,0.15-0.68,0.44-0.92c0.29-0.25,0.66-0.37,1.11-0.37C116.43,50.93,116.89,51.12,117.3,51.5z"/>
		<path class="st0" d="M119.42,51.87l-0.42,3.42h-1.03l0.42-3.42h-0.58l0.12-0.94h0.58l0.25-2.03h1.03l-0.25,2.03h0.95l-0.12,0.94
			H119.42z"/>
		<path class="st0" d="M125.44,50.93l-0.54,4.37h-1.03l0.06-0.47c-0.44,0.31-0.89,0.47-1.36,0.47c-0.58,0-1.05-0.19-1.42-0.56
			c-0.36-0.37-0.55-0.86-0.55-1.46c0-0.69,0.21-1.25,0.63-1.69c0.42-0.44,0.96-0.66,1.63-0.66c0.31,0,0.58,0.01,0.8,0.05
			c0.22,0.1,0.45,0.28,0.68,0.53l0.07-0.58H125.44z M124.19,52.98c0-0.38-0.11-0.69-0.33-0.92c-0.22-0.24-0.51-0.36-0.86-0.36
			c-0.38,0-0.71,0.15-0.96,0.44c-0.26,0.3-0.39,0.66-0.39,1.09c0,0.38,0.11,0.69,0.33,0.92c0.22,0.24,0.49,0.36,0.83,0.36
			c0.38,0,0.71-0.15,0.98-0.45C124.05,53.76,124.19,53.4,124.19,52.98z"/>
		<path class="st0" d="M127.65,50.93l-0.54,4.37h-1.02l0.54-4.37H127.65z M127.97,48.85c0,0.15-0.05,0.28-0.16,0.38
			c-0.11,0.11-0.24,0.16-0.39,0.16c-0.15,0-0.28-0.05-0.39-0.17c-0.11-0.12-0.16-0.25-0.16-0.4c0-0.15,0.05-0.28,0.16-0.38
			c0.11-0.11,0.24-0.16,0.38-0.16c0.15,0,0.28,0.06,0.39,0.17C127.91,48.56,127.97,48.7,127.97,48.85z"/>
		<path class="st0" d="M129.86,50.93l-0.05,0.4c0.4-0.27,0.82-0.4,1.23-0.4c0.43,0,0.77,0.12,1.03,0.35
			c0.25,0.23,0.38,0.55,0.38,0.95c0,0.22-0.02,0.48-0.06,0.78l-0.29,2.29h-1.03l0.32-2.55c0.01-0.09,0.02-0.18,0.03-0.25
			c0-0.07,0.01-0.14,0.01-0.2c0-0.39-0.21-0.59-0.64-0.59c-0.26,0-0.49,0.08-0.68,0.24c-0.15,0.13-0.27,0.28-0.34,0.46
			c-0.04,0.09-0.08,0.21-0.1,0.34c-0.03,0.13-0.05,0.29-0.07,0.46l-0.26,2.09h-1.03l0.54-4.37H129.86z"/>
		<path class="st0" d="M138.11,50.93l-0.54,4.37h-1.02l0.06-0.47c-0.44,0.31-0.89,0.47-1.36,0.47c-0.58,0-1.05-0.19-1.41-0.56
			c-0.36-0.37-0.55-0.86-0.55-1.46c0-0.69,0.21-1.25,0.63-1.69c0.42-0.44,0.97-0.66,1.63-0.66c0.31,0,0.58,0.01,0.8,0.05
			c0.22,0.1,0.45,0.28,0.68,0.53l0.07-0.58H138.11z M136.87,52.98c0-0.38-0.11-0.69-0.33-0.92c-0.22-0.24-0.51-0.36-0.86-0.36
			c-0.38,0-0.71,0.15-0.96,0.44c-0.26,0.3-0.39,0.66-0.39,1.09c0,0.38,0.11,0.69,0.32,0.92c0.22,0.24,0.49,0.36,0.83,0.36
			c0.38,0,0.7-0.15,0.98-0.45C136.73,53.76,136.87,53.4,136.87,52.98z"/>
		<path class="st0" d="M140.76,47.46l-0.48,3.97c0.27-0.2,0.5-0.34,0.7-0.4c0.21-0.07,0.43-0.11,0.67-0.11
			c0.59,0,1.08,0.19,1.47,0.58c0.39,0.39,0.58,0.88,0.58,1.48c0,0.66-0.22,1.2-0.66,1.64c-0.44,0.44-0.98,0.66-1.62,0.66
			c-0.59,0-1.11-0.19-1.56-0.58l-0.07,0.58h-1.02l0.96-7.83H140.76z M142.67,53c0-0.38-0.12-0.7-0.35-0.94
			c-0.23-0.24-0.53-0.36-0.9-0.36c-0.4,0-0.73,0.15-1,0.44c-0.26,0.29-0.39,0.66-0.39,1.11c0,0.38,0.11,0.69,0.34,0.92
			c0.23,0.24,0.52,0.36,0.88,0.36c0.4,0,0.73-0.15,1.01-0.44C142.53,53.78,142.67,53.42,142.67,53z"/>
		<path class="st0" d="M145.91,50.93l-0.54,4.37h-1.03l0.54-4.37H145.91z M146.23,48.85c0,0.15-0.05,0.28-0.16,0.38
			c-0.11,0.11-0.24,0.16-0.39,0.16c-0.15,0-0.28-0.05-0.4-0.17c-0.11-0.12-0.16-0.25-0.16-0.4c0-0.15,0.05-0.28,0.16-0.38
			c0.11-0.11,0.24-0.16,0.38-0.16c0.15,0,0.28,0.06,0.39,0.17C146.18,48.56,146.23,48.7,146.23,48.85z"/>
		<path class="st0" d="M148.56,47.46l-0.96,7.83h-1.03l0.97-7.83H148.56z"/>
		<path class="st0" d="M150.35,50.93l-0.54,4.37h-1.03l0.54-4.37H150.35z M150.67,48.85c0,0.15-0.05,0.28-0.16,0.38
			c-0.11,0.11-0.24,0.16-0.39,0.16c-0.15,0-0.29-0.05-0.4-0.17c-0.11-0.12-0.16-0.25-0.16-0.4c0-0.15,0.05-0.28,0.16-0.38
			c0.11-0.11,0.24-0.16,0.38-0.16c0.15,0,0.28,0.06,0.4,0.17C150.61,48.56,150.67,48.7,150.67,48.85z"/>
		<path class="st0" d="M152.52,51.87l-0.42,3.42h-1.03l0.42-3.42h-0.58l0.12-0.94h0.58l0.25-2.03h1.02l-0.25,2.03h0.95l-0.12,0.94
			H152.52z"/>
		<path class="st0" d="M158.29,50.93l-3.95,6.86h-1.17l1.76-3.04l-1.56-3.82h1.09l1.08,2.79l1.58-2.79H158.29z"/>
	</g>
</g>
<path class="st0" d="M202.8,40.16c0.17,0.24,0.55,0.67,1.25,0.88c0.99,0.29,3.55,0.98,3.82,2.75c0.27,1.74-0.62,1.6-0.62,1.6
	s-0.07,0.74-0.91,0.61c-1.03-0.17-2.16-0.94-2.74-2.31c-0.71-1.67-0.88-3.02-0.89-3.5C202.7,40.08,202.74,40.08,202.8,40.16z"/>
<path class="st0" d="M216.34,38.79c-0.4,0.08-1.14,0.23-1.97,0.4c-1.25,0.26-3.44,0.92-4.65,2.85c-1.46,2.31-1.31,3.96-1.31,3.96
	s0.43-0.83,1.02-1.56c0.47-0.58,1.17-1.01,1.57-1.23c0.11-0.07,0.15,0,0.09,0.07c-0.29,0.31-0.82,0.88-1.28,1.53
	c-0.52,0.73-0.72,1.44-0.72,1.44s0.4,0.05,0.94-0.23c0.75-0.38,2-1.34,2.8-2.41c0.87-1.16,1.98-2.86,2.45-3.42
	c0.33-0.39,0.85-0.96,1.15-1.25C216.54,38.85,216.49,38.76,216.34,38.79z"/>
<path class="st0" d="M218.9,11.78l-2.79,1.37c3.94,4.35,6.38,10.1,6.38,16.44c0,6.94-2.9,13.19-7.53,17.65
	c0.5,0.29,1.07,0.69,1.13,0.77c0.09,0.12,0,0.36-0.2,0.4c-0.19,0.04-1.64,0.22-2.66,0.36c-4.19,3.34-9.5,5.36-15.28,5.36
	c-4.15,0-8.05-1.05-11.47-2.87c-1.05,0.79-2,1.42-2.73,1.88c4.15,2.51,9,3.99,14.2,3.99c15.21,0,27.54-12.33,27.54-27.54
	C225.49,22.78,222.99,16.58,218.9,11.78z"/>
<path class="st1" d="M218.62,10.44c0.35-0.15,0.36-0.67-0.44-0.46c-0.8,0.21-15.53,3.62-15.53,3.62s-1.37-1.76-5.39-1.24
	c-4.02,0.53-6.24,1.78-8.07,3.9c-1.99,2.29-1.63,6.28-3.05,8.71c-0.65,1.1-2.41,1.5-4.08,4.77c-1.77,3.46-2.91,9.55-5.07,15.2
	c0,0,0.39,0.31,0.86-0.02c0.75-0.53,1.04-1.05,1.04-1.05s-1.93,10.81-1.99,11.17c-0.06,0.36,0.23,0.61,0.97,0.27
	c1.1-0.5,2.41-2.43,2.41-2.43s0.42,0.34,1.89-0.55c1.47-0.9,4.15-2.73,6.52-5.03c0.16-0.16,0.38-0.24,0.67-0.08s0.53,0.28,0.89,0.2
	c0.36-0.08,0.53-0.53,0.53-0.53l0.54-0.27c0,0,0.79-0.08,2.15-0.16c1.88-0.1,4.07,0.01,4.07,0.01s-0.25,0.51-0.3,0.62
	c-0.05,0.11,0.38,0.23,0.58,0.21c0.51-0.06,0.8-0.62,0.8-0.62s0.19,0.11,0.28,0.15c0.09,0.05,0.25,0.08,0.26-0.06
	c0.01-0.14,0.04-0.23,0.04-0.23s1.52,0.21,2.96,0.76c1.88,0.71,4.26,0.86,4.55,0.93s1.33,0.85,2.11,1.9
	c0.08,0.11,0.26,0.2,0.34,0.01c0.04-0.09,0.18-0.62,0.22-0.75c0.07-0.23-0.24-0.58-0.5-0.8c-0.1-0.09-0.17-0.17-0.28-0.26
	c-0.07-0.06-0.15-0.22,0.02-0.21c0.17,0.01,1.52,0.32,2.18,0.26s2.94-0.56,3.14-0.62s0.25-0.15,0.16-0.27
	c-0.09-0.12-0.27-0.32-0.8-0.55c-0.42-0.19-0.53-0.13-0.89-0.03c-0.21,0.05-0.58,0.2-1.06,0.27c-0.19,0.03-0.79,0.07-1.55,0.01
	s-2.25-0.11-3.66-0.3c-1.41-0.19-1.69-0.3-2.74-0.55c-1.05-0.25-1.71-0.49-2.5-0.76s-1.76-0.6-1.76-0.6s-0.07-0.89-0.64-1.2
	c-0.24-0.13-0.38-0.3-0.96-0.4c-0.58-0.1-0.93-0.13-1.02-0.13c-0.09,0-0.23-0.05-0.39-0.12c-0.16-0.06-2.41-0.98-2.41-0.98
	s5.41-5.38,7.09-9.37c1.68-3.99,0.76-7.58,0.49-9.38c-0.27-1.8-0.43-2.72-0.44-2.9c-0.01-0.18,0.03-0.29,0.2-0.45
	s0.81-0.69,1.09-0.89s1.45-1.02,1.58-2.35L218.62,10.44z"/>
<path class="st0" d="M197.95,2c-15.22,0-27.56,12.34-27.56,27.56c0,7.01,2.64,13.39,6.96,18.25c0.22-1.25,0.39-2.15,0.39-2.15
	c-0.5,0.41-1.24-0.08-1.5-0.29c-0.15-0.12-0.15-0.33-0.1-0.46c0.16-0.42,0.55-1.5,0.92-2.56c-2.29-3.72-3.65-8.07-3.65-12.76
	c0-13.55,10.99-24.54,24.54-24.54c6.1,0,11.64,2.26,15.93,5.94l3.55-0.87C212.44,5.12,205.57,2,197.95,2z"/>
<path class="st0" d="M203.73,16.84c-0.14,1.34-1.31,2.16-1.58,2.35s-0.92,0.73-1.09,0.89s-0.21,0.27-0.2,0.45
	c0.01,0.18,0.17,1.1,0.44,2.9c0.27,1.8,1.19,5.38-0.49,9.38c-1.4,3.32-5.39,7.58-6.67,8.95c-0.29,0.3-0.23,0.48,0.03,0.61
	c0.63,0.31,1.85,0.75,1.97,0.8c0.16,0.06,0.31,0.12,0.39,0.12c0.09,0,0.44,0.03,1.02,0.13c0.58,0.1,0.72,0.28,0.96,0.4
	c0.57,0.31,0.64,1.2,0.64,1.2s0.98,0.33,1.76,0.6s1.44,0.51,2.5,0.76c1.05,0.25,1.33,0.36,2.74,0.55c1.41,0.19,2.9,0.24,3.66,0.3
	s1.36,0.02,1.55-0.01c0.48-0.07,0.85-0.22,1.06-0.27c0.36-0.09,0.47-0.15,0.89,0.03c0.52,0.23,0.71,0.43,0.8,0.55
	c0.09,0.12,0.04,0.2-0.16,0.27s-2.48,0.57-3.14,0.62s-2.01-0.25-2.18-0.26c-0.17-0.01-0.09,0.15-0.02,0.21
	c0.11,0.09,0.18,0.17,0.28,0.26c0.26,0.23,0.56,0.57,0.5,0.8c-0.04,0.13-0.18,0.66-0.22,0.75c-0.08,0.19-0.26,0.1-0.34-0.01
	c-0.78-1.05-1.81-1.83-2.11-1.9s-2.67-0.21-4.55-0.93c-1.44-0.55-2.96-0.76-2.96-0.76s-0.03,0.08-0.04,0.23
	c-0.01,0.14-0.17,0.11-0.26,0.06c-0.09-0.05-0.28-0.15-0.28-0.15s-0.29,0.56-0.8,0.62c-0.19,0.02-0.63-0.1-0.58-0.21
	c0.05-0.11,0.3-0.62,0.3-0.62s-2.19-0.12-4.07-0.01c-1.36,0.07-2.15,0.16-2.15,0.16l-0.54,0.27c0,0-0.17,0.45-0.53,0.53
	c-0.36,0.08-0.6-0.05-0.89-0.2s-0.51-0.08-0.67,0.08c-2.37,2.3-5.05,4.13-6.52,5.03c-1.47,0.9-1.89,0.55-1.89,0.55
	s-1.32,1.93-2.41,2.43c-0.74,0.34-1.03,0.09-0.97-0.27c0.06-0.36,1.99-11.17,1.99-11.17s-0.29,0.52-1.04,1.05
	c-0.47,0.33-0.86,0.02-0.86,0.02c2.16-5.65,3.3-11.74,5.07-15.2c1.67-3.27,3.44-3.67,4.08-4.77c1.42-2.43,1.07-6.42,3.05-8.71
	c1.84-2.12,4.05-3.38,8.07-3.9c4.02-0.53,5.39,1.24,5.39,1.24s14.63-3.5,15.44-3.68c0.65-0.15,0.75,0.42,0.31,0.62L203.73,16.84z
	 M197.13,15.34c-0.58-0.19-1.23,0.19-1.44,0.85c-0.22,0.66,0.08,1.35,0.66,1.54c0.58,0.19,1.23-0.19,1.44-0.85
	C198.01,16.22,197.71,15.53,197.13,15.34z M196.79,34.83c0.15-0.21,0-0.37-0.22-0.19s-5.46,4.64-8.01,6.77
	c-2.8,2.34-4.81,3.53-4.81,3.53s-0.35-1.19-0.39-2.26c-0.03-0.92-0.01-1.66,0.07-2.3c0.03-0.22-0.23-0.3-0.31-0.09
	c-0.05,0.13-1.04,2.88-1.65,5.39c-0.83,3.38-0.99,4.79-0.99,4.79s3.02-2.17,7.24-5.92C192.5,40.32,196.79,34.83,196.79,34.83z
	 M193.08,43.4c-0.23-0.12-0.42-0.08-0.59,0.08s-0.83,0.82-1.03,1.03c-0.16,0.18-0.09,0.39,0.19,0.39c1.32-0.01,2.67-0.05,3.76-0.07
	c0.32-0.01,0.34-0.27,0.07-0.38c-0.8-0.32-1.58-0.65-1.91-0.82C193.58,43.64,193.27,43.5,193.08,43.4z"/>
<g>
	<path class="st0" d="M222.88,54.82c-0.4,0.39-0.97,0.67-1.65,0.67c-0.68,0-1.25-0.28-1.65-0.67c-0.44-0.44-0.7-1.04-0.7-1.69
		c0-0.66,0.26-1.25,0.7-1.69c0.4-0.39,0.97-0.67,1.65-0.67c0.68,0,1.25,0.28,1.65,0.67c0.44,0.44,0.7,1.04,0.7,1.69
		C223.58,53.77,223.32,54.38,222.88,54.82z M219.93,51.71c-0.33,0.33-0.58,0.86-0.58,1.41c0,0.56,0.25,1.1,0.58,1.42
		c0.34,0.33,0.86,0.53,1.29,0.53s0.96-0.2,1.29-0.53c0.33-0.32,0.58-0.86,0.58-1.42c0-0.55-0.25-1.08-0.58-1.41
		c-0.34-0.33-0.86-0.53-1.29-0.53S220.27,51.39,219.93,51.71z M221.15,51.8c0.22,0,0.58,0.02,0.81,0.26
		c0.12,0.13,0.21,0.33,0.21,0.55c0,0.22-0.08,0.39-0.2,0.52c-0.13,0.13-0.27,0.18-0.37,0.2l0.72,1.03h-0.9l-0.51-0.87v0.87h-0.73
		V51.8H221.15z M220.92,52.94h0.1c0.11,0,0.21,0,0.3-0.06c0.09-0.06,0.13-0.14,0.13-0.25c0-0.06-0.01-0.16-0.09-0.22
		c-0.09-0.07-0.26-0.07-0.35-0.07h-0.09V52.94z"/>
</g>
</svg>
