<?xml version="1.0" encoding="UTF-8"?>
<svg id="Layer_1" data-name="Layer 1" xmlns="http://www.w3.org/2000/svg" viewBox="0 0 136.85 176.65">
  <defs>
    <style>
      .cls-1 {
        fill: #fff;
        stroke-width: 0px;
      }
    </style>
  </defs>
  <path class="cls-1" d="m135.81,47.04v72.73H0v-26.26c2.56-.85,4.87-1.47,7.03-1.89,2.28-.5,4.55-.75,6.77-.75,3.79,0,7.47.73,10.93,2.14,2.16.87,4.35,1.88,6.47,2.86,3.69,1.69,7.51,3.45,11.44,4.64,6.58,2.1,13.72,3.2,21.84,3.35.61.02,1.24.02,1.89.02,1.38,0,3.01-.02,4.84-.08.57-.02,1.02-.5,1.02-1.07-.02-.57-.48-1.02-1.04-1.04-1.8-.02-4.41-.08-6.63-.22-15.77-.9-24.34-5.31-31.89-9.2-6.35-3.27-11.84-6.1-20.11-6.1-3.77,0-7.88.59-12.56,1.82v-7.08c4.75-1.1,9.23-1.66,13.36-1.66,5.54,0,10.65,1.01,15.16,3.01,2.92,1.21,5.8,2.78,8.6,4.3,3.48,1.88,7.08,3.83,10.83,5.2,8.64,3.26,18.7,4.87,31.71,5.07.61,0,1.12-.51,1.13-1.12.02-.62-.47-1.15-1.09-1.16-3.65-.17-6.92-.43-9.99-.82-10.06-1.29-18.3-3.74-25.16-7.48-1.91-1.04-3.79-2.19-5.6-3.31-2.72-1.66-5.53-3.38-8.55-4.83-5.68-2.89-12.38-4.35-19.93-4.35-3.32,0-6.84.29-10.48.85v-7.42c3.68-.59,7.05-.87,10.29-.87h.31c7.82,0,15.44,1.94,22.61,5.77,2.75,1.41,5.49,3.12,8.15,4.75,2.59,1.61,5.29,3.27,8.02,4.72,9.72,5.06,21.17,7.42,36.04,7.42,2.2,0,4.45-.05,6.88-.16.61-.02,1.09-.53,1.07-1.13-.02-.61-.51-1.09-1.12-1.09h-.29c-4.21,0-7.96-.16-11.47-.45-11.81-1.04-21.32-3.74-29.07-8.27-2.61-1.55-5.12-3.29-7.54-4.98-2.61-1.8-5.29-3.68-8.13-5.34-8.32-5.15-18.44-7.87-29.27-7.87-2.13,0-4.3.11-6.47.31v-7.88c2.55-.25,5.04-.39,7.42-.39.59,0,1.18.02,1.78.03,9.9.23,19.65,3.29,28.99,9.06,2.61,1.55,5.23,3.34,7.76,5.06,3.37,2.3,6.86,4.69,10.52,6.64,10.2,5.37,22.21,7.98,36.72,7.98,4.05,0,8.38-.22,12.88-.64.59-.05,1.04-.57.99-1.16-.05-.57-.51-.99-1.13-.99-2.41.11-4.78.17-7.05.17-19.54,0-34.58-4.31-45.95-13.19-10.38-8.04-21.11-16.34-35.73-19.28-4.45-.93-9.2-1.4-14.12-1.4-1.01,0-2.05.02-3.09.06v-8.18c1.44-.09,2.9-.14,4.35-.14,8.57,0,16.75,1.61,24.29,4.81,8.89,3.63,16.81,9.44,24.46,15.05l1.83,1.33c2.45,1.75,4.55,3.2,6.8,4.53,10.89,6.47,23.93,9.76,38.74,9.76,5.09,0,10.37-.4,15.68-1.2.65-.09,1.1-.7,1.01-1.33-.08-.59-.59-1.04-1.18-1.04-.05,0-.09,0-.12.02-3.91.42-7.76.64-11.42.64-1.2,0-2.39-.03-3.55-.06-16.59-.54-31.78-6.02-42.79-15.44C39.03,36.67,23.43,27.31.06,27.31h-.06v-8.66c.78-.03,1.57-.05,2.34-.05,14.73,0,29.83,5.25,43.66,15.16,3.26,2.2,6.46,4.7,9.54,7.11,4.9,3.83,9.98,7.79,15.52,10.82,11.21,6.21,24.38,9.48,38.12,9.48,5.85,0,11.76-.61,17.55-1.77.67-.14,1.1-.79.98-1.46-.12-.59-.64-1.01-1.23-1.01-.06,0-.14,0-.2.02-4.38.7-8.83,1.06-13.24,1.06-15.18,0-29.41-4.11-41.19-11.87-4.45-3.01-8.55-6.6-12.52-10.06-3-2.61-6.07-5.29-9.31-7.76C34.97,16.19,17.21,9.33,0,8.95V0c27.67.2,49.09,17.52,64.75,30.19,4.59,3.72,8.55,6.92,12,9.13,10.24,6.55,23.11,9.87,38.26,9.87,10.4,0,18.62-1.66,20.81-2.14Z"/>
  <g>
    <path class="cls-1" d="m13.46,166.91v-30.31l.07-6.06H.05l.07,6.06v33.99l-.07,6.06h30.11l1.98-9.74H13.46Z"/>
    <path class="cls-1" d="m49.45,136.6l.06-6.06h-13.48l.07,6.06v33.99l-.07,6.06h13.48l-.06-6.06v-33.99Z"/>
    <path class="cls-1" d="m85.29,130.54l-8.25,28.96h-.13l-8.77-28.96h-14.77l15.8,46.12h14.06l14.84-46.12h-12.77Z"/>
    <path class="cls-1" d="m115.68,166.91v-8.71h16.71v-9.74h-16.71v-8.19h18.12l1.98-9.74h-33.51l.06,6.06v33.99l-.06,6.06h32.6l1.98-9.74h-21.17Z"/>
  </g>
</svg>