<svg xmlns="http://www.w3.org/2000/svg" fill="none" viewBox="0 0 67.06 67.06" aria-hidden="true" focusable="false" class=" fill-blue-bright size-[55px]"><g><path d="m33.53,1c17.97,0,32.53,14.56,32.53,32.53,0,17.97-14.56,32.53-32.53,32.53C15.56,66.06,1,51.5,1,33.53,1,15.56,15.56,1,33.53,1m0-1h0C15.04,0,0,15.04,0,33.53c0,18.49,15.04,33.53,33.53,33.53,18.49,0,33.53-15.04,33.53-33.53C67.06,15.04,52.02,0,33.53,0h0Z"></path></g><g><path d="m11.23,47.44v-27.95s4.56,0,4.56,0l5.1,13.54v-13.54s4.72,0,4.72,0v27.82s-4.05,0-4.05,0l-5.09-14.61v14.74s-5.25,0-5.25,0Z"></path><path d="m34.59,47.77c-4.78,0-7.42-3.33-7.2-8.66h4.98c0,2.66.08,4.5,2.32,4.5,1.12,0,1.66-1.14,1.66-3.03,0-5.01-8.46-5.58-8.46-13.86,0-4.35,1.98-7.43,6.94-7.43,4.1,0,6.33,1.89,6.45,8.49h-4.49c0-2.73-.5-4.46-2.02-4.46-1.32,0-2.27,1.06-1.97,2.97.78,5.02,8.7,6.12,8.85,13.82.13,6.68-4.87,7.66-7.06,7.66Z"></path><path d="m43.69,47.31v-27.82s11.55,0,11.55,0v4.28s-6.04,0-6.04,0v7.13h4.34s0,4.8,0,4.8h-4.34v11.62s-5.51,0-5.51,0Z"></path><path d="m53.65,44.16c1.06,0,1.95.84,1.95,1.94s-.89,1.96-1.95,1.96-1.96-.84-1.96-1.96.9-1.94,1.96-1.94Zm0,3.61c.9,0,1.6-.72,1.6-1.67s-.7-1.65-1.6-1.65-1.61.72-1.61,1.65.7,1.67,1.61,1.67Zm-.76-2.8h.88c.54,0,.8.21.8.65,0,.41-.26.58-.6.62l.65,1h-.38s-.62-.98-.62-.98h-.38v.98s-.35,0-.35,0v-2.27Zm.35,1.01h.37c.31,0,.6-.02.6-.37,0-.3-.26-.35-.5-.35h-.47v.72Z"></path></g></svg>