<svg id="Layer_1" xmlns="http://www.w3.org/2000/svg" viewBox="0 0 236.34 44"><defs><style>.cls-1{fill:#000000;}.cls-2{fill:#f36d26;}</style></defs><g><path class="cls-2" d="m83.25,2.32s-.02,0-.03,0h0c-1.67.22-3.23.71-4.81,1.19-1.78.54-3.59.93-5.45,1.22-1.7.27-3.41.5-5.05.99-.78.23-1.6.49-2.26.93-.64.43-1.19.94-1.58,1.56-.38.62-.61,1.29-.92,1.94-.28.57-.68,1.1-1.14,1.57-.95.97-2.15,1.73-3.43,2.34-.6.28-1.22.54-1.85.75-.54.18-1.09.31-1.65.46-.47.12-.84.48-1.13.81-.28.33-.6.77-.57,1.19,0,.15.07.3.22.39.1.06.22.09.33.13.21.07.41.16.61.25.63.29,1.44.75,1.6,1.41.1.39,0,.82-.09,1.2-.08.35-.19.69-.3,1.02-.26.77-.59,1.54-.99,2.27-.39.72-.91,1.41-1.12,2.2-.11.41-.13.87.39,1.05.52.18,1.16.06,1.68-.03.54-.1,1.07-.22,1.59-.38,1.27-.4,2.5-.92,3.7-1.45,1.29-.57,2.57-1.18,3.8-1.85,2.85-1.55,5.28-3.67,7.04-6.17.96-1.37,1.61-2.88,2.6-4.22,1-1.35,2.41-2.39,3.74-3.48,1.26-1.03,2.48-2.11,3.65-3.22.93-.88,1.64-2.08,1.9-3.26.08-.37.1-.83-.48-.81h0Zm-18.96,11.01c.61-1.06,1.03-2.18,1.36-3.13.2-.59.46-1.03.71-1.6.09-.19.17-.33.25-.53.07-.21.18-.44.28-.64.07-.15.13-.29.16-.37.06-.18.21-.26.35-.22.1.03.19.13.14.26-.11.31-.19.45-.37.88-.11.3-.22.6-.32.9-.23.65-.46,1.32-.74,1.97-.09.2-.17.4-.26.6-.77,1.78-1.56,3.63-2.89,5.16-1.03,1.18-2.41,2.42-4,3.01-.02,0-.04.02-.07.02h-.04s-.07.04-.1.05c-.32.11-.66.18-.98.25-.09.02-.19.04-.28.06-.03,0-.06,0-.08,0-.14,0-.23-.08-.26-.16-.03-.1.02-.18.19-.23.12-.03.25-.07.37-.1.14-.03.28-.07.42-.11.32-.09.58-.26.91-.43.37-.19.64-.38.92-.59,1.85-1.38,3.26-3.26,4.32-5.08h0Zm-7.48,4.44c.06-.05.4-.24.48-.29.15-.09.3-.2.46-.33.34-.27.68-.56,1.01-.88.69-.66,1.33-1.4,1.89-2.05.08-.1.21-.11.31-.03.11.08.13.23.07.35-.54.96-1.1,1.71-1.73,2.3-.58.55-1.3.99-2.02,1.24h-.04c-.1.05-.2.08-.3.08-.01,0-.02,0-.04,0-.15-.02-.19-.12-.2-.16-.02-.09.02-.15.11-.22h0Zm-.05,4.97c1.62-.51,2.89-1,4.32-1.94,2.41-1.59,4.47-3.76,5.94-6.26.63-1.08,1.1-2.25,1.56-3.39.36-.89.73-1.81,1.17-2.68.34-.72.83-1.58,1.27-2.12.1-.14.2-.25.29-.36.03-.03.13-.12.17-.15.18-.12.33-.08.41,0,.1.09.09.25-.02.36-.12.13-.24.26-.36.41-.45.59-.97,1.52-1.37,2.34-.28.64-.51,1.3-.72,1.92-.05.15-.1.31-.15.46-.41,1.24-.84,2.52-1.52,3.7-.72,1.25-1.73,2.48-3.16,3.87-.57.55-1.23,1.19-1.94,1.77-.61.5-1.33.78-2.2,1.17-.43.19-.86.33-1.29.51-.36.15-.72.28-1.09.42-.48.18-.49.17-.88.27-.09.02-.32.08-.35.08-.11,0-.21-.01-.25-.12-.05-.14.02-.23.18-.27h0Zm20.12-17.42c-1.52,1.82-2.67,3.39-3.61,4.93-.32.53-.65,1.07-.98,1.59-.66,1.07-1.35,2.18-1.98,3.28-.13.23-.25.46-.37.69-.25.47-.5.96-.84,1.4-.31.41-.65.82-.98,1.22-.12.14-.23.28-.35.42-.5.61-1.09,1.09-1.71,1.6l-.06.05c-.15.12-.29.24-.44.36-.53.44-1.42,1.05-2.04,1.42-.86.52-3.05,1.72-3.75,2.05-1.01.47-2.06.81-2.84,1.02-.54.15-1.05.3-1.24.28-.16-.01-.11-.29.05-.36.46-.21,1.23-.35,2.11-.67.87-.32,1.84-.82,2.45-1.12,1.51-.75,2.94-1.63,3.8-2.31.6-.47,1.2-1.12,1.91-1.82.12-.12.23-.23.35-.35.48-.47.97-.95,1.37-1.46.16-.2.3-.42.43-.64.05-.08.09-.15.14-.23.11-.18.24-.35.36-.51.08-.11.16-.22.24-.33.3-.43.56-.89.8-1.33.14-.25.29-.52.44-.77,1.88-3.12,4.13-6.04,6.29-8.73.09-.11.21-.16.33-.13.1.02.17.08.19.17.04.1-.05.22-.09.27h0Z"></path><path class="cls-2" d="m83.43.58s-.01-.02-.02-.03c-.38-.59-1.56-.56-2.21-.54-1.09.04-2.16.25-3.2.52-2.4.61-4.84,1.13-7.32,1.47-1.23.17-2.48.29-3.72.36-1.22.06-2.45,0-3.66.1-.91.08-1.78.32-2.58.72-.75.37-1.41.86-2.05,1.35-1.3,1.02-2.58,2.18-4.26,2.7-1.86.58-3.83.82-5.73,1.3-1.8.45-3.59.95-5.31,1.59-1.52.57-3.01,1.23-4.46,1.95-.94.47-1.26.88-2.39,1.29-.91.33-.97.31-2.02.47-1.06.16-1.51-.09-2.58-.1-.5,0-1.07.75-1.74,1.14-.55.32-1.04.59-1.46.75-.42.16-.8.31-.28.57.4.2,1.09.01,1.67-.05.74-.08,2.08-.1,2.98-.08,2.14.04,4.29.2,6.4.52,1.19.18,2.37.4,3.53.68.61.14,1.21.3,1.81.47.57.16,1.12.3,1.72.32,1.11.04,2.2-.21,3.25-.51.88-.25,1.76-.64,2.26-1.36.26-.37.46-.77.78-1.11.3-.32.67-.6,1.09-.8.46-.22.96-.3,1.45-.41.47-.11.94-.23,1.4-.37.93-.3,1.82-.7,2.6-1.24.72-.51,1.31-1.13,1.81-1.81.95-1.29,1.58-2.78,2.72-3.97.61-.64,1.36-1.12,2.25-1.44,1.08-.38,2.23-.66,3.36-.87,1.18-.22,2.37-.36,3.55-.55,1.18-.19,2.34-.46,3.48-.77,1.89-.51,3.73-1.17,5.7-1.4.35-.04.75-.06,1.06-.2.32-.15.23-.41.11-.66h0Z"></path><path class="cls-2" d="m66.18,31.85c-.01-1.25-.24-2.81-.53-4.19-.3-1.44-.51-2.26-1.03-2.41-.21-.06-.63.09-1.03.27-.63.27-.96.39-1.47.64-.89.43-1.34.63-2.61,1.11-.53.2-1.34.49-1.55.78-.17.24-.2.35-.21.72-.01.48,0,.92.1,1.35.19.89.42,1.69.75,2.59.17.49.71,1.67,1.25,3.08.46,1.2.79,2.16.96,3.02.2,1.02.32,2.45.55,3.59.07.34.16.63.29.93.05.13.24.51.62.62.68.21,1.18-.29,1.41-.54.26-.29.6-.87.89-1.45.3-.58.51-.87.65-1.37.45-1.63.35-2.19.46-4.21.07-1.32.5-3.14.48-4.52h0Z"></path><path class="cls-2" d="m54.5,19.93c-.07-.34-.4-.64-.69-.85-.41-.3-.9-.5-1.43-.55-.69-.03-1.35.12-2,.3-.6.17-1.25.34-1.77.67-.53.33-.93.81-1.34,1.24-.48.49-.95.99-1.43,1.48-.92.95-1.89,1.87-2.78,2.85-.85.93-1.62,1.92-2.35,2.93-.72,1.01-1.17,1.72-1.8,2.78-.4.67-1.15,2.41-2.24,3.81-1.11,1.43-2.22,2.62-2.93,3.47-.65.78-1.31,2.04-1.42,2.49-.13.52-.14.73.57.95.97.3,2.73-.32,3.3-.5,1.31-.4,2.44-.95,3.47-1.6.89-.57,1.42-.85,2.67-2.04.68-.65,1.87-1.99,2.5-2.54,1.02-.9,2.24-2.09,2.84-2.64.97-.9,3.16-2.58,3.55-3.89.61-2.09.66-2.79,1.94-4.94.48-.8.93-1.64,1.23-2.51.1-.29.2-.61.14-.92h0Z"></path><path class="cls-2" d="m45.88,19.35s-.02-.01-.03-.02c-.01,0-.02,0-.03-.01-.83-.34-1.71-.55-2.6-.74-1.35-.28-2.71-.5-4.08-.72-1.61-.27-3.22-.49-4.86-.58-1.65-.08-3.31-.07-4.95.06-1.6.13-3.2.44-4.81.44-.76,0-1.53-.08-2.29-.15-.8-.07-1.6-.15-2.4-.26-1.52-.21-3.03-.53-4.44-1.07-.69-.27-1.36-.58-1.95-1-.47-.33-.95-.73-1.58-.8-.15-.02-.41-.06-.43.13-.01.15.16.35.23.47.32.52.64,1.04.96,1.57.19.31.34.63.42.98.08.35.14.83,0,1.18-.16.42-.74.56-.75,1.05-.01.49.38.97.68,1.36.22.27.47.52.73.77.81.75,1.6,1.44,2.52,2.09,1.11.78,2.37,1.51,3.59,2.15,1.26.67,2.61,1.22,3.97,1.7,2.92,1.04,6.01,1.69,9.15,1.94.81.06,1.63.1,2.44.12.72.01,1.46.01,2.08-.35.61-.36,1.02-.91,1.41-1.44.46-.62.88-1.26,1.32-1.89.88-1.28,1.86-2.46,2.97-3.58.49-.5,1-.98,1.54-1.44.42-.37.89-.73,1.23-1.16.2-.26.29-.57-.04-.77h0Z"></path><path class="cls-2" d="m20.04,11.81c-.07-.38-.24-.65-.48-.97-.15-.2-.32-.51-.64-.47-.17.02-.34.11-.44.23-.36.39-.61.54-.9.66-.94.38-.88.33-1.89.53-.89.18-1.26.24-2.26.7-.43.2-.78.45-1.04.63-.21.15-.25.41,0,.52.01,0,.03.02.05.02.82.17,1.4.46,2.11.85.61.33,1.2.67,1.86.91.38.14.76.27,1.15.36.29.07.68.17.97.08.54-.16.78-.82.98-1.24.26-.53.57-1.14.59-1.73.01-.36-.02-.75-.08-1.1h0Z"></path><path class="cls-2" d="m11.51,17.6c-.06-.45-.24-.9-.49-1.29-.3-.49-.63-.93-.9-1.47-.2-.4-.41-.75-.78-1.1-.6-.56-1.16-.71-1.78-.86-.75-.19-1.41-.3-2.05-.4-1.31-.19-1.93-.29-3.03-.73-.26-.1-.71-.35-1.34-.74-.48-.29-.75-.52-1.02,0-.17.33-.14.66-.05.99.1.37.22.73.54,1.34.37.7.91,1.39,1.18,1.68.4.43.92.85,1.4,1.2.58.42,1.18.81,1.83,1.13,1.15.56,2.31.95,3.6,1.19.76.14,1.61.3,2.39.23.05,0,.11-.01.16-.02.02,0,.04,0,.07-.02.02-.01.04-.02.05-.04.29-.25.26-.78.22-1.09Z"></path></g><g id="text-group"><path class="cls-1" d="m174.9,34.37l1.43-3.72c1.34.54,3.13.83,4.72.83,1.89,0,2.74-.37,2.74-1.66v-.26c-.78.4-1.89.6-3.39.6-3.35,0-5.86-1.77-5.86-5.69v-2.77c0-3.95,2.25-5.8,6.19-5.8,1.47,0,2.96.37,3.98,1l.68-.72h4.01v13.81c0,3.63-2.7,5.63-7.88,5.63-2.61,0-4.56-.37-6.61-1.26Zm8.89-8.89v-5.03c-.65-.26-1.3-.34-1.96-.34-.94,0-1.69.4-1.69,1.74v2.2c0,1.26.46,1.97,1.56,1.97.75,0,1.5,0,2.08-.54Z"></path><path class="cls-1" d="m219.16,26.42c-1.14.46-2.64.77-4.01.77-1.56,0-2.02-.8-2.02-2.34v-2.43c0-1.52.68-2.37,2.15-2.37,1.24,0,2.73.34,3.87.8l-1.95-4.7c-.82-.16-1.67-.25-2.51-.25-4.53,0-7.17,2.37-7.17,6.23v2.97c0,3.86,2.64,6.23,7.17,6.23,2.18,0,4.46-.57,6.06-1.4l-1.6-3.52h0Z"></path><path class="cls-1" d="m101.41,26.99c2.74,0,3.39-.66,3.39-1.77,0-.97-.85-1.54-3.52-1.77-3.91-.37-6.81-2.2-6.81-6.41,0-3.66,2.8-6.32,7.82-6.35,2.83,0,5.31.54,7.39,1.69l-2.02,3.8c-1.79-.72-3.55-1.09-5.21-1.09s-2.41.8-2.41,1.77c0,1.37,1.47,1.8,3.42,1.97,3.68.37,7.04,1.86,7.04,6.03,0,3.69-2.7,6.55-8.86,6.55-3,0-5.57-.72-7.88-1.92l1.99-3.8c1.76.72,3.68,1.29,5.67,1.29h0Z"></path><path class="cls-1" d="m156.54,26.65h-5.46v-15.61h-5.83v20.01h13.9c-1.38-1.08-2.29-2.59-2.6-4.4Z"></path><path class="cls-1" d="m101.41,26.99c2.74,0,3.39-.66,3.39-1.77,0-.97-.85-1.54-3.52-1.77-3.91-.37-6.81-2.2-6.81-6.41,0-3.66,2.8-6.32,7.82-6.35,2.83,0,5.31.54,7.39,1.69l-2.02,3.8c-1.79-.72-3.55-1.09-5.21-1.09s-2.41.8-2.41,1.77c0,1.37,1.47,1.8,3.42,1.97,3.68.37,7.04,1.86,7.04,6.03,0,3.69-2.7,6.55-8.86,6.55-3,0-5.57-.72-7.88-1.92l1.99-3.8c1.76.72,3.68,1.29,5.67,1.29h0Z"></path><path class="cls-1" d="m236.34,16.19l-5.28,12.55-.88,2.12-1.82,4.49-5.86-.06,2.44-5.29-5.73-13.81h5.93l2.74,8.35,2.57-8.35h5.9Z"></path><path class="cls-1" d="m120.11,27.28c1.43,0,3.32-.53,5.08-1.27l1.71,3.42c-2.08,1.2-5.09,1.91-7.4,1.91-4.56,0-7.26-2.37-7.26-6.18v-3.03c0-3.86,2.8-6.23,7.33-6.23s7.13,2.37,7.13,6.23v3.09h-8.83c0,1.57.78,2.06,2.25,2.06Zm1.11-5.15v-.06c0-1.4-.42-2.12-1.66-2.12-1.11,0-1.69.6-1.69,2.12v.06h3.35Z"></path><path class="cls-1" d="m198.59,15.9c-1.74,0-3.31.27-4.65.71h0c-.93.27-1.87.58-2.82.91l1.66,3.57c.29-.11.55-.21.76-.28h0c1.11-.42,2.44-.76,4.1-.76,1.47,0,2.35.74,2.35,1.74v1.2c-1.07-.2-2.31-.34-3.29-.34-3.62,0-5.77,1.43-5.77,4.43s2.15,4.26,4.99,4.26c1.79,0,3.88-.69,4.62-1.63l.26,1.34h4.82v-9.61c0-4.09-2.7-5.55-7.04-5.55h0Zm1.4,10.5c-.49.74-1.3,1.26-2.25,1.26-.68,0-1.14-.31-1.14-.97s.55-1,1.37-1c.65,0,1.34.09,2.02.26v.46Z"></path><path class="cls-1" d="m166.18,27.28c1.43,0,3.32-.53,5.08-1.27l1.71,3.42c-2.09,1.2-5.09,1.91-7.4,1.91-4.56,0-7.26-2.37-7.26-6.18v-3.03c0-3.86,2.8-6.23,7.33-6.23s7.13,2.37,7.13,6.23v3.09h-8.83c0,1.57.78,2.06,2.25,2.06Zm1.11-5.15v-.06c0-1.4-.42-2.12-1.66-2.12-1.11,0-1.69.6-1.69,2.12v.06h3.36Z"></path><path class="cls-1" d="m135.83,15.9c-1.74,0-3.52.39-4.65.7-.94.26-1.87.59-2.82.92l1.66,3.57c.29-.11.55-.21.76-.28.98-.33,2.45-.76,4.11-.76,1.47,0,2.35.74,2.35,1.74v1.2c-1.07-.2-2.31-.34-3.29-.34-3.62,0-5.77,1.43-5.77,4.43s2.15,4.26,4.98,4.26c1.79,0,3.88-.69,4.63-1.63l.26,1.34h4.82v-9.61c0-4.09-2.7-5.55-7.04-5.55h0Zm1.4,10.49c-.49.74-1.3,1.26-2.25,1.26-.68,0-1.14-.31-1.14-.97s.55-1,1.37-1c.65,0,1.34.09,2.02.26v.46Z"></path></g></svg>