<?xml version="1.0" encoding="UTF-8"?><svg id="Layer_1" xmlns="http://www.w3.org/2000/svg" viewBox="0 0 237.16 57.45"><defs><style>.cls-1{fill:#728d2c;}.cls-2{fill:#a7bc5a;}.cls-3{fill:#335529;}.cls-4{fill:#4c6e24;}</style></defs><path class="cls-4" d="m66.54,17.71c-.14.22-.29.39-.44.5-.15.11-.35.17-.59.17-.21,0-.45-.07-.69-.2-.25-.14-.53-.29-.84-.45-.31-.17-.67-.32-1.07-.45-.4-.13-.86-.2-1.37-.2-.88,0-1.54.19-1.98.57-.43.38-.65.89-.65,1.53,0,.41.13.75.39,1.02.26.27.6.5,1.03.7.42.2.91.37,1.45.54.55.16,1.1.35,1.67.54.57.2,1.13.44,1.67.71.54.27,1.03.61,1.45,1.03.42.42.77.93,1.03,1.53.26.6.39,1.33.39,2.17,0,.94-.16,1.82-.49,2.64-.33.82-.8,1.54-1.42,2.15-.62.61-1.38,1.09-2.29,1.44-.91.35-1.94.52-3.09.52-.63,0-1.28-.07-1.94-.2-.66-.13-1.29-.31-1.91-.55-.62-.24-1.19-.52-1.73-.85-.54-.33-1.01-.69-1.41-1.09l1.4-2.21c.11-.16.26-.29.44-.4.18-.11.38-.16.59-.16.28,0,.56.09.84.27.28.18.61.37.96.59.36.22.77.41,1.24.59.47.18,1.01.27,1.65.27.86,0,1.52-.19,2-.57.48-.38.71-.98.71-1.79,0-.48-.13-.86-.39-1.16-.26-.3-.6-.54-1.03-.74-.42-.2-.91-.37-1.45-.52-.54-.15-1.09-.31-1.66-.5-.57-.18-1.12-.41-1.66-.67s-1.02-.62-1.45-1.05c-.42-.43-.77-.97-1.03-1.62-.26-.65-.39-1.45-.39-2.4,0-.76.15-1.51.46-2.24.31-.73.76-1.37,1.35-1.94.6-.57,1.33-1.02,2.19-1.36.87-.34,1.86-.51,2.98-.51.62,0,1.23.05,1.82.15.59.1,1.15.24,1.68.43.53.19,1.03.42,1.49.68.46.27.87.57,1.24.9l-1.17,2.19Z"/><path class="cls-4" d="m78.99,30.2c.63,0,1.2-.1,1.7-.31s.92-.51,1.26-.9c.34-.39.61-.87.79-1.43s.27-1.2.27-1.92v-12.06h4.72v12.06c0,1.25-.2,2.39-.61,3.44-.41,1.04-.99,1.94-1.74,2.7-.75.75-1.67,1.34-2.75,1.76-1.08.42-2.3.63-3.65.63s-2.58-.21-3.66-.63c-1.08-.42-2-1.01-2.75-1.76-.75-.75-1.33-1.65-1.73-2.7-.4-1.04-.6-2.19-.6-3.44v-12.06h4.72v12.04c0,.72.09,1.36.27,1.92s.45,1.04.79,1.44c.34.4.77.7,1.26.91s1.06.31,1.7.31Z"/><path class="cls-4" d="m102.39,17.71c-.14.22-.29.39-.44.5-.15.11-.35.17-.59.17-.21,0-.45-.07-.69-.2-.25-.14-.53-.29-.84-.45-.31-.17-.67-.32-1.07-.45-.4-.13-.86-.2-1.37-.2-.88,0-1.54.19-1.98.57-.43.38-.65.89-.65,1.53,0,.41.13.75.39,1.02.26.27.6.5,1.03.7.42.2.91.37,1.45.54.55.16,1.1.35,1.67.54.57.2,1.13.44,1.67.71.54.27,1.03.61,1.45,1.03.42.42.77.93,1.03,1.53.26.6.39,1.33.39,2.17,0,.94-.16,1.82-.49,2.64-.33.82-.8,1.54-1.42,2.15-.62.61-1.38,1.09-2.29,1.44-.91.35-1.94.52-3.09.52-.63,0-1.28-.07-1.94-.2-.66-.13-1.29-.31-1.91-.55-.62-.24-1.19-.52-1.73-.85-.54-.33-1.01-.69-1.41-1.09l1.4-2.21c.11-.16.26-.29.44-.4.18-.11.38-.16.59-.16.28,0,.56.09.84.27.28.18.61.37.96.59.36.22.77.41,1.24.59.47.18,1.01.27,1.65.27.86,0,1.52-.19,2-.57.48-.38.71-.98.71-1.79,0-.48-.13-.86-.39-1.16-.26-.3-.6-.54-1.03-.74-.42-.2-.91-.37-1.45-.52-.54-.15-1.09-.31-1.66-.5-.57-.18-1.12-.41-1.66-.67s-1.02-.62-1.45-1.05c-.42-.43-.77-.97-1.03-1.62-.26-.65-.39-1.45-.39-2.4,0-.76.15-1.51.46-2.24.31-.73.76-1.37,1.35-1.94.6-.57,1.33-1.02,2.19-1.36.87-.34,1.86-.51,2.98-.51.62,0,1.23.05,1.82.15.59.1,1.15.24,1.68.43.53.19,1.03.42,1.49.68.46.27.87.57,1.24.9l-1.17,2.19Z"/><path class="cls-4" d="m120.97,17.31h-5.73v16.61h-4.72v-16.61h-5.73v-3.74h16.18v3.74Z"/><path class="cls-4" d="m139.36,33.93h-3.66c-.41,0-.74-.1-.99-.29-.25-.19-.44-.44-.57-.73l-1.2-3.55h-7.74l-1.2,3.55c-.1.26-.29.5-.55.71-.27.21-.59.31-.99.31h-3.69l7.88-20.36h4.83l7.88,20.36Zm-7.5-7.78l-1.89-5.57c-.14-.35-.29-.77-.45-1.25-.16-.48-.32-1-.47-1.56-.14.57-.29,1.09-.45,1.58-.16.48-.31.9-.45,1.26l-1.87,5.55h5.57Z"/><path class="cls-4" d="m145.44,33.93h-4.75V13.57h4.75v20.36Z"/><path class="cls-4" d="m166.87,13.57v20.36h-2.46c-.36,0-.67-.06-.92-.17s-.49-.32-.73-.61l-9.6-12.14c.04.36.06.72.08,1.05.01.34.02.66.02.96v10.91h-4.16V13.57h2.49c.2,0,.38,0,.52.03s.27.05.38.1c.11.05.22.12.32.22.1.09.22.22.35.38l9.68,12.23c-.05-.39-.08-.77-.1-1.14-.02-.37-.03-.71-.03-1.04v-10.77h4.16Z"/><path class="cls-4" d="m188.79,33.93h-3.66c-.41,0-.74-.1-.99-.29-.25-.19-.44-.44-.57-.73l-1.2-3.55h-7.74l-1.2,3.55c-.1.26-.29.5-.55.71-.27.21-.59.31-.99.31h-3.69l7.88-20.36h4.83l7.88,20.36Zm-7.5-7.78l-1.89-5.57c-.14-.35-.29-.77-.45-1.25s-.32-1-.47-1.56c-.14.57-.29,1.09-.45,1.58-.16.48-.31.9-.45,1.26l-1.87,5.55h5.57Z"/><path class="cls-4" d="m197.6,13.57c1.41,0,2.6.13,3.59.39.99.26,1.79.63,2.42,1.1.62.47,1.08,1.05,1.36,1.73.28.68.43,1.44.43,2.28,0,.46-.07.9-.2,1.32-.13.42-.34.82-.62,1.19s-.64.71-1.08,1.01-.96.57-1.58.8c1.34.33,2.33.85,2.98,1.58.64.73.96,1.67.96,2.82,0,.87-.17,1.67-.5,2.42-.34.75-.83,1.39-1.47,1.95s-1.45.99-2.4,1.3-2.04.47-3.25.47h-8.13V13.57h7.49Zm-2.77,3.53v5.03h2.46c.52,0,.99-.04,1.41-.11s.78-.2,1.07-.39c.29-.19.52-.44.67-.77.15-.33.23-.74.23-1.23s-.06-.89-.18-1.21c-.12-.32-.31-.58-.56-.77-.25-.2-.57-.34-.96-.42-.39-.08-.84-.13-1.38-.13h-2.77Zm3.33,13.26c.62,0,1.13-.08,1.53-.24s.71-.36.93-.62c.22-.25.38-.54.46-.85.08-.32.13-.64.13-.96,0-.37-.05-.71-.15-1.01-.1-.3-.27-.55-.5-.75-.24-.21-.55-.36-.94-.48-.39-.11-.88-.17-1.48-.17h-3.3v5.07h3.33Z"/><path class="cls-4" d="m220.81,30.15v3.77h-12.27V13.57h4.72v16.59h7.55Z"/><path class="cls-4" d="m227.69,17.2v4.75h6.4v3.49h-6.4v4.85h8.36v3.63h-13.11V13.57h13.11v3.63h-8.36Z"/><path class="cls-1" d="m56.29,39.41v3.88h4.64v1.39h-4.64v4.91h-1.73v-11.57h7.17v1.39h-5.45Z"/><path class="cls-1" d="m68.33,48.21c.46,0,.88-.08,1.24-.23.37-.16.67-.37.93-.66s.45-.62.58-1.01.2-.82.2-1.29v-7h1.71v7c0,.68-.11,1.3-.32,1.88-.22.58-.52,1.07-.93,1.49-.4.42-.89.75-1.47.98-.58.24-1.22.35-1.94.35s-1.37-.12-1.94-.35c-.58-.24-1.06-.56-1.47-.98-.4-.42-.71-.92-.93-1.49s-.32-1.2-.32-1.88v-7h1.72v7c0,.47.07.91.2,1.3.13.39.32.73.58,1.01.25.28.56.5.93.66.37.16.78.23,1.24.23Z"/><path class="cls-1" d="m84.51,49.59h-1.53c-.31,0-.53-.12-.67-.36l-2.86-4.01c-.09-.13-.19-.23-.3-.29-.11-.06-.27-.09-.48-.09h-1.12v4.75h-1.72v-11.57h3.34c.75,0,1.39.08,1.93.23.54.15.99.37,1.34.65.35.28.61.62.78,1.02s.25.84.25,1.34c0,.4-.06.78-.19,1.14-.12.35-.3.67-.54.96s-.53.52-.87.73c-.34.2-.73.36-1.17.47.22.13.4.31.56.54l3.26,4.51Zm-5.4-6c.44,0,.83-.05,1.17-.16.34-.11.62-.26.84-.45s.4-.43.51-.7c.11-.27.17-.57.17-.9,0-.67-.22-1.17-.66-1.51-.44-.34-1.1-.51-1.97-.51h-1.62v4.23h1.56Z"/><path class="cls-1" d="m95.6,38.01v11.57h-.87c-.13,0-.25-.02-.33-.07-.09-.05-.18-.13-.27-.23l-6.54-8.46c.01.14.02.29.03.43s.01.27.01.39v7.94h-1.51v-11.57h.89c.15,0,.26.02.34.05.07.04.16.11.25.24l6.55,8.46c-.02-.16-.03-.31-.04-.46s-.01-.29-.01-.41v-7.88h1.5Z"/><path class="cls-1" d="m100.32,49.59h-1.73v-11.57h1.73v11.57Z"/><path class="cls-1" d="m109.29,39.9c-.05.09-.11.16-.17.2-.06.04-.13.06-.23.06-.1,0-.21-.04-.33-.13-.12-.09-.28-.19-.46-.3-.19-.11-.41-.21-.67-.3-.26-.09-.57-.13-.93-.13-.34,0-.64.05-.89.13-.26.09-.47.21-.64.36s-.3.33-.39.54c-.09.21-.13.43-.13.67,0,.31.08.57.24.77.16.2.37.38.62.52.26.14.55.27.88.38.33.11.66.22,1.01.33.34.12.68.25,1.01.4.33.15.62.34.88.57.26.23.47.51.62.84s.24.73.24,1.21c0,.51-.09.99-.26,1.43-.18.45-.43.84-.76,1.17s-.74.6-1.23.79c-.49.19-1.04.29-1.66.29-.37,0-.73-.04-1.08-.11-.35-.07-.68-.17-.99-.31-.31-.13-.6-.29-.87-.48-.27-.18-.52-.39-.73-.62l.49-.82c.05-.07.11-.12.17-.16s.14-.06.23-.06c.11,0,.24.06.39.18.15.12.33.25.55.39.22.14.48.27.78.39.3.12.67.18,1.11.18.35,0,.67-.05.95-.14.28-.09.51-.23.71-.4.19-.17.34-.39.44-.63.1-.25.15-.52.15-.82,0-.34-.08-.62-.23-.83-.16-.22-.36-.39-.62-.54-.26-.14-.55-.27-.88-.37s-.66-.21-1.01-.32-.68-.24-1.01-.38-.62-.33-.88-.57c-.26-.23-.46-.53-.62-.88-.16-.35-.23-.79-.23-1.3,0-.41.08-.81.24-1.2.16-.39.4-.73.71-1.03.31-.3.69-.54,1.14-.72s.97-.27,1.55-.27c.65,0,1.25.1,1.79.31.55.21,1.02.5,1.42.89l-.42.81Z"/><path class="cls-1" d="m121.68,38.01v11.57h-1.72v-5.22h-6.04v5.22h-1.73v-11.57h1.73v5.11h6.04v-5.11h1.72Z"/><path class="cls-1" d="m126.4,49.59h-1.73v-11.57h1.73v11.57Z"/><path class="cls-1" d="m138.86,38.01v11.57h-.87c-.13,0-.25-.02-.33-.07-.09-.05-.18-.13-.27-.23l-6.54-8.46c.01.14.02.29.03.43s.01.27.01.39v7.94h-1.51v-11.57h.89c.15,0,.26.02.34.05.07.04.16.11.25.24l6.55,8.46c-.02-.16-.03-.31-.04-.46s-.01-.29-.01-.41v-7.88h1.5Z"/><path class="cls-1" d="m151.29,43.95v4.51c-.59.42-1.21.73-1.87.94-.66.21-1.38.31-2.16.31-.94,0-1.78-.14-2.53-.44-.75-.29-1.4-.7-1.93-1.22-.53-.52-.94-1.14-1.23-1.87s-.43-1.52-.43-2.39.14-1.68.41-2.41c.28-.73.67-1.35,1.19-1.87.52-.52,1.14-.92,1.87-1.21.73-.29,1.56-.43,2.47-.43.46,0,.89.03,1.29.1.4.07.76.17,1.1.3.34.13.65.28.94.46.29.18.56.38.8.61l-.49.77c-.08.12-.17.2-.3.23s-.26,0-.4-.09c-.14-.08-.29-.18-.46-.28-.17-.11-.37-.21-.6-.3-.23-.09-.51-.17-.82-.23-.31-.07-.68-.1-1.1-.1-.63,0-1.21.1-1.72.31-.51.21-.95.5-1.31.89s-.64.85-.83,1.4c-.19.54-.29,1.16-.29,1.83s.1,1.34.31,1.91c.2.56.49,1.04.87,1.43.37.39.83.69,1.36.89.54.2,1.13.31,1.79.31.26,0,.5-.01.72-.04.22-.03.44-.07.64-.12.2-.05.4-.12.59-.2.19-.08.38-.17.57-.27v-2.43h-1.71c-.11,0-.2-.03-.26-.1-.07-.06-.1-.14-.1-.24v-.98h3.63Z"/><path class="cls-1" d="m159.73,39.9c-.05.09-.11.16-.17.2-.06.04-.13.06-.23.06-.1,0-.21-.04-.33-.13-.12-.09-.28-.19-.46-.3-.19-.11-.41-.21-.67-.3-.26-.09-.57-.13-.93-.13-.34,0-.64.05-.89.13-.26.09-.47.21-.64.36s-.3.33-.39.54c-.09.21-.13.43-.13.67,0,.31.08.57.24.77.16.2.37.38.62.52.26.14.55.27.88.38.33.11.66.22,1.01.33.34.12.68.25,1.01.4.33.15.62.34.88.57.26.23.47.51.62.84s.24.73.24,1.21c0,.51-.09.99-.26,1.43-.18.45-.43.84-.76,1.17s-.74.6-1.23.79c-.49.19-1.04.29-1.66.29-.37,0-.73-.04-1.08-.11-.35-.07-.68-.17-.99-.31-.31-.13-.6-.29-.87-.48-.27-.18-.52-.39-.73-.62l.49-.82c.05-.07.11-.12.17-.16s.14-.06.23-.06c.11,0,.24.06.39.18.15.12.33.25.55.39.22.14.48.27.78.39.3.12.67.18,1.11.18.35,0,.67-.05.95-.14.28-.09.51-.23.71-.4.19-.17.34-.39.44-.63.1-.25.15-.52.15-.82,0-.34-.08-.62-.23-.83-.16-.22-.36-.39-.62-.54-.26-.14-.55-.27-.88-.37s-.66-.21-1.01-.32-.68-.24-1.01-.38-.62-.33-.88-.57c-.26-.23-.46-.53-.62-.88-.16-.35-.23-.79-.23-1.3,0-.41.08-.81.24-1.2.16-.39.4-.73.71-1.03.31-.3.69-.54,1.14-.72s.97-.27,1.55-.27c.65,0,1.25.1,1.79.31.55.21,1.02.5,1.42.89l-.42.81Z"/><path class="cls-1" d="m175.05,47.2c.09,0,.16.03.23.1l.62.67c-.47.55-1.05.98-1.72,1.28-.67.31-1.49.46-2.45.46-.83,0-1.58-.14-2.26-.43s-1.26-.69-1.73-1.21c-.48-.52-.85-1.14-1.11-1.87s-.39-1.52-.39-2.39.14-1.67.41-2.39.66-1.35,1.16-1.87c.5-.52,1.09-.92,1.79-1.21.69-.29,1.46-.43,2.3-.43s1.55.13,2.18.39,1.18.62,1.66,1.07l-.52.72c-.03.05-.07.1-.12.13-.05.03-.12.05-.2.05-.1,0-.22-.05-.35-.16-.14-.1-.32-.22-.55-.35s-.51-.25-.85-.35-.75-.16-1.25-.16c-.6,0-1.14.1-1.64.31-.5.21-.92.51-1.28.9-.36.39-.63.87-.83,1.43-.2.56-.3,1.2-.3,1.91s.1,1.36.31,1.93c.21.56.49,1.04.85,1.43.36.39.78.69,1.27.89.49.2,1.01.31,1.58.31.34,0,.65-.02.93-.06.28-.04.53-.1.77-.19s.45-.19.65-.33c.2-.13.4-.29.6-.47.09-.08.18-.12.27-.12Z"/><path class="cls-1" d="m188.28,43.82c0,.87-.14,1.66-.41,2.38-.27.72-.66,1.34-1.16,1.87-.5.52-1.1.93-1.8,1.21s-1.48.43-2.33.43-1.62-.14-2.32-.43c-.7-.29-1.3-.69-1.8-1.21-.5-.52-.89-1.14-1.16-1.87-.27-.72-.41-1.52-.41-2.38s.14-1.66.41-2.38c.27-.72.66-1.35,1.16-1.87.5-.52,1.1-.93,1.8-1.22.7-.29,1.47-.43,2.32-.43s1.62.14,2.33.43c.7.29,1.3.7,1.8,1.22s.89,1.15,1.16,1.87c.27.72.41,1.52.41,2.38Zm-1.6,0c0-.71-.1-1.35-.29-1.91s-.47-1.04-.82-1.43-.79-.69-1.29-.9c-.51-.21-1.07-.31-1.69-.31s-1.18.1-1.68.31c-.5.21-.94.51-1.29.9-.36.39-.63.87-.83,1.43s-.29,1.2-.29,1.91.1,1.34.29,1.91c.19.56.47,1.04.83,1.43.36.39.79.69,1.29.89s1.07.31,1.68.31,1.19-.1,1.69-.31c.5-.21.94-.5,1.29-.89s.63-.86.82-1.43c.19-.56.29-1.2.29-1.91Z"/><path class="cls-1" d="m195.1,48.35c.48,0,.91-.08,1.28-.24.38-.16.69-.39.96-.68.26-.29.46-.64.6-1.04s.21-.85.21-1.33v-7.02h1.56v7.02c0,.67-.11,1.28-.32,1.85-.21.57-.52,1.06-.91,1.48-.39.42-.88.74-1.45.98-.57.24-1.21.35-1.92.35s-1.35-.12-1.92-.35c-.57-.24-1.05-.56-1.45-.98-.4-.42-.7-.91-.91-1.48-.21-.57-.32-1.19-.32-1.85v-7.02h1.56v7.01c0,.48.07.93.21,1.33.14.4.34.75.6,1.04.26.29.58.52.96.68.38.16.81.25,1.28.25Z"/><path class="cls-1" d="m211.99,38.04v11.55h-.78c-.12,0-.23-.02-.31-.06-.08-.04-.16-.12-.25-.22l-6.68-8.71c.01.13.02.27.02.39s0,.25,0,.36v8.23h-1.37v-11.55h.81c.07,0,.13,0,.18.01s.09.02.13.04c.04.02.08.05.11.08.04.04.08.08.12.13l6.68,8.7c-.01-.14-.02-.28-.03-.41,0-.13-.01-.26-.01-.37v-8.18h1.37Z"/><path class="cls-1" d="m223.18,47.2c.09,0,.16.03.23.1l.62.67c-.47.55-1.05.98-1.72,1.28-.67.31-1.49.46-2.45.46-.83,0-1.58-.14-2.26-.43s-1.26-.69-1.73-1.21c-.48-.52-.85-1.14-1.11-1.87s-.39-1.52-.39-2.39.14-1.67.41-2.39.66-1.35,1.16-1.87c.5-.52,1.09-.92,1.79-1.21.69-.29,1.46-.43,2.3-.43s1.55.13,2.18.39,1.18.62,1.66,1.07l-.52.72c-.03.05-.07.1-.12.13-.05.03-.12.05-.2.05-.1,0-.22-.05-.35-.16-.14-.1-.32-.22-.55-.35s-.51-.25-.85-.35-.75-.16-1.25-.16c-.6,0-1.14.1-1.64.31-.5.21-.92.51-1.28.9-.36.39-.63.87-.83,1.43-.2.56-.3,1.2-.3,1.91s.1,1.36.31,1.93c.21.56.49,1.04.85,1.43.36.39.78.69,1.27.89.49.2,1.01.31,1.58.31.34,0,.65-.02.93-.06.28-.04.53-.1.77-.19s.45-.19.65-.33c.2-.13.4-.29.6-.47.09-.08.18-.12.27-.12Z"/><path class="cls-1" d="m227.53,49.59h-1.56v-11.55h1.56v11.55Z"/><path class="cls-1" d="m237.16,48.27v1.31h-6.55v-11.55h1.56v10.24h5Z"/><polygon class="cls-2" points="21.02 7.96 21.02 0 14.13 3.98 21.02 7.96"/><polygon class="cls-2" points="23.5 0 23.5 14.74 36.27 7.37 23.5 0"/><polygon class="cls-1" points="21.02 21.96 21.02 10.82 11.65 5.41 2 10.98 21.02 21.96"/><polygon class="cls-1" points="23.5 17.61 23.5 28.75 44.53 16.61 44.53 12.14 38.74 8.81 23.5 17.61"/><polygon class="cls-4" points="21.02 35.21 21.02 24.82 0 12.69 0 23.07 21.02 35.21"/><polygon class="cls-4" points="23.5 31.61 23.5 41.99 44.53 29.85 44.53 19.47 23.5 31.61"/><polygon class="cls-3" points="21.02 49.99 21.02 38.07 0 25.93 0 37.85 21.02 49.99"/><polygon class="cls-3" points="23.5 44.85 23.5 57.45 26.12 57.45 26.12 48.47 44.53 37.85 44.53 32.72 23.5 44.85"/></svg>