<?xml version="1.0" encoding="UTF-8"?>
<svg id="Layer_1" data-name="Layer 1" xmlns="http://www.w3.org/2000/svg" viewBox="0 0 509.1 288.23">
  <defs>
    <style>
      .cls-1 {
        fill: #005581;
      }

      .cls-2 {
        fill: #a30046;
      }

      .cls-3 {
        fill: #94a545;
      }
    </style>
  </defs>
  <path class="cls-3" d="m272.5,98.11c0-3.84-3.11-6.94-6.94-6.94-2.24,0-4.23,1.07-5.5,2.73-.99-1.28-2.42-2.22-4.06-2.57l.36-8.54h-3.66l.36,8.56c-1.62.35-3.03,1.29-4.01,2.57-1.26-1.66-3.26-2.73-5.51-2.73-3.83,0-6.94,3.1-6.94,6.94s2.92,6.72,6.59,6.91c-.68,1.06-1.07,2.32-1.07,3.68,0,3.63,2.79,6.6,6.34,6.9-.53.99-.83,2.11-.83,3.3,0,3.82,3.11,6.92,6.94,6.92s6.94-3.1,6.94-6.92c0-1.19-.31-2.32-.83-3.3,3.55-.3,6.34-3.27,6.34-6.9,0-1.36-.41-2.62-1.07-3.68,3.65-.19,6.57-3.21,6.57-6.91Zm-27.98,3.9c-.25-.73,1.07-2.2.87-3.84-.31-2.59-1.73-2.72-1.64-3.5.09-.77,3.81-.81,4.1,3.15.24,3.25-3.08,4.92-3.33,4.19Zm5.57,10.77c-.26-.73,1.06-2.2.87-3.84-.32-2.59-1.74-2.72-1.65-3.49.09-.77,3.82-.81,4.1,3.15.24,3.25-3.07,4.92-3.32,4.19Zm8.94-14.97c.23,3.25-3.07,4.92-3.32,4.19-.25-.73,1.06-2.2.86-3.84-.32-2.59-1.73-2.72-1.65-3.5.09-.77,3.82-.81,4.11,3.15Zm-3.09,25.45c-.25-.73,1.07-2.2.86-3.84-.31-2.59-1.72-2.72-1.64-3.49.09-.78,3.82-.81,4.1,3.15.24,3.25-3.07,4.92-3.33,4.19Zm5.45-10.49c-.26-.73,1.06-2.2.86-3.84-.32-2.59-1.73-2.72-1.65-3.49.09-.77,3.82-.81,4.11,3.15.23,3.25-3.08,4.92-3.32,4.19Zm5.5-10.77c-.25-.73,1.07-2.2.87-3.84-.33-2.59-1.73-2.72-1.64-3.5.09-.77,3.82-.81,4.1,3.15.24,3.25-3.08,4.92-3.33,4.19Z"/>
  <g>
    <path class="cls-1" d="m103.42,211.74c-.92,0-.99-.71-.99-1.34,0-.5-.35-1.2-.71-1.42-1.7,1.7-3.61,2.97-7.64,2.97-7.36,0-13.59-6.02-13.59-15.01s6.23-15.08,13.59-15.08c3.96,0,6.09,1.56,7.64,3.04.35-.28.71-.99.71-1.41,0-.64.28-1.35.99-1.35.85,0,1.06.5,1.06,1.27v8.78c0,.57,0,1.35-.99,1.35-1.06,0-1.06-.78-1.06-1.35,0-4.39-3.47-8-7.93-8-5.38,0-8.35,3.4-8.35,12.74s2.97,12.74,8.35,12.74c4.46,0,7.93-3.61,7.93-8.07,0-.43.14-1.35,1.06-1.35.71,0,.99.78.99,1.35v8.85c0,.71-.28,1.27-1.06,1.27Z"/>
    <path class="cls-1" d="m122.17,203.11l-2.62,6.09c1.77,0,2.62-.07,3.33-.07.5,0,1.06.5,1.06,1.27s-.57,1.2-1.06,1.2c-.71,0-1.06-.35-4.6-.35s-3.82.35-4.46.35c-.57,0-1.06-.43-1.06-1.2s.5-1.27,1.06-1.27c.71,0,1.27.07,3.18.07l11.47-26.33c.21-.64.42-.99,1.13-.99s.85.28,1.13.99l11.11,26.33c2.26,0,2.48-.07,3.19-.07.5,0,1.06.5,1.06,1.27s-.57,1.2-1.06,1.2c-.71,0-.92-.35-5.73-.35h-.07c-4.53,0-4.95.35-5.66.35-.5,0-1.06-.43-1.06-1.2s.57-1.27,1.06-1.27c.71,0,.92.07,2.97.07l-2.55-6.09h-11.82Zm10.76-2.48l-4.74-11.4-4.95,11.4h9.7Z"/>
    <path class="cls-1" d="m171.08,209.34c4.1,0,5.24-1.34,5.24-6.37,0-.56.35-1.06,1.06-1.06.78,0,1.06.5,1.06,1.06,0,.71-.28,2.62-.28,5.52v1.98c0,.71-.5,1.2-1.06,1.2-.64,0-2.83-.28-3.96-.28l-12.03-.14c-5.73,0-6.16.35-6.87.35-.57,0-1.06-.43-1.06-1.2s.5-1.27,1.06-1.27c.71,0,1.13.07,4.53.07v-24.56c-3.4,0-3.82.07-4.53.07-.57,0-1.06-.42-1.06-1.2s.5-1.28,1.06-1.28c.71,0,1.13.36,6.87.36h.35c5.73,0,6.16-.36,6.87-.36.57,0,1.06.5,1.06,1.28s-.5,1.2-1.06,1.2c-.71,0-1.13-.07-4.53-.07v24.7h7.29Z"/>
    <path class="cls-1" d="m203.77,209.12c.57,0,1.06.5,1.06,1.27s-.5,1.2-1.06,1.2c-.71,0-1.13-.35-6.87-.35h-.35c-5.73,0-6.16.35-6.87.35-.57,0-1.06-.43-1.06-1.2s.5-1.27,1.06-1.27c.71,0,1.13.07,4.53.07v-24.56c-3.4,0-3.82.07-4.53.07-.57,0-1.06-.42-1.06-1.2s.5-1.28,1.06-1.28c.71,0,1.13.36,6.87.36h.35c5.73,0,6.16-.36,6.87-.36.57,0,1.06.5,1.06,1.28s-.5,1.2-1.06,1.2c-.71,0-1.13-.07-4.53-.07v24.56c3.4,0,3.82-.07,4.53-.07Z"/>
    <path class="cls-1" d="m228.9,209.05h4.53c.57,0,1.06.42,1.06,1.2s-.5,1.28-1.06,1.28c-.71,0-1.13-.36-6.87-.36h-.35c-5.73,0-6.16.36-6.87.36-.57,0-1.06-.5-1.06-1.28s.5-1.2,1.06-1.2h4.53v-24.42c-3.4,0-3.82.07-4.53.07-.57,0-1.06-.42-1.06-1.2s.5-1.28,1.06-1.28c.71,0,1.13.36,6.87.36,1.63,0,10.05-.07,11.4-.07,1.13,0,3.33-.35,3.96-.35.57,0,1.06.5,1.06,1.27v1.91c0,2.9.28,4.88.28,5.59,0,.5-.28,1.06-1.06,1.06s-1.13-.57-1.13-1.06c0-5.1-1.06-6.37-5.17-6.37h-6.65v10.69h3.82c1.7,0,3.11-1.34,3.11-3.4,0-.64.14-1.2.92-1.2s.78.57.78,1.2c0,.71-.14,1.63-.14,4.11v.71c0,2.48.14,3.4.14,4.11,0,.64,0,1.2-.78,1.2s-.92-.57-.92-1.2c0-2.05-1.42-3.4-3.11-3.4h-3.82v11.68Z"/>
    <path class="cls-1" d="m266.82,211.96c-7.36,0-13.59-6.02-13.59-15.01s6.23-15.08,13.59-15.08,13.59,6.09,13.59,15.08-6.16,15.01-13.59,15.01Zm0-27.75c-5.17,0-7.93,3.11-7.93,12.74s2.76,12.74,7.93,12.74,7.93-3.12,7.93-12.74-2.76-12.74-7.93-12.74Z"/>
    <path class="cls-1" d="m314.81,203.82c0,2.97-.21,3.33-.21,4.81,0,1.13.43,1.84,1.28,1.84.92,0,1.06-.64,1.06-1.49,0-.64.5-1.13,1.06-1.13.64,0,1.13.5,1.13,1.06,0,2.19-2.05,3.25-3.54,3.25-3.54,0-5.8-1.63-5.8-8.35,0-4.67-.78-6.51-5.95-6.51h-2.76v11.89c3.4,0,3.82-.07,4.53-.07.57,0,1.06.5,1.06,1.27s-.49,1.2-1.06,1.2c-.71,0-1.13-.35-6.87-.35h-.36c-5.73,0-6.16.35-6.87.35-.57,0-1.06-.43-1.06-1.2s.49-1.27,1.06-1.27c.71,0,1.13.07,4.53.07v-24.56c-3.4,0-3.82.07-4.53.07-.57,0-1.06-.42-1.06-1.2s.49-1.28,1.06-1.28c.71,0,1.13.36,6.51.36,1.42,0,4.04-.14,5.8-.14,7.57,0,10.97,3.19,10.97,6.87,0,3.26-3.33,5.95-6.72,6.65,4.46,1.13,6.72,4.53,6.72,7.86Zm-11.75-19.25h-1.98v10.69h1.56c4.53,0,6.94-1.41,6.94-5.73,0-3.4-1.63-4.96-6.51-4.96Z"/>
    <path class="cls-1" d="m336.68,209.2c2.9,0,3.26-.07,3.96-.07.57,0,1.06.5,1.06,1.27s-.49,1.2-1.06,1.2c-.71,0-.99-.35-5.1-.35h-.14c-4.11,0-4.46.35-5.17.35-.49,0-1.06-.43-1.06-1.2s.57-1.27,1.06-1.27c.71,0,1.06.07,3.96.07v-24.56c-2.9,0-3.26.07-3.96.07-.49,0-1.06-.42-1.06-1.2s.57-1.28,1.06-1.28c.71,0,1.06.36,5.17.36h.64c.71,0,1.49-.07,1.98-.07.85,0,1.27.35,2.27,1.77l12.88,18.47v-18.12c-2.97,0-3.26.07-3.96.07-.57,0-1.06-.42-1.06-1.2s.5-1.28,1.06-1.28c.71,0,1.06.36,5.1.36h.14c4.11,0,4.46-.36,5.17-.36.49,0,1.06.5,1.06,1.28s-.57,1.2-1.06,1.2c-.71,0-1.06-.07-3.96-.07v25.83c0,1.27-.64,1.63-1.2,1.63-.71,0-.99-.28-1.56-.99l-16.21-23.29v21.38Z"/>
    <path class="cls-1" d="m387.35,209.12c.57,0,1.06.5,1.06,1.27s-.5,1.2-1.06,1.2c-.71,0-1.13-.35-6.87-.35h-.35c-5.73,0-6.16.35-6.87.35-.57,0-1.06-.43-1.06-1.2s.5-1.27,1.06-1.27c.71,0,1.13.07,4.53.07v-24.56c-3.4,0-3.82.07-4.53.07-.57,0-1.06-.42-1.06-1.2s.5-1.28,1.06-1.28c.71,0,1.13.36,6.87.36h.35c5.73,0,6.16-.36,6.87-.36.57,0,1.06.5,1.06,1.28s-.5,1.2-1.06,1.2c-.71,0-1.13-.07-4.53-.07v24.56c3.4,0,3.82-.07,4.53-.07Z"/>
    <path class="cls-1" d="m404.69,203.11l-2.62,6.09c1.77,0,2.62-.07,3.33-.07.5,0,1.06.5,1.06,1.27s-.57,1.2-1.06,1.2c-.71,0-1.06-.35-4.6-.35s-3.82.35-4.46.35c-.57,0-1.06-.43-1.06-1.2s.5-1.27,1.06-1.27c.71,0,1.27.07,3.19.07l11.46-26.33c.21-.64.43-.99,1.13-.99s.85.28,1.13.99l11.11,26.33c2.26,0,2.48-.07,3.18-.07.5,0,1.06.5,1.06,1.27s-.57,1.2-1.06,1.2c-.71,0-.92-.35-5.73-.35h-.07c-4.53,0-4.96.35-5.66.35-.49,0-1.06-.43-1.06-1.2s.57-1.27,1.06-1.27c.71,0,.92.07,2.97.07l-2.55-6.09h-11.82Zm10.76-2.48l-4.74-11.4-4.95,11.4h9.7Z"/>
  </g>
  <g>
    <path class="cls-1" d="m5.95,249.93c-1.73,0-3.37-.8-4.18-1.57-.16.16-.36.52-.36.84,0,.48-.04.72-.52.72-.52,0-.56-.28-.56-.68v-4.58c0-.4.08-.72.52-.72.52,0,.56.4.56.72,0,2.49,2.61,4.02,4.34,4.02,1.89,0,3.66-.64,3.66-2.85,0-1.41-1.04-2.21-3.21-2.85l-1.61-.48c-2.09-.64-4.58-1.97-4.58-4.86,0-3.21,2.73-4.78,5.5-4.78,1.49,0,2.81.72,3.41,1.25.16-.08.28-.28.28-.52,0-.36.08-.72.56-.72.52,0,.56.32.56.68v3.98c0,.32-.12.68-.52.68-.52,0-.6-.36-.6-.68,0-1.33-1-3.42-3.7-3.42-1.73,0-3.41.8-3.41,2.69,0,1.33,1.12,2.21,2.49,2.57l1.89.48c3.13.84,5.1,2.45,5.1,5.22,0,3.29-2.73,4.86-5.62,4.86Z"/>
    <path class="cls-1" d="m28.64,248.49c2.45,0,3.98-1.41,3.98-3.7v-10.36c-1.69,0-1.85.04-2.25.04-.28,0-.6-.24-.6-.68s.32-.72.6-.72c.4,0,.6.2,2.93.2h.04c2.37,0,2.53-.2,2.93-.2.28,0,.6.28.6.72s-.32.68-.6.68c-.4,0-.6-.04-2.25-.04v10.36c0,3.49-2.77,5.14-6.11,5.14s-6.07-1.65-6.07-5.14v-10.36c-1.97,0-2.17.04-2.57.04-.32,0-.6-.24-.6-.68s.28-.72.6-.72c.4,0,.6.2,3.9.2h.16c3.29,0,3.54-.2,3.94-.2.28,0,.6.28.6.72s-.32.68-.6.68c-.4,0-.64-.04-2.57-.04v10.85c0,2.29,1.85,3.21,3.94,3.21Z"/>
    <path class="cls-1" d="m50.01,249.93c-1.73,0-3.37-.8-4.18-1.57-.16.16-.36.52-.36.84,0,.48-.04.72-.52.72-.52,0-.56-.28-.56-.68v-4.58c0-.4.08-.72.52-.72.52,0,.56.4.56.72,0,2.49,2.61,4.02,4.34,4.02,1.89,0,3.66-.64,3.66-2.85,0-1.41-1.04-2.21-3.21-2.85l-1.61-.48c-2.09-.64-4.58-1.97-4.58-4.86,0-3.21,2.73-4.78,5.5-4.78,1.49,0,2.81.72,3.41,1.25.16-.08.28-.28.28-.52,0-.36.08-.72.56-.72.52,0,.56.32.56.68v3.98c0,.32-.12.68-.52.68-.52,0-.6-.36-.6-.68,0-1.33-1-3.42-3.7-3.42-1.73,0-3.41.8-3.41,2.69,0,1.33,1.12,2.21,2.49,2.57l1.89.48c3.13.84,5.1,2.45,5.1,5.22,0,3.29-2.73,4.86-5.62,4.86Z"/>
    <path class="cls-1" d="m77.37,238.61c-.44,0-.64-.32-.64-.6,0-2.89-.64-3.62-2.97-3.62h-1.73v13.98c1.93,0,2.17-.04,2.57-.04.32,0,.6.28.6.72s-.28.68-.6.68c-.4,0-.64-.2-3.9-.2h-.16c-3.29,0-3.54.2-3.94.2-.28,0-.6-.24-.6-.68s.32-.72.6-.72c.4,0,.64.04,2.57.04v-13.98h-1.73c-2.33,0-2.93.72-2.93,3.62,0,.28-.2.6-.64.6s-.6-.32-.6-.6c0-.4.16-1.53.16-3.17v-1.08c0-.44.28-.72.6-.72.36,0,1.61.2,2.25.2h8.68c.6,0,1.85-.2,2.21-.2.32,0,.6.28.6.72v1.08c0,1.65.2,2.77.2,3.17,0,.28-.2.6-.6.6Z"/>
    <path class="cls-1" d="m88.09,244.91l-1.49,3.46c1,0,1.49-.04,1.89-.04.28,0,.6.28.6.72s-.32.68-.6.68c-.4,0-.6-.2-2.61-.2s-2.17.2-2.53.2c-.32,0-.6-.24-.6-.68s.28-.72.6-.72c.4,0,.72.04,1.81.04l6.51-14.94c.12-.36.24-.56.64-.56s.48.16.64.56l6.31,14.94c1.29,0,1.41-.04,1.81-.04.28,0,.6.28.6.72s-.32.68-.6.68c-.4,0-.52-.2-3.25-.2h-.04c-2.57,0-2.81.2-3.21.2-.28,0-.6-.24-.6-.68s.32-.72.6-.72c.4,0,.52.04,1.69.04l-1.45-3.46h-6.71Zm6.11-1.41l-2.69-6.47-2.81,6.47h5.5Z"/>
    <path class="cls-1" d="m116.21,248.33c.32,0,.6.28.6.72s-.28.68-.6.68c-.4,0-.64-.2-3.9-.2h-.2c-3.25,0-3.49.2-3.9.2-.32,0-.6-.24-.6-.68s.28-.72.6-.72c.4,0,.64.04,2.57.04v-13.94c-1.93,0-2.17.04-2.57.04-.32,0-.6-.24-.6-.68s.28-.72.6-.72c.4,0,.64.2,3.9.2h.2c3.25,0,3.5-.2,3.9-.2.32,0,.6.28.6.72s-.28.68-.6.68c-.4,0-.64-.04-2.57-.04v13.94c1.93,0,2.17-.04,2.57-.04Z"/>
    <path class="cls-1" d="m130.35,248.37c1.65,0,1.85-.04,2.25-.04.32,0,.6.28.6.72s-.28.68-.6.68c-.4,0-.56-.2-2.89-.2h-.08c-2.33,0-2.53.2-2.93.2-.28,0-.6-.24-.6-.68s.32-.72.6-.72c.4,0,.6.04,2.25.04v-13.94c-1.65,0-1.85.04-2.25.04-.28,0-.6-.24-.6-.68s.32-.72.6-.72c.4,0,.6.2,2.93.2h.36c.4,0,.84-.04,1.12-.04.48,0,.72.2,1.29,1l7.31,10.48v-10.28c-1.69,0-1.85.04-2.25.04-.32,0-.6-.24-.6-.68s.28-.72.6-.72c.4,0,.6.2,2.89.2h.08c2.33,0,2.53-.2,2.93-.2.28,0,.6.28.6.72s-.32.68-.6.68c-.4,0-.6-.04-2.25-.04v14.66c0,.72-.36.92-.68.92-.4,0-.56-.16-.88-.56l-9.2-13.22v12.13Z"/>
    <path class="cls-1" d="m154.41,244.91l-1.49,3.46c1,0,1.49-.04,1.89-.04.28,0,.6.28.6.72s-.32.68-.6.68c-.4,0-.6-.2-2.61-.2s-2.17.2-2.53.2c-.32,0-.6-.24-.6-.68s.28-.72.6-.72c.4,0,.72.04,1.81.04l6.51-14.94c.12-.36.24-.56.64-.56s.48.16.64.56l6.31,14.94c1.29,0,1.41-.04,1.81-.04.28,0,.6.28.6.72s-.32.68-.6.68c-.4,0-.52-.2-3.25-.2h-.04c-2.57,0-2.81.2-3.21.2-.28,0-.6-.24-.6-.68s.32-.72.6-.72c.4,0,.52.04,1.69.04l-1.45-3.46h-6.71Zm6.11-1.41l-2.69-6.47-2.81,6.47h5.5Z"/>
    <path class="cls-1" d="m174.09,249.73c-.32,0-.6-.24-.6-.68s.28-.72.6-.72c.4,0,.64.04,2.57.04v-13.94c-1.93,0-2.17.04-2.57.04-.32,0-.6-.24-.6-.68s.28-.72.6-.72c.4,0,.64.2,3.7.2.8,0,2.29-.08,3.29-.08,4.3,0,6.23,1.81,6.23,3.9,0,1.77-1.73,3.25-3.46,3.7,2.61.36,4.7,2.21,4.7,4.34,0,2.61-2.05,4.54-6.35,4.54-1.61,0-3.01-.12-4.34-.12-3.13,0-3.37.2-3.78.2Zm6.55-15.35h-1.12v6.07h.88c2.57,0,3.94-.8,3.94-3.25,0-1.93-.92-2.81-3.7-2.81Zm1,7.23h-2.13v6.87h2.37c2.77,0,3.7-1,3.7-3.41,0-2.01-1.37-3.45-3.94-3.45Z"/>
    <path class="cls-1" d="m207.47,248.45c2.33,0,2.97-.76,2.97-3.62,0-.32.2-.6.6-.6.44,0,.6.28.6.6,0,.4-.16,1.49-.16,3.13v1.12c0,.4-.28.68-.6.68-.36,0-1.61-.16-2.25-.16l-6.83-.08c-3.25,0-3.49.2-3.9.2-.32,0-.6-.24-.6-.68s.28-.72.6-.72c.4,0,.64.04,2.57.04v-13.94c-1.93,0-2.17.04-2.57.04-.32,0-.6-.24-.6-.68s.28-.72.6-.72c.4,0,.64.2,3.9.2h.2c3.25,0,3.49-.2,3.9-.2.32,0,.6.28.6.72s-.28.68-.6.68c-.4,0-.64-.04-2.57-.04v14.02h4.14Z"/>
    <path class="cls-1" d="m226.71,240.45c.96,0,1.77-.76,1.77-1.93,0-.36.08-.68.52-.68s.44.32.44.68c0,.4-.08.93-.08,2.33v.4c0,1.41.08,1.93.08,2.33,0,.36,0,.68-.44.68s-.52-.32-.52-.68c0-1.17-.8-1.93-1.77-1.93h-1.37v6.79h3.86c2.29,0,2.93-.76,2.93-3.62,0-.32.2-.6.64-.6s.6.28.6.6c0,.4-.16,1.49-.16,3.13v1.12c0,.4-.32.68-.6.68-.36,0-1.61-.16-2.25-.16l-6.55-.08c-3.25,0-3.49.2-3.9.2-.32,0-.6-.24-.6-.68s.28-.72.6-.72c.4,0,.64.04,2.57.04v-13.94c-1.93,0-2.17.04-2.57.04-.32,0-.6-.24-.6-.68s.28-.72.6-.72c.4,0,.64.2,3.9.2l5.82-.04c.64,0,1.89-.2,2.25-.2.32,0,.6.28.6.72v1.08c0,1.65.16,2.77.16,3.17,0,.28-.16.6-.6.6-.4,0-.6-.32-.6-.6,0-2.89-.64-3.62-2.97-3.62h-3.13v6.07h1.37Z"/>
    <path class="cls-1" d="m262.46,249.41c-.12.32-.24.52-.64.52s-.48-.16-.64-.52l-5.99-14.98c-1.33,0-1.41.04-1.81.04-.28,0-.6-.24-.6-.68s.32-.72.6-.72c.4,0,.6.2,3.25.2h10.89c.96,0,1.73-.2,2.09-.2.28,0,.6.28.6.72s-.32.68-.6.68c-.4,0-.68-.04-.96-.04l-2.37,5.66,2.29,5.66,4.7-11.33c-1,0-.64.04-1.04.04-.32,0-.6-.24-.6-.68s.28-.72.6-.72c.36,0,1,.2,2.05.2,1.65,0,1.85-.2,2.21-.2.32,0,.6.28.6.72s-.28.68-.6.68c-.4,0-.72-.04-1.81-.04l-6.15,14.98c-.12.32-.24.52-.64.52s-.48-.16-.64-.52l-2.37-5.87-2.41,5.87Zm.04-3.66l1.69-4.02-2.93-7.31h-3.25l4.5,11.33Zm3.09-7.43l1.61-3.9h-3.17l1.57,3.9Z"/>
    <path class="cls-1" d="m291.75,248.33c.32,0,.6.28.6.72s-.28.68-.6.68c-.4,0-.64-.2-3.9-.2h-.2c-3.25,0-3.49.2-3.9.2-.32,0-.6-.24-.6-.68s.28-.72.6-.72c.4,0,.64.04,2.57.04v-13.94c-1.93,0-2.17.04-2.57.04-.32,0-.6-.24-.6-.68s.28-.72.6-.72c.4,0,.64.2,3.9.2h.2c3.25,0,3.49-.2,3.9-.2.32,0,.6.28.6.72s-.28.68-.6.68c-.4,0-.64-.04-2.57-.04v13.94c1.93,0,2.17-.04,2.57-.04Z"/>
    <path class="cls-1" d="m305.81,248.37c1.65,0,1.85-.04,2.25-.04.32,0,.6.28.6.72s-.28.68-.6.68c-.4,0-.56-.2-2.89-.2h-.08c-2.33,0-2.53.2-2.93.2-.28,0-.6-.24-.6-.68s.32-.72.6-.72c.4,0,.6.04,2.25.04v-13.94c-1.65,0-1.85.04-2.25.04-.28,0-.6-.24-.6-.68s.32-.72.6-.72c.4,0,.6.2,2.93.2h.36c.4,0,.84-.04,1.12-.04.48,0,.72.2,1.29,1l7.31,10.48v-10.28c-1.69,0-1.85.04-2.25.04-.32,0-.6-.24-.6-.68s.28-.72.6-.72c.4,0,.6.2,2.89.2h.08c2.33,0,2.53-.2,2.93-.2.28,0,.6.28.6.72s-.32.68-.6.68c-.4,0-.6-.04-2.25-.04v14.66c0,.72-.36.92-.68.92-.4,0-.56-.16-.88-.56l-9.2-13.22v12.13Z"/>
    <path class="cls-1" d="m335.09,240.45c.96,0,1.77-.76,1.77-1.93,0-.36.08-.68.52-.68s.44.32.44.68c0,.4-.08.93-.08,2.33v.4c0,1.41.08,1.93.08,2.33,0,.36,0,.68-.44.68s-.52-.32-.52-.68c0-1.17-.8-1.93-1.77-1.93h-1.37v6.79h3.86c2.29,0,2.93-.76,2.93-3.62,0-.32.2-.6.64-.6s.6.28.6.6c0,.4-.16,1.49-.16,3.13v1.12c0,.4-.32.68-.6.68-.36,0-1.61-.16-2.25-.16l-6.55-.08c-3.25,0-3.49.2-3.9.2-.32,0-.6-.24-.6-.68s.28-.72.6-.72c.4,0,.64.04,2.57.04v-13.94c-1.93,0-2.17.04-2.57.04-.32,0-.6-.24-.6-.68s.28-.72.6-.72c.4,0,.64.2,3.9.2l5.83-.04c.64,0,1.89-.2,2.25-.2.32,0,.6.28.6.72v1.08c0,1.65.16,2.77.16,3.17,0,.28-.16.6-.6.6-.4,0-.6-.32-.6-.6,0-2.89-.64-3.62-2.97-3.62h-3.13v6.07h1.37Z"/>
    <path class="cls-1" d="m350.23,241.42c0-5.1,3.54-8.56,7.71-8.56,2.25,0,3.54.88,4.34,1.73.2-.16.4-.48.4-.8,0-.36.04-.76.6-.76s.56.28.56.72v4.98c0,.32.04.76-.56.76s-.6-.44-.6-.76c0-2.49-1.97-4.54-4.5-4.54-3.05,0-4.74,1.93-4.74,7.23s1.69,7.23,4.74,7.23c1.73,0,3.46-.68,3.46-4.54-1.33,0-1.53.04-1.93.04-.28,0-.6-.28-.6-.68,0-.44.32-.72.6-.72.4,0,.56.2,3.26.2h.16c2.77,0,2.85-.2,3.25-.2.32,0,.6.28.6.72,0,.4-.28.68-.6.68-.4,0-.6-.04-1.89-.04,0,1.21-.4,5.83-6.55,5.83-4.18,0-7.71-3.41-7.71-8.52Z"/>
    <path class="cls-1" d="m387.47,245.31c0,1.69-.12,1.89-.12,2.73,0,.64.24,1.04.72,1.04.52,0,.6-.36.6-.84,0-.36.28-.64.6-.64.36,0,.64.28.64.6,0,1.25-1.16,1.85-2.01,1.85-2.01,0-3.29-.92-3.29-4.74,0-2.65-.44-3.7-3.37-3.7h-1.57v6.75c1.93,0,2.17-.04,2.57-.04.32,0,.6.28.6.72s-.28.68-.6.68c-.4,0-.64-.2-3.9-.2h-.2c-3.25,0-3.49.2-3.9.2-.32,0-.6-.24-.6-.68s.28-.72.6-.72c.4,0,.64.04,2.57.04v-13.94c-1.93,0-2.17.04-2.57.04-.32,0-.6-.24-.6-.68s.28-.72.6-.72c.4,0,.64.2,3.7.2.8,0,2.29-.08,3.29-.08,4.3,0,6.23,1.81,6.23,3.9,0,1.85-1.89,3.37-3.82,3.78,2.53.64,3.82,2.57,3.82,4.46Zm-6.67-10.93h-1.13v6.07h.88c2.57,0,3.94-.8,3.94-3.25,0-1.93-.92-2.81-3.7-2.81Z"/>
    <path class="cls-1" d="m404.82,249.93c-4.18,0-7.71-3.41-7.71-8.52s3.54-8.56,7.71-8.56,7.71,3.46,7.71,8.56-3.49,8.52-7.71,8.52Zm0-15.75c-2.93,0-4.5,1.77-4.5,7.23s1.57,7.23,4.5,7.23,4.5-1.77,4.5-7.23-1.57-7.23-4.5-7.23Z"/>
    <path class="cls-1" d="m427.43,249.41c-.12.32-.24.52-.64.52s-.48-.16-.64-.52l-5.99-14.98c-1.33,0-1.41.04-1.81.04-.28,0-.6-.24-.6-.68s.32-.72.6-.72c.4,0,.6.2,3.25.2h10.89c.96,0,1.73-.2,2.09-.2.28,0,.6.28.6.72s-.32.68-.6.68c-.4,0-.68-.04-.96-.04l-2.37,5.66,2.29,5.66,4.7-11.33c-1.01,0-.64.04-1.04.04-.32,0-.6-.24-.6-.68s.28-.72.6-.72c.36,0,1,.2,2.05.2,1.65,0,1.85-.2,2.21-.2.32,0,.6.28.6.72s-.28.68-.6.68c-.4,0-.72-.04-1.81-.04l-6.14,14.98c-.12.32-.24.52-.64.52s-.48-.16-.64-.52l-2.37-5.87-2.41,5.87Zm.04-3.66l1.69-4.02-2.93-7.31h-3.25l4.5,11.33Zm3.09-7.43l1.61-3.9h-3.17l1.57,3.9Z"/>
    <path class="cls-1" d="m456.92,248.33c.32,0,.6.28.6.72s-.28.68-.6.68c-.4,0-.64-.2-3.9-.2h-.2c-3.25,0-3.49.2-3.9.2-.32,0-.6-.24-.6-.68s.28-.72.6-.72c.4,0,.64.04,2.57.04v-13.94c-1.93,0-2.17.04-2.57.04-.32,0-.6-.24-.6-.68s.28-.72.6-.72c.4,0,.64.2,3.9.2h.2c3.25,0,3.49-.2,3.9-.2.32,0,.6.28.6.72s-.28.68-.6.68c-.4,0-.64-.04-2.57-.04v13.94c1.93,0,2.17-.04,2.57-.04Z"/>
    <path class="cls-1" d="m470.98,248.37c1.65,0,1.85-.04,2.25-.04.32,0,.6.28.6.72s-.28.68-.6.68c-.4,0-.56-.2-2.89-.2h-.08c-2.33,0-2.53.2-2.93.2-.28,0-.6-.24-.6-.68s.32-.72.6-.72c.4,0,.6.04,2.25.04v-13.94c-1.65,0-1.85.04-2.25.04-.28,0-.6-.24-.6-.68s.32-.72.6-.72c.4,0,.6.2,2.93.2h.36c.4,0,.84-.04,1.12-.04.48,0,.72.2,1.29,1l7.31,10.48v-10.28c-1.69,0-1.85.04-2.25.04-.32,0-.6-.24-.6-.68s.28-.72.6-.72c.4,0,.6.2,2.89.2h.08c2.33,0,2.53-.2,2.93-.2.28,0,.6.28.6.72s-.32.68-.6.68c-.4,0-.6-.04-2.25-.04v14.66c0,.72-.36.92-.68.92-.4,0-.56-.16-.88-.56l-9.2-13.22v12.13Z"/>
    <path class="cls-1" d="m492.35,241.42c0-5.1,3.54-8.56,7.71-8.56,2.25,0,3.54.88,4.34,1.73.2-.16.4-.48.4-.8,0-.36.04-.76.6-.76s.56.28.56.72v4.98c0,.32.04.76-.56.76s-.6-.44-.6-.76c0-2.49-1.97-4.54-4.5-4.54-3.05,0-4.74,1.93-4.74,7.23s1.69,7.23,4.74,7.23c1.73,0,3.45-.68,3.45-4.54-1.32,0-1.53.04-1.93.04-.28,0-.6-.28-.6-.68,0-.44.32-.72.6-.72.4,0,.56.2,3.25.2h.16c2.77,0,2.85-.2,3.25-.2.32,0,.6.28.6.72,0,.4-.28.68-.6.68-.4,0-.6-.04-1.89-.04,0,1.21-.4,5.83-6.55,5.83-4.18,0-7.71-3.41-7.71-8.52Z"/>
  </g>
  <g>
    <path class="cls-1" d="m173.99,283.13l-1.49,3.45c1,0,1.49-.04,1.89-.04.28,0,.6.28.6.72s-.32.68-.6.68c-.4,0-.6-.2-2.61-.2s-2.17.2-2.53.2c-.32,0-.6-.24-.6-.68s.28-.72.6-.72c.4,0,.72.04,1.81.04l6.51-14.94c.12-.36.24-.56.64-.56s.48.16.64.56l6.31,14.94c1.29,0,1.41-.04,1.81-.04.28,0,.6.28.6.72s-.32.68-.6.68c-.4,0-.52-.2-3.25-.2h-.04c-2.57,0-2.81.2-3.21.2-.28,0-.6-.24-.6-.68s.32-.72.6-.72c.4,0,.52.04,1.69.04l-1.45-3.45h-6.71Zm6.11-1.41l-2.69-6.47-2.81,6.47h5.5Z"/>
    <path class="cls-1" d="m203.56,286.67c2.33,0,2.97-.76,2.97-3.62,0-.32.2-.6.6-.6.44,0,.6.28.6.6,0,.4-.16,1.49-.16,3.13v1.12c0,.4-.28.68-.6.68-.36,0-1.61-.16-2.25-.16l-6.83-.08c-3.25,0-3.49.2-3.9.2-.32,0-.6-.24-.6-.68s.28-.72.6-.72c.4,0,.64.04,2.57.04v-13.94c-1.93,0-2.17.04-2.57.04-.32,0-.6-.24-.6-.68s.28-.72.6-.72c.4,0,.64.2,3.9.2h.2c3.25,0,3.5-.2,3.9-.2.32,0,.6.28.6.72s-.28.68-.6.68c-.4,0-.64-.04-2.57-.04v14.02h4.14Z"/>
    <path class="cls-1" d="m225.05,286.67c2.33,0,2.97-.76,2.97-3.62,0-.32.2-.6.6-.6.44,0,.6.28.6.6,0,.4-.16,1.49-.16,3.13v1.12c0,.4-.28.68-.6.68-.36,0-1.61-.16-2.25-.16l-6.83-.08c-3.25,0-3.5.2-3.9.2-.32,0-.6-.24-.6-.68s.28-.72.6-.72c.4,0,.64.04,2.57.04v-13.94c-1.93,0-2.17.04-2.57.04-.32,0-.6-.24-.6-.68s.28-.72.6-.72c.4,0,.64.2,3.9.2h.2c3.25,0,3.49-.2,3.9-.2.32,0,.6.28.6.72s-.28.68-.6.68c-.4,0-.64-.04-2.57-.04v14.02h4.14Z"/>
    <path class="cls-1" d="m245.21,286.55c.32,0,.6.28.6.72s-.28.68-.6.68c-.4,0-.64-.2-3.9-.2h-.2c-3.25,0-3.5.2-3.9.2-.32,0-.6-.24-.6-.68s.28-.72.6-.72c.4,0,.64.04,2.57.04v-13.94c-1.93,0-2.17.04-2.57.04-.32,0-.6-.24-.6-.68s.28-.72.6-.72c.4,0,.64.2,3.9.2h.2c3.25,0,3.49-.2,3.9-.2.32,0,.6.28.6.72s-.28.68-.6.68c-.4,0-.64-.04-2.57-.04v13.94c1.93,0,2.17-.04,2.57-.04Z"/>
    <path class="cls-1" d="m257.58,283.13l-1.49,3.45c1.01,0,1.49-.04,1.89-.04.28,0,.6.28.6.72s-.32.68-.6.68c-.4,0-.6-.2-2.61-.2s-2.17.2-2.53.2c-.32,0-.6-.24-.6-.68s.28-.72.6-.72c.4,0,.72.04,1.81.04l6.51-14.94c.12-.36.24-.56.64-.56s.48.16.64.56l6.31,14.94c1.29,0,1.41-.04,1.81-.04.28,0,.6.28.6.72s-.32.68-.6.68c-.4,0-.52-.2-3.25-.2h-.04c-2.57,0-2.81.2-3.21.2-.28,0-.6-.24-.6-.68s.32-.72.6-.72c.4,0,.52.04,1.69.04l-1.45-3.45h-6.71Zm6.11-1.41l-2.69-6.47-2.81,6.47h5.5Z"/>
    <path class="cls-1" d="m281.4,286.59c1.65,0,1.85-.04,2.25-.04.32,0,.6.28.6.72s-.28.68-.6.68c-.4,0-.56-.2-2.89-.2h-.08c-2.33,0-2.53.2-2.93.2-.28,0-.6-.24-.6-.68s.32-.72.6-.72c.4,0,.6.04,2.25.04v-13.94c-1.65,0-1.85.04-2.25.04-.28,0-.6-.24-.6-.68s.32-.72.6-.72c.4,0,.6.2,2.93.2h.36c.4,0,.84-.04,1.12-.04.48,0,.72.2,1.29,1l7.31,10.48v-10.28c-1.69,0-1.85.04-2.25.04-.32,0-.6-.24-.6-.68s.28-.72.6-.72c.4,0,.6.2,2.89.2h.08c2.33,0,2.53-.2,2.93-.2.28,0,.6.28.6.72s-.32.68-.6.68c-.4,0-.6-.04-2.25-.04v14.66c0,.72-.36.92-.68.92-.4,0-.56-.16-.88-.56l-9.2-13.22v12.13Z"/>
    <path class="cls-1" d="m316.19,288.03c-.52,0-.56-.4-.56-.76,0-.28-.2-.68-.4-.8-.96.96-2.05,1.69-4.34,1.69-4.18,0-7.71-3.42-7.71-8.52s3.54-8.56,7.71-8.56c2.25,0,3.46.88,4.34,1.73.2-.16.4-.56.4-.8,0-.36.16-.76.56-.76.48,0,.6.28.6.72v4.98c0,.32,0,.76-.56.76-.6,0-.6-.44-.6-.76,0-2.49-1.97-4.54-4.5-4.54-3.05,0-4.74,1.93-4.74,7.23s1.69,7.23,4.74,7.23c2.53,0,4.5-2.05,4.5-4.58,0-.24.08-.76.6-.76.4,0,.56.44.56.76v5.02c0,.4-.16.72-.6.72Z"/>
    <path class="cls-1" d="m333.78,278.67c.96,0,1.77-.76,1.77-1.93,0-.36.08-.68.52-.68s.44.32.44.68c0,.4-.08.92-.08,2.33v.4c0,1.41.08,1.93.08,2.33,0,.36,0,.68-.44.68s-.52-.32-.52-.68c0-1.16-.8-1.93-1.77-1.93h-1.37v6.79h3.86c2.29,0,2.93-.76,2.93-3.62,0-.32.2-.6.64-.6s.6.28.6.6c0,.4-.16,1.49-.16,3.13v1.12c0,.4-.32.68-.6.68-.36,0-1.61-.16-2.25-.16l-6.55-.08c-3.25,0-3.49.2-3.9.2-.32,0-.6-.24-.6-.68s.28-.72.6-.72c.4,0,.64.04,2.57.04v-13.94c-1.93,0-2.17.04-2.57.04-.32,0-.6-.24-.6-.68s.28-.72.6-.72c.4,0,.64.2,3.9.2l5.82-.04c.64,0,1.89-.2,2.25-.2.32,0,.6.28.6.72v1.08c0,1.65.16,2.77.16,3.17,0,.28-.16.6-.6.6-.4,0-.6-.32-.6-.6,0-2.89-.64-3.62-2.97-3.62h-3.13v6.07h1.37Z"/>
  </g>
  <path class="cls-1" d="m211.57,105.38v-62.4c0-23.74,19.24-42.97,42.98-42.97h0c23.73,0,42.98,19.23,42.98,42.97h0v62.4c0,23.73-19.24,42.97-42.98,42.97h0c-23.74,0-42.97-19.24-42.98-42.97h0Zm5.44-62.4v62.4c.03,20.72,16.8,37.5,37.53,37.53h0c20.73-.03,37.5-16.81,37.54-37.53h0v-62.4c-.03-20.73-16.8-37.5-37.54-37.54h0c-20.73.04-37.5,16.8-37.53,37.54h0Z"/>
  <path class="cls-1" d="m254.54,10.87c-17.7,0-32.09,14.39-32.09,32.1v62.4c0,17.7,14.39,32.09,32.09,32.09s32.1-14.39,32.1-32.09v-62.4c0-17.71-14.4-32.09-32.1-32.1Zm29.93,94.5c-.03,16.49-13.43,29.89-29.93,29.92-16.49-.03-29.89-13.43-29.92-29.92v-62.4c.03-16.5,13.42-29.89,29.92-29.92,16.49.03,29.9,13.42,29.93,29.92v62.4Z"/>
  <path class="cls-2" d="m268.01,51.75c1.23-7.13-.33-17.15-1.7-23.67h-23.54c-1.35,6.53-2.92,16.55-1.69,23.67,1.07,6.16,6.11,10.59,11.52,13.37l.57,13.21c-5.78,2.52-10.71,4.43-10.72,4.46h24.23s-4.96-1.94-10.74-4.47l.56-13.19c5.41-2.79,10.44-7.2,11.52-13.38Zm-6.65-18.72l.2-.02h.23s1.64,0,1.64,0h.1c.47.09.53.59.56.72,0,.01,1.08,5.25,1.16,10.6v.3c-.05,3.63-.86,7.12-2.24,8-.16.08-.3.14-.48.15-.42,0-.63-.31-.58-.65.14-1.03.33-2.81.33-4.24,0-5.93-1.31-13.58-1.36-13.88-.02-.07-.02-.15-.03-.22-.07-.59.37-.74.47-.75Z"/>
</svg>