<svg xmlns="http://www.w3.org/2000/svg" viewBox="0 0 142 30"><defs><style>.aad16228-9a76-409d-9e50-94424403f38d{fill:#f79421;}.f8e23eef-7267-4bb1-a685-dffc650c7181{fill:#da205e;}.ba36fc51-0064-49d4-a5e9-06670746f4f6{fill:#652f8f;}.fdd074c1-3d3a-4177-a39c-2cebce23d3e0{fill:#e90c8b;}.f3d0d70f-2022-4bef-95d4-d6fd8f19f43f{fill:#1b75bc;}.a77291a1-adba-4930-a790-b1a822679df3{fill:#d7df28;}</style></defs><title>Artboard 46</title><g id="f55d2fef-a7cb-449c-839a-ca07d25f4415" data-name="Layer 2"><path d="M.61,1.88a.7.7,0,0,1,.72-1H4a.85.85,0,0,1,.73.56L9.63,20h.16L16.35,1A.72.72,0,0,1,17,.51h.73a.72.72,0,0,1,.68.44l6.64,19h.17L30,1.47a.82.82,0,0,1,.72-.56h2.7a.7.7,0,0,1,.72,1L26.57,28.93a.77.77,0,0,1-.72.56h-.64a.77.77,0,0,1-.69-.44L17.44,9h-.21l-7,20a.76.76,0,0,1-.68.44H8.94a.77.77,0,0,1-.72-.56Z"/><path d="M39.22,1.68A.76.76,0,0,1,40,.91h9c4.87,0,8.37,3.22,8.37,7.45,0,3.1-2.29,5.31-4.19,6.4,2.14.88,5,2.86,5,6.56,0,4.51-3.71,7.77-8.78,7.77H40a.76.76,0,0,1-.76-.77ZM49.4,25.39A4.29,4.29,0,0,0,53.75,21c0-2.46-2.34-4.23-5-4.23H43.28v8.62Zm-.64-12.24A4,4,0,0,0,52.9,8.84a3.89,3.89,0,0,0-4.14-4.15H43.32v8.46Z"/><path d="M64.17,1.68a.77.77,0,0,1,.77-.77H81a.77.77,0,0,1,.77.77V3.93a.77.77,0,0,1-.77.76H68.32v8.22H79.07a.79.79,0,0,1,.76.76v2.26a.76.76,0,0,1-.76.76H68.32v8.66H81a.77.77,0,0,1,.77.76v2.21a.77.77,0,0,1-.77.77H64.94a.77.77,0,0,1-.77-.77Z"/><path d="M87.8,1.23a.76.76,0,0,1,.77-.72h1l17.47,20.21h0v-19a.76.76,0,0,1,.76-.77h2.58a.79.79,0,0,1,.76.77V28.77a.75.75,0,0,1-.76.72h-1.05L91.91,8.72h0v19.6a.76.76,0,0,1-.76.77H88.57a.8.8,0,0,1-.77-.77Z"/><path d="M131.4.51a14,14,0,0,1,9.74,3.74.74.74,0,0,1,0,1.13l-1.77,1.81c-.28.36-.64.36-1,0a10.94,10.94,0,0,0-7-2.7A10.27,10.27,0,0,0,121.34,15a10.27,10.27,0,0,0,10.14,10.43,10.81,10.81,0,0,0,6.93-2.66.73.73,0,0,1,1,0l1.85,1.81a.76.76,0,0,1,0,1.09,13.83,13.83,0,0,1-9.78,3.9,14.49,14.49,0,1,1,0-29Z"/><path class="aad16228-9a76-409d-9e50-94424403f38d" d="M127.78,14a4.17,4.17,0,0,1,1.17.68l0-.05a3.29,3.29,0,0,0,.38-.54,4.09,4.09,0,0,0,.34-.77,2.68,2.68,0,0,0,.07-.27l0-.16c0-.1,0-.17,0-.24a4.73,4.73,0,0,0,0-1.13,6.93,6.93,0,0,0-.26-1.28,1.07,1.07,0,0,0-.09-.19.88.88,0,0,0-.51-.4.85.85,0,0,0-.5,0,.83.83,0,0,0-.53.42.89.89,0,0,0-.07.68c0,.08,0,.16.07.23l.06.26,0,.19,0,.17a3,3,0,0,1,0,1,1.79,1.79,0,0,1-.09.35c0,.1-.09.2-.14.3a1.78,1.78,0,0,1-.24.32,1.42,1.42,0,0,1-.25.24l-.06.05.23.09Z"/><path class="aad16228-9a76-409d-9e50-94424403f38d" d="M125.58,12.85a1.09,1.09,0,1,0-1.09-1.09A1.09,1.09,0,0,0,125.58,12.85Z"/><path class="f8e23eef-7267-4bb1-a685-dffc650c7181" d="M127.91,17.38a1.8,1.8,0,0,1,.17.37,3.38,3.38,0,0,1,.08.34.25.25,0,0,0,0,.08l.17-.15.23-.19a4,4,0,0,1,1.18-.67l0-.07a3.47,3.47,0,0,0-.27-.59,3.36,3.36,0,0,0-.51-.68l-.2-.2-.12-.11-.18-.15a4.94,4.94,0,0,0-1-.57,6.93,6.93,0,0,0-1.24-.42l-.19,0a1,1,0,0,0-.62.24.89.89,0,0,0-.25.44.87.87,0,0,0,.1.67.93.93,0,0,0,.55.4l.24.06.26.08.18.06.16.06a3.24,3.24,0,0,1,.82.49l.26.26A1.59,1.59,0,0,1,127.91,17.38Z"/><path class="f8e23eef-7267-4bb1-a685-dffc650c7181" d="M126.08,17.68a1,1,0,0,0-.54-.15,1.09,1.09,0,0,0-1.05,1.37,1.09,1.09,0,0,0,.51.66,1,1,0,0,0,.54.15,1.08,1.08,0,0,0,.94-.55,1.08,1.08,0,0,0-.4-1.48Z"/><path class="ba36fc51-0064-49d4-a5e9-06670746f4f6" d="M128.79,20.86a.85.85,0,0,0,.62-.27l.17-.18.2-.18.14-.13.13-.1a3.26,3.26,0,0,1,.84-.47,2.7,2.7,0,0,1,.36-.09,1.94,1.94,0,0,1,.72,0l.33.1.08,0c0-.08,0-.16,0-.23l-.05-.29a4.09,4.09,0,0,1,0-1.35h-.07a3.68,3.68,0,0,0-.66-.06,3.31,3.31,0,0,0-.83.1l-.28.07-.15.05-.22.09a4.42,4.42,0,0,0-1,.55,7,7,0,0,0-1,.87.83.83,0,0,0-.12.17.9.9,0,0,0-.09.64.81.81,0,0,0,.25.44.85.85,0,0,0,.6.24Z"/><path class="ba36fc51-0064-49d4-a5e9-06670746f4f6" d="M131.46,21a1.11,1.11,0,0,0-.54.14,1.09,1.09,0,0,0,.54,2A1,1,0,0,0,132,23a1.08,1.08,0,0,0,.4-1.48A1.07,1.07,0,0,0,131.46,21Z"/><path class="fdd074c1-3d3a-4177-a39c-2cebce23d3e0" d="M135.22,16.46a4.17,4.17,0,0,1-1.17-.68l-.05.05a5.22,5.22,0,0,0-.38.54,4.06,4.06,0,0,0-.33.77,2.68,2.68,0,0,0-.07.27l0,.16c0,.1,0,.17,0,.24a4.73,4.73,0,0,0,0,1.13,6.93,6.93,0,0,0,.26,1.28,1.07,1.07,0,0,0,.09.19.82.82,0,0,0,.51.4.78.78,0,0,0,.5,0,.91.91,0,0,0,.53-.43.92.92,0,0,0,.07-.67c0-.09,0-.17-.07-.24l-.06-.26,0-.19,0-.17a3.39,3.39,0,0,1,0-1,2.92,2.92,0,0,1,.1-.35,2,2,0,0,1,.14-.3,1.41,1.41,0,0,1,.24-.32,1.9,1.9,0,0,1,.25-.24l.06-.05-.23-.08Z"/><path class="fdd074c1-3d3a-4177-a39c-2cebce23d3e0" d="M137.42,17.6a1.09,1.09,0,1,0,1.09,1.09A1.09,1.09,0,0,0,137.42,17.6Z"/><path class="f3d0d70f-2022-4bef-95d4-d6fd8f19f43f" d="M137,16.1a1,1,0,0,0,.6-.24.89.89,0,0,0,.25-.44.88.88,0,0,0-.65-1.06l-.24-.07-.26-.08-.18-.06-.16-.06a3.07,3.07,0,0,1-.82-.49,3.19,3.19,0,0,1-.26-.26,1.59,1.59,0,0,1-.18-.27,1.76,1.76,0,0,1-.17-.37,3.18,3.18,0,0,1-.08-.33s0-.06,0-.09l-.19.16-.22.18a3.86,3.86,0,0,1-1.17.67l0,.07a4,4,0,0,0,.27.6,4,4,0,0,0,.5.67l.2.2.13.11a2,2,0,0,0,.18.15,4.94,4.94,0,0,0,1,.57,7.1,7.1,0,0,0,1.23.42l.2,0Z"/><path class="f3d0d70f-2022-4bef-95d4-d6fd8f19f43f" d="M136.91,12.77a1.12,1.12,0,0,0,1.49-.4,1.08,1.08,0,0,0-.4-1.48,1,1,0,0,0-.54-.15,1.08,1.08,0,0,0-.94.55,1,1,0,0,0-.11.82A1,1,0,0,0,136.91,12.77Z"/><path class="a77291a1-adba-4930-a790-b1a822679df3" d="M130.71,11.39a4.09,4.09,0,0,1,0,1.35h.07a3.74,3.74,0,0,0,1.49,0l.27-.08.16-.05.22-.08a4.91,4.91,0,0,0,1-.56,6.46,6.46,0,0,0,1-.87.59.59,0,0,0,.13-.17.89.89,0,0,0,.09-.64.81.81,0,0,0-.25-.44.85.85,0,0,0-.61-.24.87.87,0,0,0-.64.28l-.17.17-.2.18-.15.13-.13.1a3.21,3.21,0,0,1-.83.47l-.36.09a1.94,1.94,0,0,1-.72,0,1.91,1.91,0,0,1-.34-.1l-.07,0c0,.09,0,.17,0,.25Z"/><path class="a77291a1-adba-4930-a790-b1a822679df3" d="M132.08,9.31A1.09,1.09,0,1,0,131,7.43a1,1,0,0,0-.5.66,1,1,0,0,0,.11.82A1.11,1.11,0,0,0,132.08,9.31Z"/></g></svg>